<?xml version="1.0" encoding="UTF-8"?>
<svg xmlns="http://www.w3.org/2000/svg" xmlns:xlink="http://www.w3.org/1999/xlink" width="288px" height="252px" viewBox="0 0 288 252" version="1.1" id="Fig:dens">
  <metadata xmlns:gridsvg="http://www.stat.auckland.ac.nz/~paul/R/gridSVG/">
    <gridsvg:generator name="gridSVG" version="1.7-1" time="2020-05-03 10:34:35"/>
    <gridsvg:argument name="name" value="arrayQualityMetrics report for rawData/dens.svg"/>
    <gridsvg:argument name="exportCoords" value="none"/>
    <gridsvg:argument name="exportMappings" value="none"/>
    <gridsvg:argument name="exportJS" value="none"/>
    <gridsvg:argument name="res" value="72"/>
    <gridsvg:argument name="prefix" value="Fig:dens"/>
    <gridsvg:argument name="addClasses" value="FALSE"/>
    <gridsvg:argument name="indent" value="TRUE"/>
    <gridsvg:argument name="htmlWrapper" value="FALSE"/>
    <gridsvg:argument name="usePaths" value="none"/>
    <gridsvg:argument name="uniqueNames" value="TRUE"/>
    <gridsvg:separator name="id.sep" value="."/>
    <gridsvg:separator name="gPath.sep" value="::"/>
    <gridsvg:separator name="vpPath.sep" value="::"/>
  </metadata>
  <g transform="translate(0, 252) scale(1, -1)">
    <g id="Fig:densgridSVG" fill="none" stroke="rgb(0,0,0)" stroke-dasharray="none" stroke-width="0.75" font-size="12" font-family="Helvetica, Arial, FreeSans, Liberation Sans, Nimbus Sans L, sans-serif" opacity="1" stroke-linecap="round" stroke-linejoin="round" stroke-miterlimit="10" stroke-opacity="1" fill-opacity="0" font-weight="normal" font-style="normal">
      <g id="Fig:densplot_01.background.1">
        <rect id="Fig:densplot_01.background.1.1" x="0" y="0" width="288" height="252" transform="" fill="none" stroke="none" stroke-opacity="0" fill-opacity="0"/>
      </g>
      <g id="Fig:densplot_01.toplevel.vp.1" font-size="12">
        <g id="Fig:densplot_01.ylab.vp.1">
          <g id="Fig:densplot_01.ylab.1">
            <g id="Fig:densplot_01.ylab.1.1" transform="translate(10.31, 138.09)" stroke-width="0.1">
              <g id="Fig:densplot_01.ylab.1.1.scale" transform="scale(1, -1)">
                <text x="0" y="0" id="Fig:densplot_01.ylab.1.1.text" transform="rotate(-90)" text-anchor="middle" opacity="1" stroke="rgb(0,0,0)" fill="rgb(0,0,0)" stroke-opacity="1" fill-opacity="1" font-size="12" font-weight="normal" font-style="normal">
                  <tspan id="Fig:densplot_01.ylab.1.1.tspan.1" dy="4.31" x="0">Density</tspan>
                </text>
              </g>
            </g>
          </g>
        </g>
        <g id="Fig:densplot_01.figure.vp.1"/>
        <defs>
          <clipPath id="Fig:densplot_01.panel.1.1.vp.1.clipPath">
            <rect x="44.8" y="42.19" width="231.2" height="191.81" fill="none" stroke="none"/>
          </clipPath>
        </defs>
        <g id="Fig:densplot_01.panel.1.1.vp.1" clip-path="url(#Fig:densplot_01.panel.1.1.vp.1.clipPath)"/>
        <g id="Fig:densplot_01.strip.1.1.off.vp.1"/>
        <g id="Fig:densplot_01.strip.left.1.1.off.vp.1">
          <g id="Fig:densplot_01.ticks.left.panel.1.1.1">
            <polyline id="Fig:densplot_01.ticks.left.panel.1.1.1.1" points="44.8,53.97 39.13,53.97" stroke="rgb(0,0,0)" opacity="1" stroke-dasharray="none" stroke-width="0.75" stroke-opacity="1" fill="none"/>
            <polyline id="Fig:densplot_01.ticks.left.panel.1.1.1.2" points="44.8,91.4 39.13,91.4" stroke="rgb(0,0,0)" opacity="1" stroke-dasharray="none" stroke-width="0.75" stroke-opacity="1" fill="none"/>
            <polyline id="Fig:densplot_01.ticks.left.panel.1.1.1.3" points="44.8,128.84 39.13,128.84" stroke="rgb(0,0,0)" opacity="1" stroke-dasharray="none" stroke-width="0.75" stroke-opacity="1" fill="none"/>
            <polyline id="Fig:densplot_01.ticks.left.panel.1.1.1.4" points="44.8,166.27 39.13,166.27" stroke="rgb(0,0,0)" opacity="1" stroke-dasharray="none" stroke-width="0.75" stroke-opacity="1" fill="none"/>
            <polyline id="Fig:densplot_01.ticks.left.panel.1.1.1.5" points="44.8,203.71 39.13,203.71" stroke="rgb(0,0,0)" opacity="1" stroke-dasharray="none" stroke-width="0.75" stroke-opacity="1" fill="none"/>
          </g>
          <g id="Fig:densplot_01.ticklabels.left.panel.1.1.1">
            <g id="Fig:densplot_01.ticklabels.left.panel.1.1.1.1" transform="translate(33.47, 53.97)" stroke-width="0.1">
              <g id="Fig:densplot_01.ticklabels.left.panel.1.1.1.1.scale" transform="scale(1, -1)">
                <text x="0" y="0" id="Fig:densplot_01.ticklabels.left.panel.1.1.1.1.text" transform="rotate(-90)" text-anchor="middle" stroke="rgb(0,0,0)" opacity="1" fill="rgb(0,0,0)" stroke-opacity="1" fill-opacity="1" font-size="9.6" font-weight="normal" font-style="normal">
                  <tspan id="Fig:densplot_01.ticklabels.left.panel.1.1.1.1.tspan.1" dy="0" x="0">0.000</tspan>
                </text>
              </g>
            </g>
            <g id="Fig:densplot_01.ticklabels.left.panel.1.1.1.2" transform="translate(33.47, 91.4)" stroke-width="0.1">
              <g id="Fig:densplot_01.ticklabels.left.panel.1.1.1.2.scale" transform="scale(1, -1)">
                <text x="0" y="0" id="Fig:densplot_01.ticklabels.left.panel.1.1.1.2.text" transform="rotate(-90)" text-anchor="middle" stroke="rgb(0,0,0)" opacity="1" fill="rgb(0,0,0)" stroke-opacity="1" fill-opacity="1" font-size="9.6" font-weight="normal" font-style="normal">
                  <tspan id="Fig:densplot_01.ticklabels.left.panel.1.1.1.2.tspan.1" dy="0" x="0">0.002</tspan>
                </text>
              </g>
            </g>
            <g id="Fig:densplot_01.ticklabels.left.panel.1.1.1.3" transform="translate(33.47, 128.84)" stroke-width="0.1">
              <g id="Fig:densplot_01.ticklabels.left.panel.1.1.1.3.scale" transform="scale(1, -1)">
                <text x="0" y="0" id="Fig:densplot_01.ticklabels.left.panel.1.1.1.3.text" transform="rotate(-90)" text-anchor="middle" stroke="rgb(0,0,0)" opacity="1" fill="rgb(0,0,0)" stroke-opacity="1" fill-opacity="1" font-size="9.6" font-weight="normal" font-style="normal">
                  <tspan id="Fig:densplot_01.ticklabels.left.panel.1.1.1.3.tspan.1" dy="0" x="0">0.004</tspan>
                </text>
              </g>
            </g>
            <g id="Fig:densplot_01.ticklabels.left.panel.1.1.1.4" transform="translate(33.47, 166.27)" stroke-width="0.1">
              <g id="Fig:densplot_01.ticklabels.left.panel.1.1.1.4.scale" transform="scale(1, -1)">
                <text x="0" y="0" id="Fig:densplot_01.ticklabels.left.panel.1.1.1.4.text" transform="rotate(-90)" text-anchor="middle" stroke="rgb(0,0,0)" opacity="1" fill="rgb(0,0,0)" stroke-opacity="1" fill-opacity="1" font-size="9.6" font-weight="normal" font-style="normal">
                  <tspan id="Fig:densplot_01.ticklabels.left.panel.1.1.1.4.tspan.1" dy="0" x="0">0.006</tspan>
                </text>
              </g>
            </g>
            <g id="Fig:densplot_01.ticklabels.left.panel.1.1.1.5" transform="translate(33.47, 203.71)" stroke-width="0.1">
              <g id="Fig:densplot_01.ticklabels.left.panel.1.1.1.5.scale" transform="scale(1, -1)">
                <text x="0" y="0" id="Fig:densplot_01.ticklabels.left.panel.1.1.1.5.text" transform="rotate(-90)" text-anchor="middle" stroke="rgb(0,0,0)" opacity="1" fill="rgb(0,0,0)" stroke-opacity="1" fill-opacity="1" font-size="9.6" font-weight="normal" font-style="normal">
                  <tspan id="Fig:densplot_01.ticklabels.left.panel.1.1.1.5.tspan.1" dy="0" x="0">0.008</tspan>
                </text>
              </g>
            </g>
          </g>
        </g>
        <g id="Fig:densplot_01.panel.1.1.off.vp.1">
          <g id="Fig:densplot_01.ticks.bottom.panel.1.1.1">
            <polyline id="Fig:densplot_01.ticks.bottom.panel.1.1.1.1" points="59.11,42.19 59.11,36.52" stroke="rgb(0,0,0)" opacity="1" stroke-dasharray="none" stroke-width="0.75" stroke-opacity="1" fill="none"/>
            <polyline id="Fig:densplot_01.ticks.bottom.panel.1.1.1.2" points="110.32,42.19 110.32,36.52" stroke="rgb(0,0,0)" opacity="1" stroke-dasharray="none" stroke-width="0.75" stroke-opacity="1" fill="none"/>
            <polyline id="Fig:densplot_01.ticks.bottom.panel.1.1.1.3" points="161.53,42.19 161.53,36.52" stroke="rgb(0,0,0)" opacity="1" stroke-dasharray="none" stroke-width="0.75" stroke-opacity="1" fill="none"/>
            <polyline id="Fig:densplot_01.ticks.bottom.panel.1.1.1.4" points="212.74,42.19 212.74,36.52" stroke="rgb(0,0,0)" opacity="1" stroke-dasharray="none" stroke-width="0.75" stroke-opacity="1" fill="none"/>
            <polyline id="Fig:densplot_01.ticks.bottom.panel.1.1.1.5" points="263.95,42.19 263.95,36.52" stroke="rgb(0,0,0)" opacity="1" stroke-dasharray="none" stroke-width="0.75" stroke-opacity="1" fill="none"/>
          </g>
          <g id="Fig:densplot_01.ticklabels.bottom.panel.1.1.1">
            <g id="Fig:densplot_01.ticklabels.bottom.panel.1.1.1.1" transform="translate(59.11, 30.85)" stroke-width="0.1">
              <g id="Fig:densplot_01.ticklabels.bottom.panel.1.1.1.1.scale" transform="scale(1, -1)">
                <text x="0" y="0" id="Fig:densplot_01.ticklabels.bottom.panel.1.1.1.1.text" text-anchor="middle" stroke="rgb(0,0,0)" opacity="1" fill="rgb(0,0,0)" stroke-opacity="1" fill-opacity="1" font-size="9.6" font-weight="normal" font-style="normal">
                  <tspan id="Fig:densplot_01.ticklabels.bottom.panel.1.1.1.1.tspan.1" dy="7.18" x="0">0</tspan>
                </text>
              </g>
            </g>
            <g id="Fig:densplot_01.ticklabels.bottom.panel.1.1.1.2" transform="translate(110.32, 30.85)" stroke-width="0.1">
              <g id="Fig:densplot_01.ticklabels.bottom.panel.1.1.1.2.scale" transform="scale(1, -1)">
                <text x="0" y="0" id="Fig:densplot_01.ticklabels.bottom.panel.1.1.1.2.text" text-anchor="middle" stroke="rgb(0,0,0)" opacity="1" fill="rgb(0,0,0)" stroke-opacity="1" fill-opacity="1" font-size="9.6" font-weight="normal" font-style="normal">
                  <tspan id="Fig:densplot_01.ticklabels.bottom.panel.1.1.1.2.tspan.1" dy="7.18" x="0">1000</tspan>
                </text>
              </g>
            </g>
            <g id="Fig:densplot_01.ticklabels.bottom.panel.1.1.1.3" transform="translate(161.53, 30.85)" stroke-width="0.1">
              <g id="Fig:densplot_01.ticklabels.bottom.panel.1.1.1.3.scale" transform="scale(1, -1)">
                <text x="0" y="0" id="Fig:densplot_01.ticklabels.bottom.panel.1.1.1.3.text" text-anchor="middle" stroke="rgb(0,0,0)" opacity="1" fill="rgb(0,0,0)" stroke-opacity="1" fill-opacity="1" font-size="9.6" font-weight="normal" font-style="normal">
                  <tspan id="Fig:densplot_01.ticklabels.bottom.panel.1.1.1.3.tspan.1" dy="7.18" x="0">2000</tspan>
                </text>
              </g>
            </g>
            <g id="Fig:densplot_01.ticklabels.bottom.panel.1.1.1.4" transform="translate(212.74, 30.85)" stroke-width="0.1">
              <g id="Fig:densplot_01.ticklabels.bottom.panel.1.1.1.4.scale" transform="scale(1, -1)">
                <text x="0" y="0" id="Fig:densplot_01.ticklabels.bottom.panel.1.1.1.4.text" text-anchor="middle" stroke="rgb(0,0,0)" opacity="1" fill="rgb(0,0,0)" stroke-opacity="1" fill-opacity="1" font-size="9.6" font-weight="normal" font-style="normal">
                  <tspan id="Fig:densplot_01.ticklabels.bottom.panel.1.1.1.4.tspan.1" dy="7.18" x="0">3000</tspan>
                </text>
              </g>
            </g>
            <g id="Fig:densplot_01.ticklabels.bottom.panel.1.1.1.5" transform="translate(263.95, 30.85)" stroke-width="0.1">
              <g id="Fig:densplot_01.ticklabels.bottom.panel.1.1.1.5.scale" transform="scale(1, -1)">
                <text x="0" y="0" id="Fig:densplot_01.ticklabels.bottom.panel.1.1.1.5.text" text-anchor="middle" stroke="rgb(0,0,0)" opacity="1" fill="rgb(0,0,0)" stroke-opacity="1" fill-opacity="1" font-size="9.6" font-weight="normal" font-style="normal">
                  <tspan id="Fig:densplot_01.ticklabels.bottom.panel.1.1.1.5.tspan.1" dy="7.18" x="0">4000</tspan>
                </text>
              </g>
            </g>
          </g>
        </g>
        <defs>
          <clipPath id="Fig:densplot_01.panel.1.1.vp.2.clipPath">
            <rect x="44.8" y="42.19" width="231.2" height="191.81" fill="none" stroke="none"/>
          </clipPath>
        </defs>
        <g id="Fig:densplot_01.panel.1.1.vp.2" clip-path="url(#Fig:densplot_01.panel.1.1.vp.2.clipPath)">
          <g id="Fig:densplot_01.xyplot.lines.group.1.panel.1.1.1">
            <polyline id="Fig:densplot_01.xyplot.lines.group.1.panel.1.1.1.1" points="59.26,53.97 59.66,54 60.05,54.18 60.45,55.09 60.85,58.26 61.24,66.45 61.64,82.1 62.04,104.5 62.43,128.57 62.83,147.68 63.23,157.87 63.62,159.46 64.02,155.35 64.41,148.6 64.81,141.27 65.21,134.34 65.6,128.04 66,122.27 66.4,116.91 66.79,111.99 67.19,107.5 67.58,103.43 67.98,99.75 68.38,96.46 68.77,93.52 69.17,90.88 69.57,88.49 69.96,86.31 70.36,84.33 70.76,82.52 71.15,80.85 71.55,79.3 71.94,77.86 72.34,76.54 72.74,75.36 73.13,74.31 73.53,73.39 73.93,72.55 74.32,71.74 74.72,70.93 75.12,70.11 75.51,69.35 75.91,68.68 76.3,68.1 76.7,67.53 77.1,66.94 77.49,66.35 77.89,65.82 78.29,65.36 78.68,64.97 79.08,64.6 79.48,64.25 79.87,63.9 80.27,63.56 80.66,63.23 81.06,62.93 81.46,62.66 81.85,62.41 82.25,62.16 82.65,61.92 83.04,61.68 83.44,61.45 83.84,61.23 84.23,61.03 84.63,60.84 85.02,60.67 85.42,60.51 85.82,60.36 86.21,60.23 86.61,60.11 87.01,59.97 87.4,59.81 87.8,59.64 88.2,59.5 88.59,59.38 88.99,59.26 89.38,59.12 89.78,58.97 90.18,58.83 90.57,58.71 90.97,58.59 91.37,58.49 91.76,58.42 92.16,58.36 92.56,58.29 92.95,58.18 93.35,58.06 93.74,57.96 94.14,57.88 94.54,57.81 94.93,57.75 95.33,57.7 95.73,57.65 96.12,57.59 96.52,57.52 96.92,57.45 97.31,57.4 97.71,57.34 98.1,57.28 98.5,57.21 98.9,57.15 99.29,57.09 99.69,57.03 100.09,56.98 100.48,56.94 100.88,56.89 101.28,56.83 101.67,56.77 102.07,56.71 102.46,56.67 102.86,56.63 103.26,56.6 103.65,56.55 104.05,56.5 104.45,56.44 104.84,56.4 105.24,56.37 105.63,56.34 106.03,56.32 106.43,56.29 106.82,56.24 107.22,56.2 107.62,56.15 108.01,56.1 108.41,56.05 108.81,56.03 109.2,56.03 109.6,56.01 109.99,55.99 110.39,55.96 110.79,55.93 111.18,55.9 111.58,55.89 111.98,55.89 112.37,55.87 112.77,55.85 113.17,55.82 113.56,55.8 113.96,55.78 114.35,55.75 114.75,55.72 115.15,55.68 115.54,55.65 115.94,55.63 116.34,55.62 116.73,55.62 117.13,55.62 117.53,55.6 117.92,55.57 118.32,55.55 118.71,55.53 119.11,55.52 119.51,55.49 119.9,55.47 120.3,55.43 120.7,55.4 121.09,55.38 121.49,55.38 121.89,55.37 122.28,55.34 122.68,55.31 123.07,55.27 123.47,55.26 123.87,55.27 124.26,55.27 124.66,55.27 125.06,55.25 125.45,55.23 125.85,55.22 126.25,55.21 126.64,55.21 127.04,55.2 127.43,55.19 127.83,55.17 128.23,55.15 128.62,55.12 129.02,55.1 129.42,55.09 129.81,55.09 130.21,55.09 130.61,55.08 131,55.06 131.4,55.05 131.79,55.03 132.19,55.03 132.59,55.03 132.98,55.02 133.38,55.01 133.78,54.98 134.17,54.96 134.57,54.93 134.97,54.92 135.36,54.92 135.76,54.92 136.15,54.92 136.55,54.92 136.95,54.91 137.34,54.9 137.74,54.89 138.14,54.88 138.53,54.87 138.93,54.85 139.33,54.85 139.72,54.86 140.12,54.87 140.51,54.86 140.91,54.84 141.31,54.81 141.7,54.79 142.1,54.78 142.5,54.77 142.89,54.76 143.29,54.74 143.68,54.73 144.08,54.73 144.48,54.73 144.87,54.73 145.27,54.73 145.67,54.74 146.06,54.74 146.46,54.74 146.86,54.73 147.25,54.71 147.65,54.7 148.04,54.69 148.44,54.69 148.84,54.69 149.23,54.68 149.63,54.67 150.03,54.65 150.42,54.64 150.82,54.64 151.22,54.63 151.61,54.63 152.01,54.63 152.4,54.64 152.8,54.65 153.2,54.65 153.59,54.65 153.99,54.64 154.39,54.62 154.78,54.6 155.18,54.59 155.58,54.6 155.97,54.61 156.37,54.61 156.76,54.6 157.16,54.59 157.56,54.57 157.95,54.56 158.35,54.56 158.75,54.56 159.14,54.57 159.54,54.57 159.94,54.57 160.33,54.56 160.73,54.55 161.12,54.54 161.52,54.53 161.92,54.53 162.31,54.53 162.71,54.54 163.11,54.54 163.5,54.54 163.9,54.53 164.3,54.52 164.69,54.51 165.09,54.51 165.48,54.51 165.88,54.5 166.28,54.49 166.67,54.48 167.07,54.48 167.47,54.48 167.86,54.48 168.26,54.48 168.66,54.48 169.05,54.47 169.45,54.46 169.84,54.45 170.24,54.44 170.64,54.43 171.03,54.43 171.43,54.43 171.83,54.43 172.22,54.44 172.62,54.44 173.02,54.44 173.41,54.44 173.81,54.43 174.2,54.42 174.6,54.42 175,54.41 175.39,54.41 175.79,54.41 176.19,54.42 176.58,54.42 176.98,54.41 177.38,54.41 177.77,54.4 178.17,54.39 178.56,54.39 178.96,54.39 179.36,54.39 179.75,54.39 180.15,54.38 180.55,54.38 180.94,54.37 181.34,54.37 181.73,54.37 182.13,54.38 182.53,54.39 182.92,54.39 183.32,54.38 183.72,54.37 184.11,54.37 184.51,54.36 184.91,54.35 185.3,54.34 185.7,54.33 186.09,54.33 186.49,54.33 186.89,54.33 187.28,54.34 187.68,54.35 188.08,54.34 188.47,54.34 188.87,54.34 189.27,54.34 189.66,54.34 190.06,54.34 190.45,54.35 190.85,54.34 191.25,54.34 191.64,54.33 192.04,54.33 192.44,54.32 192.83,54.32 193.23,54.31 193.63,54.3 194.02,54.29 194.42,54.28 194.81,54.29 195.21,54.29 195.61,54.3 196,54.3 196.4,54.3 196.8,54.3 197.19,54.3 197.59,54.3 197.99,54.3 198.38,54.29 198.78,54.29 199.17,54.29 199.57,54.29 199.97,54.28 200.36,54.27 200.76,54.27 201.16,54.26 201.55,54.26 201.95,54.26 202.35,54.26 202.74,54.26 203.14,54.26 203.53,54.26 203.93,54.26 204.33,54.25 204.72,54.25 205.12,54.25 205.52,54.25 205.91,54.25 206.31,54.24 206.71,54.24 207.1,54.25 207.5,54.25 207.89,54.26 208.29,54.26 208.69,54.25 209.08,54.25 209.48,54.26 209.88,54.27 210.27,54.26 210.67,54.26 211.07,54.24 211.46,54.22 211.86,54.22 212.25,54.22 212.65,54.23 213.05,54.24 213.44,54.25 213.84,54.25 214.24,54.25 214.63,54.24 215.03,54.24 215.42,54.23 215.82,54.23 216.22,54.23 216.61,54.22 217.01,54.21 217.41,54.2 217.8,54.19 218.2,54.19 218.6,54.2 218.99,54.21 219.39,54.21 219.78,54.22 220.18,54.21 220.58,54.21 220.97,54.2 221.37,54.2 221.77,54.2 222.16,54.2 222.56,54.21 222.96,54.21 223.35,54.21 223.75,54.21 224.14,54.21 224.54,54.2 224.94,54.2 225.33,54.2 225.73,54.2 226.13,54.2 226.52,54.2 226.92,54.2 227.32,54.2 227.71,54.2 228.11,54.19 228.5,54.19 228.9,54.18 229.3,54.18 229.69,54.18 230.09,54.18 230.49,54.19 230.88,54.2 231.28,54.2 231.68,54.2 232.07,54.18 232.47,54.17 232.86,54.15 233.26,54.15 233.66,54.16 234.05,54.16 234.45,54.16 234.85,54.16 235.24,54.16 235.64,54.15 236.04,54.15 236.43,54.16 236.83,54.16 237.22,54.16 237.62,54.15 238.02,54.14 238.41,54.14 238.81,54.15 239.21,54.15 239.6,54.15 240,54.15 240.4,54.15 240.79,54.16 241.19,54.16 241.58,54.16 241.98,54.16 242.38,54.15 242.77,54.15 243.17,54.15 243.57,54.15 243.96,54.15 244.36,54.16 244.76,54.15 245.15,54.15 245.55,54.14 245.94,54.14 246.34,54.14 246.74,54.13 247.13,54.13 247.53,54.14 247.93,54.14 248.32,54.14 248.72,54.14 249.12,54.13 249.51,54.13 249.91,54.14 250.3,54.14 250.7,54.15 251.1,54.15 251.49,54.15 251.89,54.15 252.29,54.14 252.68,54.14 253.08,54.14 253.47,54.14 253.87,54.14 254.27,54.14 254.66,54.14 255.06,54.13 255.46,54.13 255.85,54.12 256.25,54.13 256.65,54.13 257.04,54.13 257.44,54.13 257.83,54.13 258.23,54.13 258.63,54.13 259.02,54.12 259.42,54.11 259.82,54.08 260.21,54.04 260.61,54 261.01,53.98 261.4,53.97 261.8,53.97" stroke-dasharray="none" stroke="rgb(31,120,180)" stroke-width="0.75" opacity="1" stroke-opacity="1" fill="none"/>
          </g>
          <g id="Fig:densplot_01.xyplot.lines.group.2.panel.1.1.1">
            <polyline id="Fig:densplot_01.xyplot.lines.group.2.panel.1.1.1.1" points="59,53.97 59.4,53.97 59.79,53.98 60.19,54.09 60.59,54.59 60.98,56.47 61.38,61.75 61.78,72.86 62.18,90.58 62.57,112.1 62.97,131.82 63.37,144.76 63.76,149.42 64.16,147.64 64.56,142.47 64.95,136.27 65.35,130.21 65.75,124.68 66.14,119.8 66.54,115.6 66.94,112.03 67.33,108.93 67.73,106.07 68.13,103.33 68.53,100.69 68.92,98.18 69.32,95.78 69.72,93.46 70.11,91.23 70.51,89.1 70.91,87.08 71.3,85.23 71.7,83.58 72.1,82.12 72.49,80.76 72.89,79.46 73.29,78.22 73.68,77.04 74.08,75.89 74.48,74.79 74.88,73.78 75.27,72.87 75.67,72.01 76.07,71.18 76.46,70.39 76.86,69.68 77.26,69.06 77.65,68.48 78.05,67.92 78.45,67.36 78.84,66.82 79.24,66.29 79.64,65.79 80.03,65.34 80.43,64.93 80.83,64.57 81.23,64.23 81.62,63.86 82.02,63.48 82.42,63.12 82.81,62.79 83.21,62.49 83.61,62.23 84,61.98 84.4,61.77 84.8,61.6 85.19,61.43 85.59,61.22 85.99,60.98 86.38,60.73 86.78,60.54 87.18,60.4 87.58,60.29 87.97,60.15 88.37,59.96 88.77,59.75 89.16,59.56 89.56,59.39 89.96,59.24 90.35,59.09 90.75,58.94 91.15,58.8 91.54,58.68 91.94,58.57 92.34,58.45 92.73,58.35 93.13,58.26 93.53,58.2 93.93,58.15 94.32,58.08 94.72,57.99 95.12,57.9 95.51,57.81 95.91,57.72 96.31,57.64 96.7,57.56 97.1,57.47 97.5,57.38 97.89,57.29 98.29,57.21 98.69,57.17 99.08,57.12 99.48,57.07 99.88,57 100.28,56.93 100.67,56.86 101.07,56.81 101.47,56.76 101.86,56.72 102.26,56.69 102.66,56.65 103.05,56.61 103.45,56.55 103.85,56.49 104.24,56.45 104.64,56.42 105.04,56.37 105.43,56.33 105.83,56.3 106.23,56.29 106.63,56.3 107.02,56.27 107.42,56.22 107.82,56.15 108.21,56.09 108.61,56.04 109.01,56.01 109.4,55.99 109.8,55.98 110.2,55.97 110.59,55.94 110.99,55.9 111.39,55.85 111.78,55.82 112.18,55.8 112.58,55.79 112.98,55.79 113.37,55.76 113.77,55.74 114.17,55.71 114.56,55.7 114.96,55.68 115.36,55.65 115.75,55.62 116.15,55.59 116.55,55.56 116.94,55.54 117.34,55.52 117.74,55.5 118.13,55.48 118.53,55.46 118.93,55.44 119.33,55.43 119.72,55.41 120.12,55.39 120.52,55.38 120.91,55.36 121.31,55.34 121.71,55.32 122.1,55.31 122.5,55.31 122.9,55.31 123.29,55.3 123.69,55.29 124.09,55.27 124.48,55.25 124.88,55.24 125.28,55.23 125.68,55.21 126.07,55.18 126.47,55.15 126.87,55.14 127.26,55.15 127.66,55.15 128.06,55.14 128.45,55.1 128.85,55.08 129.25,55.06 129.64,55.04 130.04,55.02 130.44,54.99 130.83,54.98 131.23,54.98 131.63,54.98 132.03,54.97 132.42,54.96 132.82,54.95 133.22,54.95 133.61,54.94 134.01,54.94 134.41,54.93 134.8,54.93 135.2,54.92 135.6,54.91 135.99,54.89 136.39,54.87 136.79,54.86 137.18,54.84 137.58,54.84 137.98,54.83 138.38,54.83 138.77,54.82 139.17,54.81 139.57,54.8 139.96,54.8 140.36,54.8 140.76,54.8 141.15,54.8 141.55,54.79 141.95,54.79 142.34,54.78 142.74,54.77 143.14,54.77 143.53,54.75 143.93,54.73 144.33,54.71 144.73,54.7 145.12,54.71 145.52,54.72 145.92,54.72 146.31,54.71 146.71,54.71 147.11,54.7 147.5,54.69 147.9,54.68 148.3,54.67 148.69,54.67 149.09,54.67 149.49,54.67 149.88,54.66 150.28,54.65 150.68,54.64 151.08,54.62 151.47,54.61 151.87,54.6 152.27,54.59 152.66,54.59 153.06,54.6 153.46,54.6 153.85,54.6 154.25,54.59 154.65,54.57 155.04,54.56 155.44,54.55 155.84,54.55 156.23,54.56 156.63,54.56 157.03,54.57 157.43,54.56 157.82,54.55 158.22,54.54 158.62,54.53 159.01,54.52 159.41,54.51 159.81,54.51 160.2,54.52 160.6,54.52 161,54.52 161.39,54.51 161.79,54.5 162.19,54.48 162.58,54.47 162.98,54.47 163.38,54.47 163.78,54.48 164.17,54.48 164.57,54.48 164.97,54.48 165.36,54.47 165.76,54.46 166.16,54.45 166.55,54.44 166.95,54.43 167.35,54.43 167.74,54.43 168.14,54.43 168.54,54.43 168.93,54.42 169.33,54.42 169.73,54.42 170.13,54.41 170.52,54.41 170.92,54.4 171.32,54.41 171.71,54.41 172.11,54.42 172.51,54.41 172.9,54.41 173.3,54.41 173.7,54.41 174.09,54.4 174.49,54.4 174.89,54.4 175.28,54.4 175.68,54.39 176.08,54.38 176.48,54.36 176.87,54.35 177.27,54.35 177.67,54.34 178.06,54.34 178.46,54.34 178.86,54.35 179.25,54.35 179.65,54.35 180.05,54.34 180.44,54.35 180.84,54.35 181.24,54.35 181.63,54.34 182.03,54.34 182.43,54.34 182.83,54.34 183.22,54.33 183.62,54.32 184.02,54.31 184.41,54.3 184.81,54.3 185.21,54.31 185.6,54.32 186,54.32 186.4,54.32 186.79,54.32 187.19,54.31 187.59,54.31 187.98,54.3 188.38,54.3 188.78,54.3 189.18,54.32 189.57,54.33 189.97,54.33 190.37,54.32 190.76,54.31 191.16,54.3 191.56,54.29 191.95,54.29 192.35,54.29 192.75,54.29 193.14,54.28 193.54,54.28 193.94,54.28 194.33,54.27 194.73,54.27 195.13,54.27 195.53,54.27 195.92,54.26 196.32,54.26 196.72,54.25 197.11,54.25 197.51,54.25 197.91,54.25 198.3,54.25 198.7,54.24 199.1,54.24 199.49,54.24 199.89,54.25 200.29,54.26 200.68,54.26 201.08,54.26 201.48,54.25 201.88,54.24 202.27,54.24 202.67,54.24 203.07,54.24 203.46,54.24 203.86,54.23 204.26,54.23 204.65,54.22 205.05,54.22 205.45,54.22 205.84,54.22 206.24,54.21 206.64,54.21 207.03,54.22 207.43,54.22 207.83,54.23 208.23,54.23 208.62,54.22 209.02,54.22 209.42,54.21 209.81,54.21 210.21,54.21 210.61,54.21 211,54.22 211.4,54.23 211.8,54.23 212.19,54.23 212.59,54.22 212.99,54.21 213.38,54.2 213.78,54.19 214.18,54.19 214.58,54.18 214.97,54.19 215.37,54.19 215.77,54.2 216.16,54.2 216.56,54.2 216.96,54.2 217.35,54.21 217.75,54.2 218.15,54.2 218.54,54.2 218.94,54.2 219.34,54.2 219.73,54.2 220.13,54.19 220.53,54.19 220.93,54.19 221.32,54.19 221.72,54.18 222.12,54.18 222.51,54.18 222.91,54.18 223.31,54.18 223.7,54.18 224.1,54.18 224.5,54.17 224.89,54.17 225.29,54.16 225.69,54.16 226.08,54.16 226.48,54.16 226.88,54.16 227.28,54.17 227.67,54.17 228.07,54.17 228.47,54.17 228.86,54.17 229.26,54.16 229.66,54.16 230.05,54.16 230.45,54.17 230.85,54.17 231.24,54.17 231.64,54.16 232.04,54.16 232.43,54.16 232.83,54.16 233.23,54.16 233.63,54.16 234.02,54.15 234.42,54.15 234.82,54.15 235.21,54.15 235.61,54.16 236.01,54.16 236.4,54.15 236.8,54.15 237.2,54.14 237.59,54.14 237.99,54.14 238.39,54.14 238.78,54.14 239.18,54.15 239.58,54.15 239.98,54.15 240.37,54.15 240.77,54.15 241.17,54.14 241.56,54.14 241.96,54.14 242.36,54.14 242.75,54.14 243.15,54.14 243.55,54.14 243.94,54.13 244.34,54.12 244.74,54.12 245.13,54.12 245.53,54.12 245.93,54.13 246.33,54.14 246.72,54.14 247.12,54.14 247.52,54.13 247.91,54.12 248.31,54.11 248.71,54.11 249.1,54.11 249.5,54.12 249.9,54.13 250.29,54.13 250.69,54.13 251.09,54.13 251.48,54.13 251.88,54.12 252.28,54.11 252.68,54.1 253.07,54.1 253.47,54.1 253.87,54.11 254.26,54.12 254.66,54.13 255.06,54.12 255.45,54.12 255.85,54.11 256.25,54.11 256.64,54.11 257.04,54.11 257.44,54.11 257.83,54.11 258.23,54.11 258.63,54.11 259.03,54.1 259.42,54.09 259.82,54.07 260.22,54.03 260.61,54 261.01,53.98 261.41,53.97 261.8,53.97" stroke-dasharray="none" stroke="rgb(31,120,180)" stroke-width="0.75" opacity="1" stroke-opacity="1" fill="none"/>
          </g>
          <g id="Fig:densplot_01.xyplot.lines.group.3.panel.1.1.1">
            <polyline id="Fig:densplot_01.xyplot.lines.group.3.panel.1.1.1.1" points="59.25,53.97 59.65,53.97 60.05,54.04 60.44,54.44 60.84,56.34 61.23,62.95 61.63,79.14 62.03,106.45 62.42,138.63 62.82,164.53 63.21,176.97 63.61,176.55 64.01,168.39 64.4,157.54 64.8,146.93 65.19,137.65 65.59,129.75 65.99,122.99 66.38,117.11 66.78,111.84 67.17,107.05 67.57,102.71 67.97,98.84 68.36,95.4 68.76,92.31 69.15,89.52 69.55,87.01 69.95,84.75 70.34,82.75 70.74,81 71.13,79.46 71.53,78.03 71.93,76.7 72.32,75.46 72.72,74.31 73.11,73.24 73.51,72.25 73.91,71.34 74.3,70.47 74.7,69.65 75.09,68.86 75.49,68.12 75.89,67.45 76.28,66.85 76.68,66.3 77.07,65.82 77.47,65.4 77.87,65.02 78.26,64.64 78.66,64.27 79.05,63.92 79.45,63.58 79.85,63.25 80.24,62.95 80.64,62.69 81.03,62.4 81.43,62.06 81.83,61.76 82.22,61.52 82.62,61.35 83.01,61.18 83.41,61 83.81,60.81 84.2,60.61 84.6,60.38 84.99,60.17 85.39,60.01 85.79,59.87 86.18,59.73 86.58,59.61 86.97,59.49 87.37,59.36 87.76,59.21 88.16,59.04 88.56,58.88 88.95,58.74 89.35,58.6 89.74,58.48 90.14,58.37 90.54,58.3 90.93,58.24 91.33,58.17 91.72,58.1 92.12,58.04 92.52,57.98 92.91,57.91 93.31,57.83 93.7,57.75 94.1,57.67 94.5,57.57 94.89,57.46 95.29,57.35 95.68,57.26 96.08,57.19 96.48,57.13 96.87,57.08 97.27,57.04 97.66,56.99 98.06,56.94 98.46,56.9 98.85,56.86 99.25,56.81 99.64,56.75 100.04,56.67 100.44,56.58 100.83,56.52 101.23,56.5 101.62,56.51 102.02,56.48 102.42,56.42 102.81,56.35 103.21,56.31 103.6,56.29 104,56.28 104.4,56.26 104.79,56.23 105.19,56.2 105.58,56.16 105.98,56.11 106.38,56.07 106.77,56.03 107.17,55.98 107.56,55.93 107.96,55.89 108.36,55.87 108.75,55.86 109.15,55.85 109.54,55.84 109.94,55.84 110.34,55.83 110.73,55.8 111.13,55.77 111.52,55.73 111.92,55.69 112.32,55.65 112.71,55.63 113.11,55.61 113.5,55.6 113.9,55.59 114.3,55.56 114.69,55.54 115.09,55.5 115.48,55.47 115.88,55.44 116.28,55.41 116.67,55.39 117.07,55.38 117.46,55.38 117.86,55.38 118.26,55.38 118.65,55.35 119.05,55.32 119.44,55.31 119.84,55.29 120.24,55.29 120.63,55.29 121.03,55.28 121.42,55.25 121.82,55.21 122.22,55.19 122.61,55.18 123.01,55.17 123.4,55.16 123.8,55.14 124.2,55.12 124.59,55.11 124.99,55.12 125.38,55.12 125.78,55.1 126.18,55.07 126.57,55.04 126.97,55.02 127.36,55.01 127.76,55 128.16,55.01 128.55,55.02 128.95,55.02 129.34,55.01 129.74,54.99 130.13,54.99 130.53,54.98 130.93,54.97 131.32,54.96 131.72,54.94 132.11,54.93 132.51,54.91 132.91,54.89 133.3,54.88 133.7,54.87 134.09,54.86 134.49,54.85 134.89,54.84 135.28,54.83 135.68,54.82 136.07,54.81 136.47,54.8 136.87,54.79 137.26,54.8 137.66,54.81 138.05,54.82 138.45,54.81 138.85,54.79 139.24,54.77 139.64,54.74 140.03,54.73 140.43,54.73 140.83,54.73 141.22,54.72 141.62,54.72 142.01,54.72 142.41,54.71 142.81,54.7 143.2,54.68 143.6,54.66 143.99,54.66 144.39,54.65 144.79,54.64 145.18,54.64 145.58,54.64 145.97,54.66 146.37,54.67 146.77,54.67 147.16,54.67 147.56,54.66 147.95,54.65 148.35,54.63 148.75,54.61 149.14,54.59 149.54,54.59 149.93,54.59 150.33,54.59 150.73,54.59 151.12,54.6 151.52,54.59 151.91,54.58 152.31,54.56 152.71,54.54 153.1,54.53 153.5,54.53 153.89,54.54 154.29,54.56 154.69,54.56 155.08,54.56 155.48,54.56 155.87,54.54 156.27,54.53 156.67,54.52 157.06,54.52 157.46,54.52 157.85,54.53 158.25,54.53 158.65,54.53 159.04,54.52 159.44,54.52 159.83,54.53 160.23,54.54 160.63,54.52 161.02,54.49 161.42,54.47 161.81,54.46 162.21,54.46 162.61,54.46 163,54.46 163.4,54.46 163.79,54.46 164.19,54.45 164.59,54.43 164.98,54.41 165.38,54.41 165.77,54.4 166.17,54.4 166.57,54.39 166.96,54.39 167.36,54.39 167.75,54.4 168.15,54.4 168.55,54.39 168.94,54.39 169.34,54.39 169.73,54.4 170.13,54.4 170.53,54.4 170.92,54.4 171.32,54.41 171.71,54.41 172.11,54.41 172.5,54.39 172.9,54.37 173.3,54.35 173.69,54.35 174.09,54.36 174.48,54.37 174.88,54.37 175.28,54.37 175.67,54.36 176.07,54.36 176.46,54.35 176.86,54.35 177.26,54.35 177.65,54.35 178.05,54.34 178.44,54.34 178.84,54.33 179.24,54.34 179.63,54.34 180.03,54.34 180.42,54.34 180.82,54.34 181.22,54.33 181.61,54.32 182.01,54.31 182.4,54.31 182.8,54.3 183.2,54.29 183.59,54.29 183.99,54.3 184.38,54.31 184.78,54.32 185.18,54.31 185.57,54.31 185.97,54.31 186.36,54.3 186.76,54.29 187.16,54.28 187.55,54.28 187.95,54.28 188.34,54.29 188.74,54.29 189.14,54.29 189.53,54.29 189.93,54.29 190.32,54.29 190.72,54.29 191.12,54.28 191.51,54.26 191.91,54.25 192.3,54.25 192.7,54.26 193.1,54.27 193.49,54.27 193.89,54.27 194.28,54.26 194.68,54.26 195.08,54.26 195.47,54.26 195.87,54.26 196.26,54.25 196.66,54.24 197.06,54.23 197.45,54.24 197.85,54.25 198.24,54.25 198.64,54.25 199.04,54.25 199.43,54.24 199.83,54.23 200.22,54.23 200.62,54.22 201.02,54.23 201.41,54.23 201.81,54.24 202.2,54.24 202.6,54.22 203,54.21 203.39,54.21 203.79,54.21 204.18,54.21 204.58,54.21 204.98,54.21 205.37,54.21 205.77,54.22 206.16,54.21 206.56,54.22 206.96,54.22 207.35,54.23 207.75,54.23 208.14,54.22 208.54,54.21 208.94,54.2 209.33,54.2 209.73,54.2 210.12,54.21 210.52,54.2 210.92,54.2 211.31,54.19 211.71,54.19 212.1,54.19 212.5,54.2 212.9,54.2 213.29,54.2 213.69,54.19 214.08,54.19 214.48,54.19 214.87,54.19 215.27,54.18 215.67,54.18 216.06,54.18 216.46,54.19 216.85,54.19 217.25,54.19 217.65,54.18 218.04,54.17 218.44,54.17 218.83,54.17 219.23,54.18 219.63,54.18 220.02,54.18 220.42,54.18 220.81,54.19 221.21,54.19 221.61,54.18 222,54.16 222.4,54.16 222.79,54.16 223.19,54.17 223.59,54.17 223.98,54.18 224.38,54.18 224.77,54.18 225.17,54.17 225.57,54.16 225.96,54.16 226.36,54.17 226.75,54.16 227.15,54.15 227.55,54.15 227.94,54.15 228.34,54.15 228.73,54.16 229.13,54.16 229.53,54.16 229.92,54.15 230.32,54.15 230.71,54.15 231.11,54.14 231.51,54.14 231.9,54.14 232.3,54.15 232.69,54.15 233.09,54.16 233.49,54.15 233.88,54.15 234.28,54.15 234.67,54.15 235.07,54.15 235.47,54.15 235.86,54.15 236.26,54.14 236.65,54.14 237.05,54.14 237.45,54.13 237.84,54.14 238.24,54.13 238.63,54.13 239.03,54.13 239.43,54.13 239.82,54.13 240.22,54.13 240.61,54.13 241.01,54.12 241.41,54.13 241.8,54.13 242.2,54.13 242.59,54.12 242.99,54.12 243.39,54.12 243.78,54.13 244.18,54.13 244.57,54.13 244.97,54.12 245.37,54.12 245.76,54.12 246.16,54.12 246.55,54.11 246.95,54.12 247.35,54.12 247.74,54.12 248.14,54.12 248.53,54.13 248.93,54.13 249.33,54.12 249.72,54.12 250.12,54.12 250.51,54.11 250.91,54.1 251.31,54.1 251.7,54.11 252.1,54.11 252.49,54.11 252.89,54.11 253.29,54.11 253.68,54.11 254.08,54.11 254.47,54.11 254.87,54.11 255.27,54.11 255.66,54.11 256.06,54.11 256.45,54.11 256.85,54.12 257.24,54.12 257.64,54.12 258.04,54.11 258.43,54.1 258.83,54.1 259.22,54.09 259.62,54.07 260.02,54.03 260.41,54 260.81,53.98 261.2,53.97 261.6,53.97" stroke-dasharray="none" stroke="rgb(31,120,180)" stroke-width="0.75" opacity="1" stroke-opacity="1" fill="none"/>
          </g>
          <g id="Fig:densplot_01.xyplot.lines.group.4.panel.1.1.1">
            <polyline id="Fig:densplot_01.xyplot.lines.group.4.panel.1.1.1.1" points="60.09,53.97 60.48,53.99 60.87,54.23 61.27,55.61 61.66,61.04 62.06,75.69 62.45,102.89 62.84,137.47 63.24,166.78 63.63,181.33 64.03,181.52 64.42,173.65 64.81,163.14 65.21,152.8 65.6,143.52 65.99,135.34 66.39,128.38 66.78,122.42 67.18,117.13 67.57,112.35 67.96,107.96 68.36,103.9 68.75,100.09 69.15,96.54 69.54,93.24 69.93,90.23 70.33,87.49 70.72,85 71.11,82.74 71.51,80.72 71.9,78.91 72.3,77.35 72.69,76.03 73.08,74.84 73.48,73.73 73.87,72.67 74.26,71.69 74.66,70.77 75.05,69.86 75.45,69 75.84,68.18 76.23,67.46 76.63,66.84 77.02,66.29 77.42,65.78 77.81,65.28 78.2,64.8 78.6,64.34 78.99,63.85 79.38,63.42 79.78,63.08 80.17,62.78 80.57,62.48 80.96,62.18 81.35,61.87 81.75,61.56 82.14,61.27 82.54,61.04 82.93,60.83 83.32,60.59 83.72,60.35 84.11,60.16 84.5,60.01 84.9,59.85 85.29,59.66 85.69,59.49 86.08,59.31 86.47,59.11 86.87,58.94 87.26,58.83 87.65,58.73 88.05,58.6 88.44,58.46 88.84,58.34 89.23,58.22 89.62,58.09 90.02,57.95 90.41,57.84 90.81,57.75 91.2,57.67 91.59,57.61 91.99,57.53 92.38,57.45 92.77,57.39 93.17,57.36 93.56,57.32 93.96,57.25 94.35,57.14 94.74,57.04 95.14,56.98 95.53,56.94 95.93,56.91 96.32,56.85 96.71,56.77 97.11,56.68 97.5,56.59 97.89,56.55 98.29,56.54 98.68,56.51 99.08,56.43 99.47,56.3 99.86,56.2 100.26,56.17 100.65,56.19 101.04,56.17 101.44,56.13 101.83,56.09 102.23,56.05 102.62,56.02 103.01,55.99 103.41,55.98 103.8,55.96 104.2,55.93 104.59,55.89 104.98,55.85 105.38,55.81 105.77,55.76 106.16,55.71 106.56,55.67 106.95,55.64 107.35,55.63 107.74,55.66 108.13,55.67 108.53,55.64 108.92,55.61 109.32,55.6 109.71,55.57 110.1,55.52 110.5,55.49 110.89,55.47 111.28,55.45 111.68,55.43 112.07,55.43 112.47,55.41 112.86,55.38 113.25,55.35 113.65,55.33 114.04,55.31 114.43,55.31 114.83,55.28 115.22,55.25 115.62,55.21 116.01,55.19 116.4,55.18 116.8,55.18 117.19,55.16 117.59,55.14 117.98,55.1 118.37,55.09 118.77,55.09 119.16,55.08 119.55,55.06 119.95,55.05 120.34,55.05 120.74,55.07 121.13,55.07 121.52,55.04 121.92,55.01 122.31,54.99 122.71,54.97 123.1,54.96 123.49,54.96 123.89,54.94 124.28,54.92 124.67,54.91 125.07,54.9 125.46,54.89 125.86,54.88 126.25,54.88 126.64,54.88 127.04,54.86 127.43,54.82 127.82,54.79 128.22,54.79 128.61,54.81 129.01,54.83 129.4,54.83 129.79,54.8 130.19,54.78 130.58,54.78 130.98,54.77 131.37,54.75 131.76,54.73 132.16,54.73 132.55,54.76 132.94,54.77 133.34,54.74 133.73,54.71 134.13,54.69 134.52,54.69 134.91,54.7 135.31,54.7 135.7,54.69 136.1,54.68 136.49,54.66 136.88,54.65 137.28,54.64 137.67,54.63 138.06,54.62 138.46,54.62 138.85,54.62 139.25,54.61 139.64,54.6 140.03,54.61 140.43,54.62 140.82,54.62 141.21,54.61 141.61,54.59 142,54.56 142.4,54.55 142.79,54.55 143.18,54.56 143.58,54.56 143.97,54.55 144.37,54.54 144.76,54.54 145.15,54.53 145.55,54.53 145.94,54.53 146.33,54.54 146.73,54.54 147.12,54.55 147.52,54.54 147.91,54.53 148.3,54.51 148.7,54.48 149.09,54.47 149.49,54.46 149.88,54.46 150.27,54.46 150.67,54.46 151.06,54.46 151.45,54.45 151.85,54.45 152.24,54.44 152.64,54.43 153.03,54.41 153.42,54.41 153.82,54.42 154.21,54.41 154.6,54.4 155,54.41 155.39,54.43 155.79,54.42 156.18,54.41 156.57,54.41 156.97,54.41 157.36,54.4 157.76,54.39 158.15,54.37 158.54,54.37 158.94,54.37 159.33,54.38 159.72,54.39 160.12,54.39 160.51,54.38 160.91,54.37 161.3,54.37 161.69,54.37 162.09,54.34 162.48,54.33 162.88,54.34 163.27,54.35 163.66,54.35 164.06,54.34 164.45,54.34 164.84,54.35 165.24,54.35 165.63,54.33 166.03,54.32 166.42,54.33 166.81,54.34 167.21,54.35 167.6,54.34 167.99,54.33 168.39,54.32 168.78,54.3 169.18,54.3 169.57,54.3 169.96,54.3 170.36,54.3 170.75,54.3 171.15,54.31 171.54,54.31 171.93,54.31 172.33,54.3 172.72,54.29 173.11,54.28 173.51,54.28 173.9,54.28 174.3,54.29 174.69,54.29 175.08,54.29 175.48,54.28 175.87,54.27 176.27,54.27 176.66,54.27 177.05,54.26 177.45,54.26 177.84,54.26 178.23,54.26 178.63,54.26 179.02,54.27 179.42,54.26 179.81,54.26 180.2,54.26 180.6,54.26 180.99,54.24 181.38,54.23 181.78,54.24 182.17,54.25 182.57,54.26 182.96,54.25 183.35,54.24 183.75,54.23 184.14,54.23 184.54,54.23 184.93,54.23 185.32,54.24 185.72,54.24 186.11,54.24 186.5,54.24 186.9,54.24 187.29,54.23 187.69,54.22 188.08,54.22 188.47,54.22 188.87,54.23 189.26,54.23 189.66,54.23 190.05,54.22 190.44,54.21 190.84,54.21 191.23,54.2 191.62,54.2 192.02,54.2 192.41,54.2 192.81,54.2 193.2,54.2 193.59,54.2 193.99,54.19 194.38,54.19 194.77,54.2 195.17,54.2 195.56,54.21 195.96,54.2 196.35,54.19 196.74,54.17 197.14,54.18 197.53,54.19 197.93,54.19 198.32,54.19 198.71,54.18 199.11,54.18 199.5,54.18 199.89,54.18 200.29,54.17 200.68,54.16 201.08,54.16 201.47,54.16 201.86,54.16 202.26,54.17 202.65,54.17 203.05,54.17 203.44,54.17 203.83,54.17 204.23,54.17 204.62,54.17 205.01,54.16 205.41,54.15 205.8,54.15 206.2,54.15 206.59,54.16 206.98,54.16 207.38,54.17 207.77,54.16 208.17,54.15 208.56,54.14 208.95,54.14 209.35,54.14 209.74,54.14 210.13,54.14 210.53,54.15 210.92,54.17 211.32,54.18 211.71,54.18 212.1,54.18 212.5,54.17 212.89,54.16 213.28,54.15 213.68,54.14 214.07,54.13 214.47,54.13 214.86,54.14 215.25,54.14 215.65,54.14 216.04,54.14 216.44,54.14 216.83,54.14 217.22,54.14 217.62,54.13 218.01,54.12 218.4,54.11 218.8,54.12 219.19,54.13 219.59,54.14 219.98,54.14 220.37,54.13 220.77,54.12 221.16,54.12 221.56,54.12 221.95,54.12 222.34,54.12 222.74,54.11 223.13,54.11 223.52,54.11 223.92,54.12 224.31,54.12 224.71,54.11 225.1,54.11 225.49,54.11 225.89,54.11 226.28,54.1 226.67,54.11 227.07,54.12 227.46,54.12 227.86,54.12 228.25,54.11 228.64,54.1 229.04,54.1 229.43,54.1 229.83,54.09 230.22,54.09 230.61,54.1 231.01,54.11 231.4,54.11 231.79,54.1 232.19,54.1 232.58,54.12 232.98,54.12 233.37,54.11 233.76,54.1 234.16,54.09 234.55,54.09 234.95,54.11 235.34,54.11 235.73,54.11 236.13,54.11 236.52,54.11 236.91,54.12 237.31,54.11 237.7,54.1 238.1,54.09 238.49,54.09 238.88,54.09 239.28,54.09 239.67,54.1 240.06,54.1 240.46,54.11 240.85,54.1 241.25,54.1 241.64,54.1 242.03,54.09 242.43,54.09 242.82,54.09 243.22,54.09 243.61,54.08 244,54.08 244.4,54.08 244.79,54.08 245.18,54.09 245.58,54.09 245.97,54.08 246.37,54.08 246.76,54.08 247.15,54.08 247.55,54.08 247.94,54.08 248.34,54.08 248.73,54.08 249.12,54.08 249.52,54.08 249.91,54.07 250.3,54.07 250.7,54.07 251.09,54.07 251.49,54.08 251.88,54.08 252.27,54.08 252.67,54.08 253.06,54.08 253.45,54.08 253.85,54.08 254.24,54.08 254.64,54.09 255.03,54.09 255.42,54.09 255.82,54.08 256.21,54.08 256.61,54.08 257,54.08 257.39,54.08 257.79,54.07 258.18,54.07 258.57,54.08 258.97,54.07 259.36,54.06 259.76,54.04 260.15,54.01 260.54,53.98 260.94,53.97 261.33,53.97" stroke-dasharray="none" stroke="rgb(31,120,180)" stroke-width="0.75" opacity="1" stroke-opacity="1" fill="none"/>
          </g>
          <g id="Fig:densplot_01.xyplot.lines.group.5.panel.1.1.1">
            <polyline id="Fig:densplot_01.xyplot.lines.group.5.panel.1.1.1.1" points="59.6,53.97 60,54.03 60.39,54.55 60.79,57.35 61.18,67.03 61.58,89.19 61.97,123.24 62.37,158.31 62.76,181.11 63.16,186.96 63.55,180.57 63.95,169.04 64.34,156.97 64.74,146.15 65.13,136.88 65.53,128.96 65.92,122.11 66.32,116.04 66.71,110.52 67.11,105.52 67.5,101.04 67.9,97.11 68.29,93.7 68.69,90.68 69.08,88.02 69.48,85.72 69.87,83.68 70.27,81.76 70.66,79.98 71.06,78.37 71.45,76.95 71.85,75.63 72.24,74.35 72.64,73.15 73.03,72.06 73.43,71.07 73.82,70.2 74.22,69.4 74.61,68.66 75.01,67.99 75.4,67.42 75.8,66.91 76.19,66.4 76.59,65.88 76.98,65.38 77.38,64.95 77.77,64.56 78.17,64.17 78.56,63.78 78.96,63.42 79.35,63.07 79.75,62.73 80.14,62.41 80.54,62.13 80.93,61.87 81.33,61.65 81.72,61.45 82.12,61.24 82.51,61.02 82.91,60.79 83.3,60.58 83.7,60.36 84.09,60.12 84.49,59.89 84.88,59.7 85.28,59.56 85.67,59.46 86.07,59.36 86.46,59.24 86.86,59.11 87.25,58.98 87.65,58.86 88.04,58.74 88.44,58.6 88.83,58.46 89.23,58.34 89.62,58.24 90.02,58.13 90.41,57.99 90.81,57.85 91.2,57.76 91.6,57.69 91.99,57.64 92.39,57.59 92.78,57.54 93.18,57.48 93.58,57.4 93.97,57.33 94.37,57.29 94.76,57.23 95.16,57.16 95.55,57.07 95.95,56.98 96.34,56.93 96.74,56.9 97.13,56.86 97.53,56.82 97.92,56.78 98.32,56.72 98.71,56.67 99.11,56.6 99.5,56.53 99.9,56.45 100.29,56.4 100.69,56.36 101.08,56.33 101.48,56.31 101.87,56.3 102.27,56.29 102.66,56.25 103.06,56.19 103.45,56.13 103.85,56.1 104.24,56.09 104.64,56.05 105.03,56 105.43,55.95 105.82,55.93 106.22,55.93 106.61,55.93 107.01,55.91 107.4,55.87 107.8,55.82 108.19,55.77 108.59,55.73 108.98,55.69 109.38,55.66 109.77,55.64 110.17,55.61 110.56,55.57 110.96,55.54 111.35,55.51 111.75,55.51 112.14,55.51 112.54,55.5 112.93,55.47 113.33,55.43 113.72,55.39 114.12,55.38 114.51,55.38 114.91,55.37 115.3,55.37 115.7,55.34 116.09,55.3 116.49,55.28 116.88,55.29 117.28,55.3 117.67,55.28 118.07,55.25 118.46,55.23 118.86,55.21 119.25,55.2 119.65,55.19 120.04,55.16 120.44,55.13 120.83,55.12 121.23,55.11 121.62,55.1 122.02,55.1 122.41,55.08 122.81,55.05 123.2,55.02 123.6,55.01 123.99,55 124.39,55 124.78,55 125.18,55 125.57,55.01 125.97,55 126.36,54.99 126.76,54.98 127.15,54.97 127.55,54.96 127.94,54.96 128.34,54.95 128.73,54.93 129.13,54.89 129.52,54.86 129.92,54.83 130.31,54.83 130.71,54.85 131.1,54.85 131.5,54.83 131.89,54.82 132.29,54.83 132.68,54.83 133.08,54.82 133.47,54.82 133.87,54.82 134.26,54.8 134.66,54.79 135.05,54.78 135.45,54.77 135.84,54.76 136.24,54.74 136.63,54.72 137.03,54.71 137.42,54.72 137.82,54.74 138.21,54.73 138.61,54.73 139,54.72 139.4,54.71 139.79,54.69 140.19,54.68 140.58,54.66 140.98,54.64 141.37,54.62 141.77,54.61 142.16,54.62 142.56,54.61 142.95,54.61 143.35,54.6 143.74,54.6 144.14,54.61 144.53,54.61 144.93,54.61 145.32,54.6 145.72,54.58 146.11,54.58 146.51,54.58 146.9,54.58 147.3,54.59 147.69,54.59 148.09,54.58 148.48,54.58 148.88,54.57 149.27,54.56 149.67,54.54 150.06,54.52 150.46,54.51 150.85,54.5 151.25,54.5 151.64,54.5 152.04,54.5 152.43,54.5 152.83,54.49 153.22,54.49 153.62,54.49 154.01,54.49 154.41,54.48 154.8,54.48 155.2,54.47 155.59,54.47 155.99,54.45 156.38,54.45 156.78,54.45 157.17,54.45 157.57,54.46 157.96,54.46 158.36,54.45 158.75,54.44 159.15,54.44 159.54,54.44 159.94,54.44 160.33,54.44 160.73,54.43 161.12,54.41 161.52,54.39 161.91,54.39 162.31,54.39 162.7,54.4 163.1,54.4 163.49,54.38 163.89,54.38 164.28,54.39 164.68,54.4 165.07,54.4 165.47,54.4 165.86,54.39 166.26,54.38 166.65,54.36 167.05,54.36 167.44,54.36 167.84,54.37 168.23,54.37 168.63,54.37 169.02,54.37 169.42,54.37 169.81,54.36 170.21,54.35 170.6,54.35 171,54.35 171.39,54.34 171.79,54.33 172.18,54.33 172.58,54.34 172.97,54.34 173.37,54.33 173.76,54.33 174.16,54.33 174.55,54.32 174.95,54.32 175.34,54.32 175.74,54.33 176.13,54.34 176.53,54.33 176.92,54.31 177.32,54.3 177.71,54.29 178.11,54.28 178.5,54.27 178.9,54.27 179.29,54.28 179.69,54.3 180.08,54.31 180.48,54.29 180.87,54.28 181.27,54.26 181.66,54.26 182.06,54.27 182.45,54.28 182.85,54.29 183.24,54.29 183.64,54.28 184.03,54.28 184.43,54.27 184.82,54.27 185.22,54.26 185.61,54.27 186.01,54.27 186.4,54.26 186.8,54.24 187.19,54.23 187.59,54.23 187.98,54.24 188.38,54.24 188.77,54.24 189.17,54.24 189.56,54.24 189.96,54.24 190.35,54.24 190.75,54.23 191.14,54.24 191.54,54.24 191.93,54.24 192.33,54.24 192.72,54.24 193.12,54.24 193.51,54.24 193.91,54.24 194.3,54.24 194.7,54.24 195.09,54.24 195.49,54.24 195.88,54.25 196.28,54.24 196.67,54.23 197.07,54.22 197.46,54.21 197.86,54.2 198.25,54.21 198.65,54.21 199.04,54.21 199.44,54.2 199.83,54.19 200.23,54.19 200.62,54.2 201.02,54.21 201.41,54.22 201.81,54.23 202.2,54.23 202.6,54.22 202.99,54.21 203.39,54.2 203.78,54.2 204.18,54.21 204.57,54.21 204.97,54.21 205.36,54.2 205.76,54.18 206.15,54.18 206.55,54.18 206.94,54.18 207.34,54.17 207.73,54.16 208.13,54.17 208.52,54.17 208.92,54.18 209.31,54.17 209.71,54.17 210.1,54.17 210.5,54.17 210.89,54.17 211.29,54.17 211.68,54.17 212.08,54.18 212.47,54.18 212.87,54.18 213.26,54.17 213.66,54.17 214.05,54.16 214.45,54.16 214.84,54.16 215.24,54.17 215.63,54.17 216.03,54.17 216.42,54.17 216.82,54.18 217.21,54.18 217.61,54.17 218,54.17 218.4,54.16 218.79,54.16 219.19,54.15 219.58,54.15 219.98,54.15 220.37,54.16 220.77,54.16 221.16,54.16 221.56,54.15 221.95,54.14 222.35,54.13 222.74,54.12 223.14,54.13 223.53,54.13 223.93,54.13 224.32,54.14 224.72,54.15 225.11,54.15 225.51,54.14 225.9,54.14 226.3,54.14 226.69,54.14 227.09,54.13 227.48,54.12 227.88,54.12 228.27,54.12 228.67,54.13 229.06,54.13 229.46,54.13 229.85,54.13 230.25,54.13 230.65,54.13 231.04,54.14 231.44,54.15 231.83,54.15 232.23,54.14 232.62,54.12 233.02,54.11 233.41,54.11 233.81,54.11 234.2,54.11 234.6,54.12 234.99,54.12 235.39,54.12 235.78,54.11 236.18,54.12 236.57,54.12 236.97,54.13 237.36,54.13 237.76,54.12 238.15,54.11 238.55,54.1 238.94,54.1 239.34,54.11 239.73,54.11 240.13,54.11 240.52,54.12 240.92,54.12 241.31,54.12 241.71,54.11 242.1,54.11 242.5,54.11 242.89,54.11 243.29,54.11 243.68,54.11 244.08,54.12 244.47,54.12 244.87,54.11 245.26,54.1 245.66,54.09 246.05,54.09 246.45,54.1 246.84,54.1 247.24,54.1 247.63,54.09 248.03,54.1 248.42,54.1 248.82,54.1 249.21,54.1 249.61,54.1 250,54.1 250.4,54.11 250.79,54.11 251.19,54.11 251.58,54.11 251.98,54.1 252.37,54.1 252.77,54.1 253.16,54.1 253.56,54.1 253.95,54.1 254.35,54.1 254.74,54.09 255.14,54.09 255.53,54.09 255.93,54.09 256.32,54.09 256.72,54.09 257.11,54.09 257.51,54.09 257.9,54.09 258.3,54.09 258.69,54.09 259.09,54.08 259.48,54.06 259.88,54.03 260.27,54 260.67,53.98 261.06,53.97 261.46,53.97" stroke-dasharray="none" stroke="rgb(31,120,180)" stroke-width="0.75" opacity="1" stroke-opacity="1" fill="none"/>
          </g>
          <g id="Fig:densplot_01.xyplot.lines.group.6.panel.1.1.1">
            <polyline id="Fig:densplot_01.xyplot.lines.group.6.panel.1.1.1.1" points="59.78,53.97 60.18,54.04 60.57,54.61 60.97,57.54 61.36,67.29 61.76,89.12 62.15,122.43 62.55,156.96 62.94,179.92 63.34,186.39 63.73,180.59 64.12,169.44 64.52,157.6 64.91,146.88 65.31,137.7 65.7,129.96 66.1,123.28 66.49,117.31 66.89,111.84 67.28,106.86 67.68,102.33 68.07,98.19 68.47,94.53 68.86,91.38 69.25,88.59 69.65,86.05 70.04,83.74 70.44,81.71 70.83,79.99 71.23,78.45 71.62,76.99 72.02,75.62 72.41,74.4 72.81,73.27 73.2,72.18 73.59,71.13 73.99,70.18 74.38,69.32 74.78,68.55 75.17,67.88 75.57,67.32 75.96,66.8 76.36,66.28 76.75,65.78 77.15,65.3 77.54,64.85 77.94,64.42 78.33,64.01 78.72,63.61 79.12,63.23 79.51,62.89 79.91,62.61 80.3,62.36 80.7,62.1 81.09,61.81 81.49,61.55 81.88,61.34 82.28,61.16 82.67,60.96 83.07,60.75 83.46,60.54 83.85,60.35 84.25,60.14 84.64,59.92 85.04,59.71 85.43,59.54 85.83,59.38 86.22,59.23 86.62,59.1 87.01,58.97 87.41,58.85 87.8,58.7 88.2,58.55 88.59,58.43 88.98,58.32 89.38,58.24 89.77,58.16 90.17,58.09 90.56,58.01 90.96,57.92 91.35,57.81 91.75,57.68 92.14,57.57 92.54,57.52 92.93,57.49 93.33,57.43 93.72,57.35 94.11,57.27 94.51,57.19 94.9,57.13 95.3,57.08 95.69,57.03 96.09,56.97 96.48,56.91 96.88,56.86 97.27,56.82 97.67,56.77 98.06,56.71 98.46,56.65 98.85,56.61 99.24,56.58 99.64,56.53 100.03,56.47 100.43,56.41 100.82,56.38 101.22,56.35 101.61,56.3 102.01,56.22 102.4,56.17 102.8,56.14 103.19,56.14 103.59,56.12 103.98,56.08 104.37,56.02 104.77,55.97 105.16,55.95 105.56,55.94 105.95,55.91 106.35,55.87 106.74,55.83 107.14,55.77 107.53,55.74 107.93,55.73 108.32,55.71 108.72,55.67 109.11,55.62 109.5,55.59 109.9,55.58 110.29,55.58 110.69,55.58 111.08,55.57 111.48,55.55 111.87,55.53 112.27,55.49 112.66,55.45 113.06,55.42 113.45,55.4 113.85,55.39 114.24,55.38 114.63,55.37 115.03,55.34 115.42,55.31 115.82,55.28 116.21,55.27 116.61,55.26 117,55.24 117.4,55.23 117.79,55.22 118.19,55.25 118.58,55.27 118.98,55.26 119.37,55.22 119.76,55.19 120.16,55.19 120.55,55.18 120.95,55.18 121.34,55.17 121.74,55.14 122.13,55.11 122.53,55.09 122.92,55.06 123.32,55.03 123.71,55.01 124.11,55 124.5,54.99 124.89,54.99 125.29,54.98 125.68,54.97 126.08,54.96 126.47,54.96 126.87,54.95 127.26,54.94 127.66,54.92 128.05,54.89 128.45,54.89 128.84,54.9 129.24,54.91 129.63,54.89 130.02,54.86 130.42,54.84 130.81,54.83 131.21,54.84 131.6,54.83 132,54.82 132.39,54.8 132.79,54.78 133.18,54.77 133.58,54.77 133.97,54.77 134.37,54.76 134.76,54.75 135.15,54.74 135.55,54.75 135.94,54.75 136.34,54.75 136.73,54.73 137.13,54.71 137.52,54.71 137.92,54.7 138.31,54.69 138.71,54.68 139.1,54.67 139.5,54.67 139.89,54.68 140.28,54.68 140.68,54.68 141.07,54.68 141.47,54.67 141.86,54.66 142.26,54.64 142.65,54.62 143.05,54.61 143.44,54.6 143.84,54.6 144.23,54.59 144.63,54.58 145.02,54.58 145.41,54.58 145.81,54.58 146.2,54.58 146.6,54.58 146.99,54.57 147.39,54.57 147.78,54.57 148.18,54.56 148.57,54.55 148.97,54.55 149.36,54.54 149.75,54.54 150.15,54.54 150.54,54.55 150.94,54.55 151.33,54.55 151.73,54.54 152.12,54.52 152.52,54.5 152.91,54.5 153.31,54.5 153.7,54.52 154.1,54.52 154.49,54.51 154.88,54.49 155.28,54.47 155.67,54.46 156.07,54.45 156.46,54.43 156.86,54.43 157.25,54.43 157.65,54.43 158.04,54.45 158.44,54.46 158.83,54.46 159.23,54.45 159.62,54.44 160.01,54.43 160.41,54.44 160.8,54.44 161.2,54.43 161.59,54.39 161.99,54.37 162.38,54.38 162.78,54.39 163.17,54.4 163.57,54.39 163.96,54.38 164.36,54.37 164.75,54.37 165.14,54.38 165.54,54.38 165.93,54.38 166.33,54.38 166.72,54.36 167.12,54.36 167.51,54.36 167.91,54.36 168.3,54.35 168.7,54.34 169.09,54.32 169.49,54.31 169.88,54.31 170.27,54.33 170.67,54.34 171.06,54.34 171.46,54.34 171.85,54.34 172.25,54.34 172.64,54.34 173.04,54.34 173.43,54.32 173.83,54.31 174.22,54.31 174.62,54.31 175.01,54.31 175.4,54.3 175.8,54.29 176.19,54.29 176.59,54.29 176.98,54.29 177.38,54.29 177.77,54.3 178.17,54.3 178.56,54.3 178.96,54.3 179.35,54.3 179.75,54.29 180.14,54.29 180.53,54.29 180.93,54.28 181.32,54.28 181.72,54.28 182.11,54.29 182.51,54.3 182.9,54.3 183.3,54.28 183.69,54.26 184.09,54.26 184.48,54.26 184.88,54.26 185.27,54.27 185.66,54.26 186.06,54.25 186.45,54.25 186.85,54.26 187.24,54.27 187.64,54.28 188.03,54.28 188.43,54.27 188.82,54.26 189.22,54.26 189.61,54.27 190.01,54.26 190.4,54.25 190.79,54.23 191.19,54.22 191.58,54.22 191.98,54.22 192.37,54.22 192.77,54.22 193.16,54.22 193.56,54.22 193.95,54.21 194.35,54.2 194.74,54.2 195.14,54.22 195.53,54.22 195.92,54.23 196.32,54.23 196.71,54.22 197.11,54.22 197.5,54.21 197.9,54.2 198.29,54.21 198.69,54.22 199.08,54.23 199.48,54.23 199.87,54.23 200.27,54.21 200.66,54.2 201.05,54.2 201.45,54.19 201.84,54.2 202.24,54.2 202.63,54.2 203.03,54.2 203.42,54.2 203.82,54.19 204.21,54.19 204.61,54.2 205,54.2 205.4,54.2 205.79,54.19 206.18,54.18 206.58,54.17 206.97,54.16 207.37,54.16 207.76,54.17 208.16,54.18 208.55,54.17 208.95,54.17 209.34,54.18 209.74,54.19 210.13,54.19 210.53,54.2 210.92,54.2 211.31,54.2 211.71,54.2 212.1,54.19 212.5,54.17 212.89,54.16 213.29,54.16 213.68,54.17 214.08,54.17 214.47,54.17 214.87,54.17 215.26,54.16 215.66,54.16 216.05,54.16 216.44,54.17 216.84,54.16 217.23,54.16 217.63,54.15 218.02,54.15 218.42,54.16 218.81,54.16 219.21,54.15 219.6,54.14 220,54.14 220.39,54.14 220.79,54.14 221.18,54.13 221.57,54.12 221.97,54.12 222.36,54.13 222.76,54.14 223.15,54.14 223.55,54.14 223.94,54.14 224.34,54.14 224.73,54.15 225.13,54.16 225.52,54.16 225.91,54.16 226.31,54.15 226.7,54.14 227.1,54.12 227.49,54.12 227.89,54.13 228.28,54.14 228.68,54.14 229.07,54.13 229.47,54.12 229.86,54.11 230.26,54.11 230.65,54.12 231.04,54.12 231.44,54.11 231.83,54.11 232.23,54.11 232.62,54.11 233.02,54.11 233.41,54.11 233.81,54.11 234.2,54.12 234.6,54.12 234.99,54.13 235.39,54.12 235.78,54.11 236.17,54.12 236.57,54.12 236.96,54.12 237.36,54.13 237.75,54.13 238.15,54.13 238.54,54.12 238.94,54.11 239.33,54.11 239.73,54.11 240.12,54.11 240.52,54.12 240.91,54.13 241.3,54.13 241.7,54.12 242.09,54.12 242.49,54.12 242.88,54.11 243.28,54.11 243.67,54.12 244.07,54.12 244.46,54.12 244.86,54.11 245.25,54.11 245.65,54.11 246.04,54.11 246.43,54.1 246.83,54.09 247.22,54.09 247.62,54.09 248.01,54.08 248.41,54.09 248.8,54.1 249.2,54.1 249.59,54.1 249.99,54.1 250.38,54.09 250.78,54.09 251.17,54.09 251.56,54.09 251.96,54.09 252.35,54.08 252.75,54.08 253.14,54.09 253.54,54.09 253.93,54.09 254.33,54.08 254.72,54.08 255.12,54.08 255.51,54.09 255.91,54.09 256.3,54.09 256.69,54.08 257.09,54.08 257.48,54.08 257.88,54.08 258.27,54.09 258.67,54.09 259.06,54.08 259.46,54.07 259.85,54.04 260.25,54.01 260.64,53.98 261.04,53.97 261.43,53.97" stroke-dasharray="none" stroke="rgb(31,120,180)" stroke-width="0.75" opacity="1" stroke-opacity="1" fill="none"/>
          </g>
          <g id="Fig:densplot_01.xyplot.lines.group.7.panel.1.1.1">
            <polyline id="Fig:densplot_01.xyplot.lines.group.7.panel.1.1.1.1" points="59.48,53.97 59.88,54.07 60.27,54.91 60.67,59.23 61.06,73.45 61.46,103.83 61.85,145.97 62.25,182.42 62.64,198.62 63.04,195.61 63.44,182.9 63.83,168.15 64.23,154.85 64.62,143.61 65.02,133.97 65.41,125.6 65.81,118.32 66.2,111.99 66.6,106.5 66.99,101.82 67.39,97.87 67.78,94.51 68.18,91.46 68.57,88.59 68.97,85.99 69.36,83.65 69.76,81.57 70.15,79.76 70.55,78.11 70.94,76.54 71.34,75.1 71.73,73.83 72.13,72.7 72.52,71.68 72.92,70.77 73.31,69.95 73.71,69.18 74.1,68.44 74.5,67.72 74.89,67.07 75.29,66.52 75.68,66.01 76.08,65.49 76.47,64.93 76.87,64.43 77.26,64.03 77.66,63.68 78.05,63.35 78.45,63.01 78.84,62.64 79.24,62.3 79.63,62.02 80.03,61.81 80.42,61.64 80.82,61.45 81.21,61.18 81.61,60.89 82,60.66 82.4,60.45 82.79,60.24 83.19,60.02 83.58,59.83 83.98,59.67 84.37,59.52 84.77,59.4 85.16,59.31 85.56,59.21 85.95,59.09 86.35,58.93 86.74,58.78 87.14,58.62 87.53,58.48 87.93,58.39 88.33,58.31 88.72,58.16 89.12,58.01 89.51,57.88 89.91,57.77 90.3,57.68 90.7,57.63 91.09,57.58 91.49,57.5 91.88,57.44 92.28,57.38 92.67,57.3 93.07,57.23 93.46,57.19 93.86,57.13 94.25,57.05 94.65,56.98 95.04,56.95 95.44,56.93 95.83,56.87 96.23,56.78 96.62,56.7 97.02,56.63 97.41,56.57 97.81,56.53 98.2,56.51 98.6,56.48 98.99,56.44 99.39,56.4 99.78,56.37 100.18,56.32 100.57,56.27 100.97,56.22 101.36,56.17 101.76,56.14 102.15,56.11 102.55,56.08 102.94,56.05 103.34,56.03 103.73,55.99 104.13,55.93 104.52,55.89 104.92,55.87 105.31,55.85 105.71,55.83 106.1,55.8 106.5,55.77 106.89,55.76 107.29,55.75 107.68,55.73 108.08,55.69 108.47,55.64 108.87,55.59 109.26,55.55 109.66,55.51 110.05,55.49 110.45,55.48 110.84,55.48 111.24,55.47 111.63,55.45 112.03,55.43 112.43,55.39 112.82,55.38 113.22,55.39 113.61,55.4 114.01,55.39 114.4,55.36 114.8,55.33 115.19,55.29 115.59,55.26 115.98,55.24 116.38,55.23 116.77,55.22 117.17,55.19 117.56,55.16 117.96,55.15 118.35,55.14 118.75,55.12 119.14,55.1 119.54,55.09 119.93,55.09 120.33,55.1 120.72,55.13 121.12,55.14 121.51,55.12 121.91,55.08 122.3,55.06 122.7,55.04 123.09,54.99 123.49,54.95 123.88,54.94 124.28,54.95 124.67,54.96 125.07,54.95 125.46,54.93 125.86,54.93 126.25,54.93 126.65,54.93 127.04,54.91 127.44,54.9 127.83,54.9 128.23,54.89 128.62,54.88 129.02,54.86 129.41,54.84 129.81,54.83 130.2,54.82 130.6,54.82 130.99,54.83 131.39,54.83 131.78,54.82 132.18,54.8 132.57,54.77 132.97,54.75 133.36,54.74 133.76,54.74 134.15,54.73 134.55,54.71 134.94,54.69 135.34,54.67 135.73,54.65 136.13,54.65 136.53,54.67 136.92,54.69 137.32,54.7 137.71,54.7 138.11,54.69 138.5,54.68 138.9,54.68 139.29,54.68 139.69,54.66 140.08,54.62 140.48,54.6 140.87,54.61 141.27,54.62 141.66,54.62 142.06,54.61 142.45,54.61 142.85,54.61 143.24,54.6 143.64,54.59 144.03,54.6 144.43,54.61 144.82,54.62 145.22,54.61 145.61,54.58 146.01,54.55 146.4,54.54 146.8,54.53 147.19,54.52 147.59,54.52 147.98,54.53 148.38,54.54 148.77,54.54 149.17,54.52 149.56,54.5 149.96,54.48 150.35,54.47 150.75,54.47 151.14,54.47 151.54,54.48 151.93,54.49 152.33,54.5 152.72,54.5 153.12,54.49 153.51,54.48 153.91,54.48 154.3,54.47 154.7,54.45 155.09,54.43 155.49,54.42 155.88,54.42 156.28,54.43 156.67,54.45 157.07,54.45 157.46,54.43 157.86,54.42 158.25,54.42 158.65,54.41 159.04,54.4 159.44,54.4 159.83,54.41 160.23,54.41 160.63,54.4 161.02,54.39 161.42,54.4 161.81,54.4 162.21,54.4 162.6,54.4 163,54.4 163.39,54.4 163.79,54.39 164.18,54.38 164.58,54.37 164.97,54.36 165.37,54.35 165.76,54.35 166.16,54.35 166.55,54.35 166.95,54.36 167.34,54.37 167.74,54.37 168.13,54.36 168.53,54.35 168.92,54.34 169.32,54.34 169.71,54.33 170.11,54.33 170.5,54.33 170.9,54.34 171.29,54.34 171.69,54.34 172.08,54.33 172.48,54.32 172.87,54.31 173.27,54.32 173.66,54.33 174.06,54.34 174.45,54.33 174.85,54.33 175.24,54.32 175.64,54.31 176.03,54.3 176.43,54.29 176.82,54.28 177.22,54.27 177.61,54.27 178.01,54.27 178.4,54.27 178.8,54.28 179.19,54.28 179.59,54.29 179.98,54.28 180.38,54.26 180.77,54.25 181.17,54.25 181.56,54.25 181.96,54.26 182.35,54.26 182.75,54.27 183.14,54.28 183.54,54.29 183.93,54.27 184.33,54.26 184.73,54.24 185.12,54.23 185.52,54.23 185.91,54.24 186.31,54.24 186.7,54.25 187.1,54.26 187.49,54.27 187.89,54.27 188.28,54.27 188.68,54.26 189.07,54.26 189.47,54.25 189.86,54.24 190.26,54.23 190.65,54.24 191.05,54.24 191.44,54.24 191.84,54.24 192.23,54.23 192.63,54.23 193.02,54.22 193.42,54.22 193.81,54.22 194.21,54.22 194.6,54.23 195,54.23 195.39,54.22 195.79,54.21 196.18,54.2 196.58,54.21 196.97,54.22 197.37,54.22 197.76,54.22 198.16,54.21 198.55,54.2 198.95,54.19 199.34,54.19 199.74,54.2 200.13,54.2 200.53,54.2 200.92,54.19 201.32,54.17 201.71,54.16 202.11,54.17 202.5,54.18 202.9,54.18 203.29,54.18 203.69,54.17 204.08,54.17 204.48,54.17 204.87,54.17 205.27,54.17 205.66,54.18 206.06,54.18 206.45,54.18 206.85,54.17 207.24,54.17 207.64,54.17 208.03,54.17 208.43,54.18 208.83,54.18 209.22,54.18 209.62,54.18 210.01,54.18 210.41,54.18 210.8,54.17 211.2,54.16 211.59,54.16 211.99,54.15 212.38,54.15 212.78,54.15 213.17,54.16 213.57,54.16 213.96,54.16 214.36,54.15 214.75,54.16 215.15,54.17 215.54,54.17 215.94,54.16 216.33,54.16 216.73,54.16 217.12,54.15 217.52,54.14 217.91,54.14 218.31,54.15 218.7,54.15 219.1,54.15 219.49,54.15 219.89,54.14 220.28,54.14 220.68,54.15 221.07,54.15 221.47,54.16 221.86,54.15 222.26,54.14 222.65,54.13 223.05,54.13 223.44,54.13 223.84,54.13 224.23,54.14 224.63,54.15 225.02,54.14 225.42,54.14 225.81,54.13 226.21,54.13 226.6,54.12 227,54.12 227.39,54.12 227.79,54.12 228.18,54.12 228.58,54.13 228.97,54.14 229.37,54.13 229.76,54.13 230.16,54.13 230.55,54.12 230.95,54.12 231.34,54.12 231.74,54.12 232.13,54.12 232.53,54.12 232.93,54.11 233.32,54.11 233.72,54.11 234.11,54.11 234.51,54.11 234.9,54.12 235.3,54.12 235.69,54.12 236.09,54.11 236.48,54.1 236.88,54.1 237.27,54.1 237.67,54.12 238.06,54.13 238.46,54.13 238.85,54.12 239.25,54.11 239.64,54.11 240.04,54.11 240.43,54.11 240.83,54.11 241.22,54.11 241.62,54.11 242.01,54.11 242.41,54.11 242.8,54.11 243.2,54.1 243.59,54.1 243.99,54.1 244.38,54.11 244.78,54.11 245.17,54.1 245.57,54.1 245.96,54.1 246.36,54.1 246.75,54.09 247.15,54.09 247.54,54.09 247.94,54.09 248.33,54.09 248.73,54.09 249.12,54.1 249.52,54.1 249.91,54.1 250.31,54.1 250.7,54.1 251.1,54.09 251.49,54.09 251.89,54.09 252.28,54.09 252.68,54.09 253.07,54.09 253.47,54.1 253.86,54.1 254.26,54.1 254.65,54.1 255.05,54.1 255.44,54.09 255.84,54.08 256.23,54.08 256.63,54.08 257.02,54.09 257.42,54.08 257.82,54.08 258.21,54.08 258.61,54.08 259,54.09 259.4,54.08 259.79,54.06 260.19,54.02 260.58,53.99 260.98,53.97 261.37,53.97" stroke-dasharray="none" stroke="rgb(31,120,180)" stroke-width="0.75" opacity="1" stroke-opacity="1" fill="none"/>
          </g>
          <g id="Fig:densplot_01.xyplot.lines.group.8.panel.1.1.1">
            <polyline id="Fig:densplot_01.xyplot.lines.group.8.panel.1.1.1.1" points="59.52,53.98 59.91,54.11 60.31,55.22 60.7,60.91 61.1,79.28 61.49,116.75 61.89,164.06 62.28,198.08 62.68,206.4 63.07,196.69 63.47,180.93 63.86,165.29 64.26,151.68 64.65,140.22 65.05,130.62 65.44,122.59 65.84,115.62 66.23,109.47 66.63,104.16 67.02,99.64 67.42,95.78 67.81,92.39 68.21,89.4 68.6,86.77 69,84.45 69.39,82.36 69.79,80.48 70.18,78.78 70.58,77.19 70.97,75.65 71.37,74.26 71.76,73.1 72.16,72.1 72.55,71.15 72.95,70.25 73.34,69.45 73.74,68.73 74.13,68.01 74.53,67.29 74.92,66.65 75.32,66.12 75.71,65.63 76.11,65.16 76.5,64.66 76.89,64.14 77.29,63.67 77.68,63.29 78.08,62.98 78.47,62.71 78.87,62.42 79.26,62.13 79.66,61.87 80.05,61.66 80.45,61.43 80.84,61.18 81.24,60.93 81.63,60.73 82.03,60.54 82.42,60.32 82.82,60.1 83.21,59.92 83.61,59.79 84,59.63 84.4,59.45 84.79,59.29 85.19,59.15 85.58,58.99 85.98,58.84 86.37,58.69 86.77,58.57 87.16,58.49 87.56,58.4 87.95,58.25 88.35,58.1 88.74,58.01 89.14,57.94 89.53,57.9 89.93,57.84 90.32,57.72 90.72,57.58 91.11,57.48 91.51,57.39 91.9,57.31 92.3,57.26 92.69,57.23 93.09,57.18 93.48,57.11 93.88,57.04 94.27,56.97 94.67,56.89 95.06,56.81 95.46,56.76 95.85,56.72 96.25,56.68 96.64,56.66 97.04,56.63 97.43,56.6 97.83,56.56 98.22,56.54 98.62,56.51 99.01,56.47 99.41,56.4 99.8,56.31 100.2,56.23 100.59,56.19 100.99,56.17 101.38,56.15 101.78,56.12 102.17,56.05 102.57,55.98 102.96,55.95 103.36,55.94 103.75,55.94 104.15,55.92 104.54,55.89 104.94,55.88 105.33,55.88 105.73,55.85 106.12,55.79 106.52,55.72 106.91,55.68 107.31,55.64 107.7,55.6 108.1,55.56 108.49,55.54 108.89,55.54 109.28,55.55 109.68,55.53 110.07,55.51 110.47,55.48 110.86,55.44 111.26,55.42 111.65,55.41 112.05,55.38 112.44,55.37 112.84,55.38 113.23,55.37 113.63,55.34 114.02,55.29 114.42,55.26 114.81,55.25 115.21,55.25 115.6,55.26 116,55.24 116.39,55.2 116.79,55.18 117.18,55.18 117.58,55.19 117.97,55.19 118.37,55.18 118.76,55.17 119.15,55.15 119.55,55.12 119.94,55.1 120.34,55.1 120.73,55.1 121.13,55.09 121.52,55.06 121.92,55.03 122.31,55.01 122.71,54.99 123.1,54.99 123.5,54.97 123.89,54.96 124.29,54.96 124.68,54.94 125.08,54.92 125.47,54.89 125.87,54.88 126.26,54.89 126.66,54.9 127.05,54.89 127.45,54.88 127.84,54.86 128.24,54.84 128.63,54.83 129.03,54.81 129.42,54.79 129.82,54.77 130.21,54.77 130.61,54.77 131,54.79 131.4,54.8 131.79,54.79 132.19,54.76 132.58,54.74 132.98,54.73 133.37,54.72 133.77,54.7 134.16,54.69 134.56,54.68 134.95,54.68 135.35,54.68 135.74,54.68 136.14,54.66 136.53,54.66 136.93,54.68 137.32,54.67 137.72,54.66 138.11,54.66 138.51,54.67 138.9,54.67 139.3,54.66 139.69,54.64 140.09,54.62 140.48,54.59 140.88,54.59 141.27,54.59 141.67,54.59 142.06,54.59 142.46,54.58 142.85,54.57 143.25,54.57 143.64,54.55 144.04,54.55 144.43,54.55 144.83,54.56 145.22,54.56 145.62,54.55 146.01,54.54 146.41,54.55 146.8,54.56 147.2,54.55 147.59,54.53 147.99,54.51 148.38,54.5 148.78,54.5 149.17,54.49 149.57,54.49 149.96,54.48 150.36,54.48 150.75,54.48 151.15,54.49 151.54,54.49 151.94,54.5 152.33,54.49 152.73,54.47 153.12,54.46 153.52,54.46 153.91,54.46 154.31,54.45 154.7,54.42 155.1,54.41 155.49,54.41 155.89,54.43 156.28,54.44 156.68,54.45 157.07,54.44 157.47,54.43 157.86,54.41 158.26,54.41 158.65,54.42 159.05,54.43 159.44,54.41 159.84,54.38 160.23,54.38 160.63,54.4 161.02,54.4 161.41,54.4 161.81,54.4 162.2,54.4 162.6,54.39 162.99,54.39 163.39,54.39 163.78,54.38 164.18,54.37 164.57,54.36 164.97,54.36 165.36,54.36 165.76,54.35 166.15,54.33 166.55,54.32 166.94,54.32 167.34,54.33 167.73,54.33 168.13,54.35 168.52,54.35 168.92,54.35 169.31,54.33 169.71,54.31 170.1,54.3 170.5,54.31 170.89,54.31 171.29,54.31 171.68,54.3 172.08,54.3 172.47,54.29 172.87,54.29 173.26,54.3 173.66,54.31 174.05,54.31 174.45,54.3 174.84,54.3 175.24,54.29 175.63,54.29 176.03,54.28 176.42,54.26 176.82,54.25 177.21,54.26 177.61,54.27 178,54.28 178.4,54.27 178.79,54.27 179.19,54.26 179.58,54.26 179.98,54.26 180.37,54.27 180.77,54.27 181.16,54.26 181.56,54.25 181.95,54.26 182.35,54.27 182.74,54.26 183.14,54.25 183.53,54.24 183.93,54.24 184.32,54.24 184.72,54.25 185.11,54.26 185.51,54.26 185.9,54.26 186.3,54.25 186.69,54.23 187.09,54.24 187.48,54.24 187.88,54.24 188.27,54.25 188.67,54.25 189.06,54.24 189.46,54.23 189.85,54.22 190.25,54.21 190.64,54.21 191.04,54.21 191.43,54.21 191.83,54.22 192.22,54.23 192.62,54.23 193.01,54.23 193.41,54.22 193.8,54.22 194.2,54.22 194.59,54.22 194.99,54.21 195.38,54.22 195.78,54.22 196.17,54.22 196.57,54.21 196.96,54.2 197.36,54.2 197.75,54.2 198.15,54.19 198.54,54.2 198.94,54.2 199.33,54.2 199.73,54.19 200.12,54.19 200.52,54.18 200.91,54.17 201.31,54.17 201.7,54.17 202.1,54.17 202.49,54.18 202.89,54.18 203.28,54.18 203.67,54.18 204.07,54.17 204.46,54.16 204.86,54.16 205.25,54.17 205.65,54.18 206.04,54.17 206.44,54.16 206.83,54.16 207.23,54.17 207.62,54.18 208.02,54.17 208.41,54.17 208.81,54.16 209.2,54.16 209.6,54.16 209.99,54.17 210.39,54.17 210.78,54.17 211.18,54.16 211.57,54.16 211.97,54.16 212.36,54.17 212.76,54.17 213.15,54.16 213.55,54.15 213.94,54.14 214.34,54.15 214.73,54.15 215.13,54.15 215.52,54.14 215.92,54.13 216.31,54.13 216.71,54.13 217.1,54.13 217.5,54.13 217.89,54.14 218.29,54.14 218.68,54.14 219.08,54.14 219.47,54.13 219.87,54.13 220.26,54.12 220.66,54.12 221.05,54.12 221.45,54.13 221.84,54.14 222.24,54.14 222.63,54.13 223.03,54.12 223.42,54.13 223.82,54.14 224.21,54.14 224.61,54.13 225,54.13 225.4,54.12 225.79,54.13 226.19,54.14 226.58,54.14 226.98,54.13 227.37,54.13 227.77,54.13 228.16,54.12 228.56,54.12 228.95,54.13 229.35,54.13 229.74,54.14 230.14,54.14 230.53,54.13 230.93,54.13 231.32,54.12 231.72,54.12 232.11,54.11 232.51,54.11 232.9,54.1 233.3,54.1 233.69,54.11 234.09,54.12 234.48,54.12 234.88,54.12 235.27,54.12 235.67,54.12 236.06,54.12 236.46,54.11 236.85,54.11 237.25,54.12 237.64,54.12 238.04,54.11 238.43,54.11 238.83,54.1 239.22,54.09 239.62,54.09 240.01,54.09 240.41,54.1 240.8,54.11 241.2,54.12 241.59,54.12 241.99,54.11 242.38,54.1 242.78,54.1 243.17,54.09 243.57,54.09 243.96,54.1 244.36,54.09 244.75,54.09 245.14,54.09 245.54,54.08 245.93,54.08 246.33,54.09 246.72,54.09 247.12,54.09 247.51,54.09 247.91,54.1 248.3,54.1 248.7,54.1 249.09,54.09 249.49,54.09 249.88,54.09 250.28,54.09 250.67,54.1 251.07,54.1 251.46,54.09 251.86,54.08 252.25,54.08 252.65,54.08 253.04,54.09 253.44,54.1 253.83,54.1 254.23,54.1 254.62,54.09 255.02,54.08 255.41,54.09 255.81,54.09 256.2,54.09 256.6,54.09 256.99,54.08 257.39,54.07 257.78,54.07 258.18,54.07 258.57,54.07 258.97,54.06 259.36,54.06 259.76,54.04 260.15,54.01 260.55,53.98 260.94,53.97 261.34,53.97" stroke-dasharray="none" stroke="rgb(31,120,180)" stroke-width="0.75" opacity="1" stroke-opacity="1" fill="none"/>
          </g>
          <g id="Fig:densplot_01.xyplot.lines.group.9.panel.1.1.1">
            <polyline id="Fig:densplot_01.xyplot.lines.group.9.panel.1.1.1.1" points="59.83,53.97 60.23,54.02 60.62,54.67 61.02,59.22 61.41,76.57 61.8,114.25 62.2,161.99 62.59,196.66 62.99,207.17 63.38,199.94 63.77,185.7 64.17,170.75 64.56,157.08 64.96,145.14 65.35,134.93 65.75,126.16 66.14,118.66 66.53,112.16 66.93,106.39 67.32,101.42 67.72,97.31 68.11,93.71 68.5,90.4 68.9,87.45 69.29,84.91 69.69,82.63 70.08,80.52 70.47,78.64 70.87,77.09 71.26,75.81 71.66,74.64 72.05,73.48 72.45,72.35 72.84,71.29 73.23,70.29 73.63,69.35 74.02,68.52 74.42,67.78 74.81,67.03 75.2,66.31 75.6,65.75 75.99,65.31 76.39,64.86 76.78,64.41 77.17,63.98 77.57,63.55 77.96,63.12 78.36,62.74 78.75,62.44 79.15,62.17 79.54,61.9 79.93,61.65 80.33,61.36 80.72,61.04 81.12,60.78 81.51,60.58 81.9,60.39 82.3,60.22 82.69,60.06 83.09,59.87 83.48,59.67 83.87,59.49 84.27,59.31 84.66,59.13 85.06,58.98 85.45,58.85 85.84,58.71 86.24,58.57 86.63,58.45 87.03,58.34 87.42,58.2 87.82,58.07 88.21,58 88.6,57.93 89,57.86 89.39,57.78 89.79,57.67 90.18,57.55 90.57,57.45 90.97,57.37 91.36,57.33 91.76,57.28 92.15,57.23 92.54,57.14 92.94,57.04 93.33,56.94 93.73,56.88 94.12,56.86 94.52,56.85 94.91,56.81 95.3,56.77 95.7,56.72 96.09,56.67 96.49,56.6 96.88,56.53 97.27,56.46 97.67,56.4 98.06,56.34 98.46,56.28 98.85,56.22 99.24,56.18 99.64,56.14 100.03,56.09 100.43,56.05 100.82,56 101.22,55.95 101.61,55.91 102,55.89 102.4,55.89 102.79,55.86 103.19,55.84 103.58,55.83 103.97,55.8 104.37,55.74 104.76,55.71 105.16,55.68 105.55,55.66 105.94,55.64 106.34,55.64 106.73,55.63 107.13,55.61 107.52,55.57 107.92,55.53 108.31,55.48 108.7,55.45 109.1,55.45 109.49,55.45 109.89,55.43 110.28,55.42 110.67,55.42 111.07,55.4 111.46,55.36 111.86,55.34 112.25,55.32 112.64,55.27 113.04,55.22 113.43,55.22 113.83,55.23 114.22,55.22 114.62,55.21 115.01,55.18 115.4,55.14 115.8,55.1 116.19,55.07 116.59,55.06 116.98,55.05 117.37,55.03 117.77,55.02 118.16,55 118.56,55 118.95,55.02 119.34,55.04 119.74,55.03 120.13,55.01 120.53,55 120.92,55 121.32,54.99 121.71,54.99 122.1,54.99 122.5,54.96 122.89,54.91 123.29,54.87 123.68,54.85 124.07,54.84 124.47,54.84 124.86,54.84 125.26,54.86 125.65,54.86 126.04,54.85 126.44,54.82 126.83,54.8 127.23,54.79 127.62,54.8 128.02,54.79 128.41,54.76 128.8,54.74 129.2,54.75 129.59,54.76 129.99,54.75 130.38,54.72 130.77,54.71 131.17,54.7 131.56,54.69 131.96,54.68 132.35,54.68 132.74,54.68 133.14,54.69 133.53,54.7 133.93,54.7 134.32,54.71 134.72,54.69 135.11,54.67 135.5,54.65 135.9,54.65 136.29,54.64 136.69,54.63 137.08,54.62 137.47,54.61 137.87,54.6 138.26,54.6 138.66,54.57 139.05,54.56 139.44,54.55 139.84,54.55 140.23,54.54 140.63,54.53 141.02,54.53 141.42,54.52 141.81,54.51 142.2,54.5 142.6,54.5 142.99,54.5 143.39,54.5 143.78,54.5 144.17,54.49 144.57,54.49 144.96,54.49 145.36,54.49 145.75,54.48 146.14,54.47 146.54,54.47 146.93,54.47 147.33,54.48 147.72,54.49 148.12,54.49 148.51,54.49 148.9,54.48 149.3,54.48 149.69,54.49 150.09,54.48 150.48,54.47 150.87,54.46 151.27,54.45 151.66,54.45 152.06,54.45 152.45,54.44 152.84,54.44 153.24,54.44 153.63,54.42 154.03,54.39 154.42,54.36 154.82,54.35 155.21,54.35 155.6,54.36 156,54.35 156.39,54.37 156.79,54.39 157.18,54.39 157.57,54.38 157.97,54.37 158.36,54.36 158.76,54.35 159.15,54.36 159.54,54.36 159.94,54.36 160.33,54.36 160.73,54.35 161.12,54.34 161.52,54.33 161.91,54.33 162.3,54.33 162.7,54.33 163.09,54.34 163.49,54.34 163.88,54.33 164.27,54.33 164.67,54.32 165.06,54.32 165.46,54.32 165.85,54.33 166.24,54.32 166.64,54.32 167.03,54.3 167.43,54.28 167.82,54.28 168.22,54.29 168.61,54.3 169,54.29 169.4,54.28 169.79,54.28 170.19,54.29 170.58,54.28 170.97,54.27 171.37,54.27 171.76,54.29 172.16,54.29 172.55,54.29 172.94,54.28 173.34,54.27 173.73,54.27 174.13,54.27 174.52,54.27 174.92,54.27 175.31,54.27 175.7,54.26 176.1,54.25 176.49,54.25 176.89,54.24 177.28,54.24 177.67,54.24 178.07,54.24 178.46,54.25 178.86,54.26 179.25,54.26 179.64,54.26 180.04,54.25 180.43,54.24 180.83,54.24 181.22,54.24 181.62,54.25 182.01,54.25 182.4,54.25 182.8,54.25 183.19,54.25 183.59,54.23 183.98,54.21 184.37,54.21 184.77,54.2 185.16,54.2 185.56,54.19 185.95,54.2 186.34,54.2 186.74,54.2 187.13,54.2 187.53,54.2 187.92,54.2 188.32,54.2 188.71,54.2 189.1,54.2 189.5,54.22 189.89,54.22 190.29,54.21 190.68,54.21 191.07,54.2 191.47,54.19 191.86,54.18 192.26,54.17 192.65,54.17 193.04,54.17 193.44,54.18 193.83,54.18 194.23,54.18 194.62,54.18 195.02,54.18 195.41,54.17 195.8,54.18 196.2,54.19 196.59,54.18 196.99,54.17 197.38,54.17 197.77,54.17 198.17,54.18 198.56,54.19 198.96,54.18 199.35,54.16 199.74,54.16 200.14,54.16 200.53,54.16 200.93,54.17 201.32,54.17 201.72,54.17 202.11,54.17 202.5,54.17 202.9,54.17 203.29,54.17 203.69,54.17 204.08,54.17 204.47,54.17 204.87,54.17 205.26,54.16 205.66,54.15 206.05,54.15 206.44,54.15 206.84,54.16 207.23,54.15 207.63,54.15 208.02,54.14 208.42,54.15 208.81,54.16 209.2,54.16 209.6,54.16 209.99,54.16 210.39,54.17 210.78,54.16 211.17,54.15 211.57,54.14 211.96,54.14 212.36,54.14 212.75,54.13 213.14,54.13 213.54,54.12 213.93,54.13 214.33,54.15 214.72,54.16 215.12,54.15 215.51,54.14 215.9,54.12 216.3,54.11 216.69,54.12 217.09,54.13 217.48,54.13 217.87,54.12 218.27,54.11 218.66,54.12 219.06,54.13 219.45,54.14 219.84,54.14 220.24,54.13 220.63,54.12 221.03,54.12 221.42,54.11 221.82,54.11 222.21,54.11 222.6,54.11 223,54.11 223.39,54.11 223.79,54.12 224.18,54.12 224.57,54.12 224.97,54.12 225.36,54.11 225.76,54.11 226.15,54.1 226.54,54.1 226.94,54.09 227.33,54.09 227.73,54.1 228.12,54.11 228.51,54.11 228.91,54.1 229.3,54.1 229.7,54.09 230.09,54.09 230.49,54.08 230.88,54.09 231.27,54.09 231.67,54.1 232.06,54.1 232.46,54.11 232.85,54.1 233.24,54.1 233.64,54.1 234.03,54.1 234.43,54.09 234.82,54.08 235.21,54.09 235.61,54.1 236,54.11 236.4,54.11 236.79,54.1 237.19,54.1 237.58,54.1 237.97,54.09 238.37,54.09 238.76,54.1 239.16,54.1 239.55,54.09 239.94,54.1 240.34,54.1 240.73,54.1 241.13,54.09 241.52,54.08 241.91,54.08 242.31,54.08 242.7,54.08 243.1,54.08 243.49,54.09 243.89,54.09 244.28,54.09 244.67,54.08 245.07,54.08 245.46,54.07 245.86,54.07 246.25,54.07 246.64,54.07 247.04,54.08 247.43,54.09 247.83,54.09 248.22,54.08 248.61,54.07 249.01,54.07 249.4,54.07 249.8,54.07 250.19,54.08 250.59,54.08 250.98,54.08 251.37,54.08 251.77,54.08 252.16,54.07 252.56,54.08 252.95,54.08 253.34,54.07 253.74,54.07 254.13,54.07 254.53,54.07 254.92,54.06 255.31,54.07 255.71,54.07 256.1,54.07 256.5,54.07 256.89,54.07 257.29,54.07 257.68,54.08 258.07,54.08 258.47,54.08 258.86,54.08 259.26,54.08 259.65,54.06 260.04,54.02 260.44,53.99 260.83,53.97 261.23,53.97" stroke-dasharray="none" stroke="rgb(31,120,180)" stroke-width="0.75" opacity="1" stroke-opacity="1" fill="none"/>
          </g>
          <g id="Fig:densplot_01.xyplot.lines.group.10.panel.1.1.1">
            <polyline id="Fig:densplot_01.xyplot.lines.group.10.panel.1.1.1.1" points="59.38,53.97 59.78,53.99 60.17,54.27 60.57,56.19 60.96,64.46 61.36,86.99 61.75,125.41 62.15,165.25 62.54,188.24 62.94,191.29 63.34,182.77 63.73,170.59 64.13,158.67 64.52,148.37 64.92,139.63 65.31,131.96 65.71,124.93 66.1,118.3 66.5,112.12 66.89,106.71 67.29,102.15 67.68,98.18 68.08,94.66 68.47,91.57 68.87,88.86 69.26,86.48 69.66,84.34 70.05,82.33 70.45,80.46 70.84,78.76 71.24,77.27 71.63,75.93 72.03,74.64 72.42,73.37 72.82,72.19 73.21,71.16 73.61,70.21 74,69.34 74.4,68.55 74.8,67.88 75.19,67.28 75.59,66.69 75.98,66.09 76.38,65.51 76.77,65.02 77.17,64.6 77.56,64.19 77.96,63.77 78.35,63.35 78.75,62.99 79.14,62.71 79.54,62.47 79.93,62.21 80.33,61.89 80.72,61.55 81.12,61.29 81.51,61.09 81.91,60.89 82.3,60.65 82.7,60.44 83.09,60.27 83.49,60.13 83.88,59.97 84.28,59.79 84.67,59.6 85.07,59.38 85.47,59.16 85.86,59 86.26,58.85 86.65,58.66 87.05,58.51 87.44,58.41 87.84,58.34 88.23,58.27 88.63,58.19 89.02,58.09 89.42,57.96 89.81,57.83 90.21,57.72 90.6,57.64 91,57.58 91.39,57.5 91.79,57.41 92.18,57.36 92.58,57.32 92.97,57.26 93.37,57.18 93.76,57.11 94.16,57.04 94.55,56.97 94.95,56.91 95.34,56.86 95.74,56.79 96.13,56.72 96.53,56.66 96.93,56.6 97.32,56.55 97.72,56.5 98.11,56.46 98.51,56.41 98.9,56.37 99.3,56.34 99.69,56.31 100.09,56.26 100.48,56.21 100.88,56.18 101.27,56.15 101.67,56.11 102.06,56.07 102.46,56.01 102.85,55.98 103.25,55.95 103.64,55.92 104.04,55.88 104.43,55.83 104.83,55.79 105.22,55.77 105.62,55.76 106.01,55.73 106.41,55.72 106.8,55.72 107.2,55.72 107.59,55.67 107.99,55.59 108.39,55.54 108.78,55.53 109.18,55.51 109.57,55.47 109.97,55.45 110.36,55.43 110.76,55.41 111.15,55.39 111.55,55.38 111.94,55.39 112.34,55.36 112.73,55.31 113.13,55.28 113.52,55.25 113.92,55.21 114.31,55.2 114.71,55.2 115.1,55.2 115.5,55.18 115.89,55.17 116.29,55.17 116.68,55.16 117.08,55.14 117.47,55.12 117.87,55.1 118.26,55.09 118.66,55.07 119.05,55.06 119.45,55.07 119.85,55.08 120.24,55.07 120.64,55.05 121.03,55.01 121.43,54.98 121.82,54.96 122.22,54.95 122.61,54.94 123.01,54.95 123.4,54.96 123.8,54.94 124.19,54.91 124.59,54.88 124.98,54.86 125.38,54.85 125.77,54.85 126.17,54.85 126.56,54.84 126.96,54.83 127.35,54.82 127.75,54.81 128.14,54.79 128.54,54.78 128.93,54.78 129.33,54.79 129.72,54.79 130.12,54.79 130.52,54.79 130.91,54.78 131.31,54.77 131.7,54.76 132.1,54.74 132.49,54.72 132.89,54.71 133.28,54.71 133.68,54.72 134.07,54.71 134.47,54.69 134.86,54.67 135.26,54.66 135.65,54.65 136.05,54.65 136.44,54.64 136.84,54.62 137.23,54.62 137.63,54.64 138.02,54.65 138.42,54.64 138.81,54.6 139.21,54.57 139.6,54.56 140,54.56 140.39,54.55 140.79,54.55 141.18,54.55 141.58,54.55 141.98,54.56 142.37,54.56 142.77,54.55 143.16,54.53 143.56,54.53 143.95,54.52 144.35,54.52 144.74,54.52 145.14,54.52 145.53,54.51 145.93,54.5 146.32,54.48 146.72,54.46 147.11,54.45 147.51,54.45 147.9,54.45 148.3,54.46 148.69,54.48 149.09,54.49 149.48,54.49 149.88,54.48 150.27,54.47 150.67,54.46 151.06,54.44 151.46,54.43 151.85,54.42 152.25,54.42 152.64,54.41 153.04,54.39 153.44,54.39 153.83,54.39 154.23,54.39 154.62,54.4 155.02,54.41 155.41,54.41 155.81,54.42 156.2,54.42 156.6,54.41 156.99,54.39 157.39,54.38 157.78,54.37 158.18,54.36 158.57,54.36 158.97,54.37 159.36,54.37 159.76,54.37 160.15,54.37 160.55,54.37 160.94,54.37 161.34,54.37 161.73,54.38 162.13,54.38 162.52,54.37 162.92,54.36 163.31,54.35 163.71,54.35 164.1,54.34 164.5,54.32 164.9,54.3 165.29,54.3 165.69,54.29 166.08,54.29 166.48,54.28 166.87,54.27 167.27,54.27 167.66,54.28 168.06,54.28 168.45,54.28 168.85,54.3 169.24,54.32 169.64,54.33 170.03,54.33 170.43,54.33 170.82,54.32 171.22,54.31 171.61,54.31 172.01,54.31 172.4,54.31 172.8,54.3 173.19,54.29 173.59,54.28 173.98,54.28 174.38,54.27 174.77,54.27 175.17,54.27 175.56,54.26 175.96,54.25 176.36,54.25 176.75,54.26 177.15,54.26 177.54,54.25 177.94,54.24 178.33,54.24 178.73,54.24 179.12,54.25 179.52,54.25 179.91,54.25 180.31,54.24 180.7,54.24 181.1,54.24 181.49,54.26 181.89,54.27 182.28,54.28 182.68,54.27 183.07,54.26 183.47,54.24 183.86,54.23 184.26,54.23 184.65,54.23 185.05,54.23 185.44,54.22 185.84,54.21 186.23,54.21 186.63,54.2 187.03,54.2 187.42,54.2 187.82,54.2 188.21,54.21 188.61,54.21 189,54.21 189.4,54.2 189.79,54.19 190.19,54.17 190.58,54.16 190.98,54.15 191.37,54.15 191.77,54.16 192.16,54.17 192.56,54.17 192.95,54.18 193.35,54.18 193.74,54.17 194.14,54.17 194.53,54.17 194.93,54.18 195.32,54.18 195.72,54.18 196.11,54.18 196.51,54.19 196.9,54.2 197.3,54.19 197.69,54.17 198.09,54.16 198.49,54.15 198.88,54.16 199.28,54.17 199.67,54.17 200.07,54.17 200.46,54.17 200.86,54.17 201.25,54.17 201.65,54.17 202.04,54.18 202.44,54.18 202.83,54.18 203.23,54.17 203.62,54.17 204.02,54.17 204.41,54.16 204.81,54.16 205.2,54.16 205.6,54.15 205.99,54.15 206.39,54.15 206.78,54.15 207.18,54.16 207.57,54.17 207.97,54.17 208.36,54.16 208.76,54.16 209.15,54.15 209.55,54.15 209.95,54.15 210.34,54.15 210.74,54.15 211.13,54.13 211.53,54.13 211.92,54.13 212.32,54.13 212.71,54.12 213.11,54.12 213.5,54.13 213.9,54.13 214.29,54.13 214.69,54.13 215.08,54.14 215.48,54.14 215.87,54.15 216.27,54.15 216.66,54.15 217.06,54.14 217.45,54.14 217.85,54.13 218.24,54.13 218.64,54.13 219.03,54.13 219.43,54.13 219.82,54.13 220.22,54.13 220.61,54.14 221.01,54.14 221.41,54.14 221.8,54.13 222.2,54.12 222.59,54.11 222.99,54.11 223.38,54.11 223.78,54.11 224.17,54.11 224.57,54.11 224.96,54.11 225.36,54.11 225.75,54.11 226.15,54.12 226.54,54.12 226.94,54.11 227.33,54.1 227.73,54.11 228.12,54.11 228.52,54.1 228.91,54.1 229.31,54.1 229.7,54.1 230.1,54.1 230.49,54.1 230.89,54.11 231.28,54.11 231.68,54.11 232.08,54.11 232.47,54.1 232.87,54.11 233.26,54.11 233.66,54.1 234.05,54.09 234.45,54.09 234.84,54.1 235.24,54.1 235.63,54.1 236.03,54.1 236.42,54.1 236.82,54.09 237.21,54.09 237.61,54.1 238,54.1 238.4,54.09 238.79,54.08 239.19,54.07 239.58,54.07 239.98,54.08 240.37,54.08 240.77,54.09 241.16,54.08 241.56,54.08 241.95,54.08 242.35,54.09 242.74,54.09 243.14,54.08 243.54,54.08 243.93,54.08 244.33,54.09 244.72,54.08 245.12,54.08 245.51,54.09 245.91,54.09 246.3,54.09 246.7,54.09 247.09,54.09 247.49,54.08 247.88,54.09 248.28,54.09 248.67,54.1 249.07,54.1 249.46,54.1 249.86,54.1 250.25,54.09 250.65,54.09 251.04,54.08 251.44,54.08 251.83,54.07 252.23,54.08 252.62,54.08 253.02,54.08 253.41,54.08 253.81,54.07 254.2,54.07 254.6,54.06 255,54.05 255.39,54.05 255.79,54.06 256.18,54.06 256.58,54.06 256.97,54.07 257.37,54.08 257.76,54.07 258.16,54.07 258.55,54.07 258.95,54.06 259.34,54.05 259.74,54.03 260.13,54.01 260.53,53.98 260.92,53.97 261.32,53.97" stroke-dasharray="none" stroke="rgb(31,120,180)" stroke-width="0.75" opacity="1" stroke-opacity="1" fill="none"/>
          </g>
          <g id="Fig:densplot_01.xyplot.lines.group.11.panel.1.1.1">
            <polyline id="Fig:densplot_01.xyplot.lines.group.11.panel.1.1.1.1" points="59.52,53.97 59.92,54.02 60.31,54.85 60.71,60.9 61.1,83.46 61.49,129.98 61.89,184.61 62.28,218.5 62.68,222.22 63.07,207.99 63.47,188.72 63.86,170.27 64.26,154.57 64.65,141.77 65.05,131.18 65.44,122.3 65.83,114.74 66.23,108.41 66.62,103.11 67.02,98.5 67.41,94.47 67.81,91.01 68.2,88.07 68.6,85.48 68.99,83 69.39,80.69 69.78,78.7 70.17,77.04 70.57,75.56 70.96,74.22 71.36,72.96 71.75,71.87 72.15,70.95 72.54,70.08 72.94,69.13 73.33,68.25 73.73,67.51 74.12,66.87 74.51,66.31 74.91,65.79 75.3,65.24 75.7,64.63 76.09,64.13 76.49,63.77 76.88,63.44 77.28,63.09 77.67,62.73 78.07,62.36 78.46,62.01 78.85,61.7 79.25,61.43 79.64,61.17 80.04,60.89 80.43,60.61 80.83,60.36 81.22,60.17 81.62,60 82.01,59.81 82.4,59.62 82.8,59.44 83.19,59.24 83.59,59.01 83.98,58.84 84.38,58.74 84.77,58.64 85.17,58.55 85.56,58.44 85.96,58.29 86.35,58.11 86.74,57.97 87.14,57.91 87.53,57.85 87.93,57.75 88.32,57.65 88.72,57.57 89.11,57.51 89.51,57.43 89.9,57.34 90.3,57.24 90.69,57.16 91.08,57.1 91.48,57.05 91.87,57 92.27,56.94 92.66,56.88 93.06,56.81 93.45,56.69 93.85,56.59 94.24,56.54 94.64,56.5 95.03,56.47 95.42,56.43 95.82,56.4 96.21,56.37 96.61,56.35 97,56.32 97.4,56.25 97.79,56.17 98.19,56.12 98.58,56.1 98.98,56.05 99.37,55.99 99.76,55.95 100.16,55.91 100.55,55.87 100.95,55.83 101.34,55.77 101.74,55.73 102.13,55.72 102.53,55.71 102.92,55.68 103.32,55.65 103.71,55.64 104.1,55.62 104.5,55.59 104.89,55.58 105.29,55.54 105.68,55.48 106.08,55.44 106.47,55.43 106.87,55.44 107.26,55.44 107.66,55.42 108.05,55.38 108.44,55.34 108.84,55.31 109.23,55.29 109.63,55.3 110.02,55.3 110.42,55.28 110.81,55.24 111.21,55.21 111.6,55.18 111.99,55.15 112.39,55.12 112.78,55.11 113.18,55.13 113.57,55.13 113.97,55.12 114.36,55.09 114.76,55.07 115.15,55.07 115.55,55.05 115.94,55.03 116.33,55.01 116.73,55.01 117.12,55.01 117.52,54.99 117.91,54.95 118.31,54.93 118.7,54.94 119.1,54.93 119.49,54.92 119.89,54.9 120.28,54.88 120.67,54.87 121.07,54.87 121.46,54.87 121.86,54.86 122.25,54.84 122.65,54.85 123.04,54.84 123.44,54.82 123.83,54.81 124.23,54.8 124.62,54.79 125.01,54.78 125.41,54.76 125.8,54.75 126.2,54.76 126.59,54.75 126.99,54.73 127.38,54.72 127.78,54.72 128.17,54.72 128.57,54.69 128.96,54.67 129.35,54.67 129.75,54.68 130.14,54.68 130.54,54.65 130.93,54.63 131.33,54.62 131.72,54.61 132.12,54.63 132.51,54.64 132.91,54.65 133.3,54.63 133.69,54.59 134.09,54.56 134.48,54.57 134.88,54.59 135.27,54.59 135.67,54.59 136.06,54.57 136.46,54.55 136.85,54.55 137.24,54.57 137.64,54.56 138.03,54.56 138.43,54.56 138.82,54.54 139.22,54.52 139.61,54.51 140.01,54.49 140.4,54.47 140.8,54.46 141.19,54.46 141.58,54.46 141.98,54.47 142.37,54.47 142.77,54.47 143.16,54.46 143.56,54.45 143.95,54.45 144.35,54.43 144.74,54.42 145.14,54.42 145.53,54.41 145.92,54.43 146.32,54.44 146.71,54.43 147.11,54.41 147.5,54.4 147.9,54.39 148.29,54.39 148.69,54.39 149.08,54.38 149.48,54.38 149.87,54.39 150.26,54.39 150.66,54.37 151.05,54.37 151.45,54.38 151.84,54.37 152.24,54.36 152.63,54.36 153.03,54.38 153.42,54.38 153.82,54.39 154.21,54.39 154.6,54.37 155,54.35 155.39,54.36 155.79,54.36 156.18,54.36 156.58,54.36 156.97,54.35 157.37,54.33 157.76,54.33 158.16,54.32 158.55,54.31 158.94,54.3 159.34,54.31 159.73,54.32 160.13,54.33 160.52,54.34 160.92,54.32 161.31,54.31 161.71,54.31 162.1,54.32 162.5,54.33 162.89,54.32 163.28,54.3 163.68,54.28 164.07,54.29 164.47,54.3 164.86,54.29 165.26,54.28 165.65,54.27 166.05,54.26 166.44,54.27 166.83,54.27 167.23,54.27 167.62,54.27 168.02,54.27 168.41,54.25 168.81,54.26 169.2,54.27 169.6,54.27 169.99,54.26 170.39,54.25 170.78,54.24 171.17,54.25 171.57,54.25 171.96,54.25 172.36,54.24 172.75,54.23 173.15,54.22 173.54,54.23 173.94,54.22 174.33,54.21 174.73,54.2 175.12,54.21 175.51,54.23 175.91,54.24 176.3,54.24 176.7,54.23 177.09,54.22 177.49,54.22 177.88,54.22 178.28,54.22 178.67,54.22 179.07,54.2 179.46,54.19 179.85,54.19 180.25,54.2 180.64,54.21 181.04,54.21 181.43,54.21 181.83,54.2 182.22,54.19 182.62,54.18 183.01,54.2 183.41,54.21 183.8,54.21 184.19,54.2 184.59,54.2 184.98,54.2 185.38,54.2 185.77,54.19 186.17,54.19 186.56,54.19 186.96,54.19 187.35,54.19 187.75,54.19 188.14,54.19 188.53,54.19 188.93,54.19 189.32,54.19 189.72,54.18 190.11,54.18 190.51,54.19 190.9,54.19 191.3,54.18 191.69,54.17 192.08,54.17 192.48,54.18 192.87,54.19 193.27,54.2 193.66,54.19 194.06,54.16 194.45,54.14 194.85,54.15 195.24,54.16 195.64,54.17 196.03,54.17 196.42,54.16 196.82,54.15 197.21,54.14 197.61,54.15 198,54.15 198.4,54.15 198.79,54.13 199.19,54.13 199.58,54.14 199.98,54.15 200.37,54.15 200.76,54.14 201.16,54.13 201.55,54.14 201.95,54.14 202.34,54.14 202.74,54.13 203.13,54.13 203.53,54.14 203.92,54.15 204.32,54.15 204.71,54.15 205.1,54.14 205.5,54.14 205.89,54.13 206.29,54.13 206.68,54.12 207.08,54.11 207.47,54.11 207.87,54.11 208.26,54.12 208.66,54.14 209.05,54.14 209.44,54.13 209.84,54.12 210.23,54.13 210.63,54.13 211.02,54.13 211.42,54.13 211.81,54.13 212.21,54.12 212.6,54.12 213,54.11 213.39,54.11 213.78,54.12 214.18,54.12 214.57,54.12 214.97,54.12 215.36,54.12 215.76,54.1 216.15,54.1 216.55,54.1 216.94,54.11 217.34,54.1 217.73,54.09 218.12,54.1 218.52,54.12 218.91,54.12 219.31,54.11 219.7,54.09 220.1,54.09 220.49,54.08 220.89,54.1 221.28,54.1 221.67,54.1 222.07,54.09 222.46,54.1 222.86,54.11 223.25,54.1 223.65,54.1 224.04,54.1 224.44,54.1 224.83,54.1 225.23,54.1 225.62,54.09 226.01,54.09 226.41,54.09 226.8,54.09 227.2,54.09 227.59,54.08 227.99,54.09 228.38,54.09 228.78,54.1 229.17,54.09 229.57,54.09 229.96,54.08 230.35,54.08 230.75,54.07 231.14,54.07 231.54,54.08 231.93,54.09 232.33,54.09 232.72,54.08 233.12,54.08 233.51,54.09 233.91,54.1 234.3,54.1 234.69,54.09 235.09,54.09 235.48,54.09 235.88,54.09 236.27,54.1 236.67,54.1 237.06,54.08 237.46,54.07 237.85,54.07 238.25,54.08 238.64,54.08 239.03,54.08 239.43,54.07 239.82,54.07 240.22,54.07 240.61,54.08 241.01,54.08 241.4,54.08 241.8,54.07 242.19,54.07 242.59,54.08 242.98,54.08 243.37,54.07 243.77,54.06 244.16,54.06 244.56,54.06 244.95,54.07 245.35,54.06 245.74,54.06 246.14,54.06 246.53,54.05 246.93,54.05 247.32,54.05 247.71,54.06 248.11,54.06 248.5,54.05 248.9,54.05 249.29,54.06 249.69,54.06 250.08,54.06 250.48,54.07 250.87,54.07 251.26,54.07 251.66,54.06 252.05,54.06 252.45,54.06 252.84,54.06 253.24,54.05 253.63,54.05 254.03,54.05 254.42,54.05 254.82,54.05 255.21,54.04 255.6,54.05 256,54.05 256.39,54.06 256.79,54.06 257.18,54.05 257.58,54.04 257.97,54.04 258.37,54.05 258.76,54.06 259.16,54.07 259.55,54.05 259.94,54.02 260.34,53.99 260.73,53.97 261.13,53.97" stroke-dasharray="none" stroke="rgb(31,120,180)" stroke-width="0.75" opacity="1" stroke-opacity="1" fill="none"/>
          </g>
          <g id="Fig:densplot_01.xyplot.lines.group.12.panel.1.1.1">
            <polyline id="Fig:densplot_01.xyplot.lines.group.12.panel.1.1.1.1" points="59.88,53.97 60.27,54.09 60.67,55.42 61.06,63.21 61.46,88.11 61.85,133.59 62.24,182.08 62.64,210.28 63.03,212.73 63.42,199.82 63.82,182.87 64.21,167.29 64.61,153.8 65,142.02 65.39,131.77 65.79,122.94 66.18,115.49 66.58,109.19 66.97,103.66 67.36,98.86 67.76,94.81 68.15,91.41 68.55,88.46 68.94,85.87 69.33,83.54 69.73,81.37 70.12,79.36 70.52,77.58 70.91,76.07 71.3,74.72 71.7,73.45 72.09,72.31 72.49,71.38 72.88,70.45 73.27,69.46 73.67,68.59 74.06,67.88 74.45,67.27 74.85,66.7 75.24,66.09 75.64,65.45 76.03,64.81 76.42,64.27 76.82,63.84 77.21,63.49 77.61,63.18 78,62.88 78.39,62.58 78.79,62.28 79.18,62 79.58,61.68 79.97,61.32 80.36,61.01 80.76,60.78 81.15,60.56 81.55,60.34 81.94,60.16 82.33,60 82.73,59.81 83.12,59.57 83.52,59.35 83.91,59.19 84.3,59.06 84.7,58.91 85.09,58.74 85.49,58.62 85.88,58.56 86.27,58.49 86.67,58.35 87.06,58.2 87.45,58.06 87.85,57.94 88.24,57.83 88.64,57.76 89.03,57.67 89.42,57.59 89.82,57.52 90.21,57.46 90.61,57.38 91,57.3 91.39,57.22 91.79,57.16 92.18,57.1 92.58,57.04 92.97,56.99 93.36,56.94 93.76,56.89 94.15,56.82 94.55,56.75 94.94,56.66 95.33,56.56 95.73,56.47 96.12,56.42 96.52,56.41 96.91,56.38 97.3,56.31 97.7,56.25 98.09,56.22 98.49,56.21 98.88,56.2 99.27,56.19 99.67,56.19 100.06,56.16 100.45,56.1 100.85,56.02 101.24,55.95 101.64,55.91 102.03,55.86 102.42,55.79 102.82,55.73 103.21,55.7 103.61,55.7 104,55.67 104.39,55.63 104.79,55.6 105.18,55.59 105.58,55.59 105.97,55.57 106.36,55.54 106.76,55.53 107.15,55.5 107.55,55.46 107.94,55.42 108.33,55.41 108.73,55.4 109.12,55.4 109.52,55.38 109.91,55.38 110.3,55.37 110.7,55.32 111.09,55.26 111.48,55.24 111.88,55.25 112.27,55.23 112.67,55.2 113.06,55.19 113.45,55.19 113.85,55.18 114.24,55.17 114.64,55.15 115.03,55.12 115.42,55.1 115.82,55.1 116.21,55.08 116.61,55.06 117,55.06 117.39,55.05 117.79,55.02 118.18,54.98 118.58,54.96 118.97,54.95 119.36,54.95 119.76,54.95 120.15,54.93 120.55,54.91 120.94,54.9 121.33,54.91 121.73,54.91 122.12,54.91 122.52,54.89 122.91,54.88 123.3,54.86 123.7,54.85 124.09,54.85 124.48,54.84 124.88,54.83 125.27,54.81 125.67,54.79 126.06,54.8 126.45,54.81 126.85,54.82 127.24,54.81 127.64,54.79 128.03,54.76 128.42,54.75 128.82,54.74 129.21,54.72 129.61,54.71 130,54.7 130.39,54.69 130.79,54.68 131.18,54.67 131.58,54.67 131.97,54.68 132.36,54.69 132.76,54.67 133.15,54.64 133.55,54.63 133.94,54.63 134.33,54.64 134.73,54.63 135.12,54.61 135.52,54.6 135.91,54.59 136.3,54.59 136.7,54.59 137.09,54.58 137.48,54.57 137.88,54.56 138.27,54.56 138.67,54.58 139.06,54.58 139.45,54.57 139.85,54.57 140.24,54.57 140.64,54.55 141.03,54.52 141.42,54.5 141.82,54.5 142.21,54.5 142.61,54.5 143,54.5 143.39,54.49 143.79,54.48 144.18,54.48 144.58,54.49 144.97,54.49 145.36,54.5 145.76,54.49 146.15,54.47 146.55,54.46 146.94,54.45 147.33,54.45 147.73,54.45 148.12,54.44 148.51,54.42 148.91,54.41 149.3,54.4 149.7,54.41 150.09,54.44 150.48,54.45 150.88,54.42 151.27,54.4 151.67,54.39 152.06,54.38 152.45,54.37 152.85,54.38 153.24,54.39 153.64,54.4 154.03,54.39 154.42,54.35 154.82,54.32 155.21,54.32 155.61,54.33 156,54.35 156.39,54.37 156.79,54.38 157.18,54.38 157.58,54.37 157.97,54.37 158.36,54.35 158.76,54.33 159.15,54.32 159.55,54.32 159.94,54.32 160.33,54.33 160.73,54.33 161.12,54.33 161.51,54.33 161.91,54.31 162.3,54.31 162.7,54.32 163.09,54.32 163.48,54.32 163.88,54.33 164.27,54.33 164.67,54.31 165.06,54.29 165.45,54.27 165.85,54.26 166.24,54.28 166.64,54.3 167.03,54.32 167.42,54.32 167.82,54.31 168.21,54.29 168.61,54.27 169,54.27 169.39,54.26 169.79,54.27 170.18,54.28 170.58,54.28 170.97,54.28 171.36,54.28 171.76,54.28 172.15,54.28 172.55,54.27 172.94,54.28 173.33,54.28 173.73,54.27 174.12,54.27 174.51,54.26 174.91,54.26 175.3,54.25 175.7,54.24 176.09,54.24 176.48,54.24 176.88,54.25 177.27,54.26 177.67,54.25 178.06,54.24 178.45,54.23 178.85,54.21 179.24,54.21 179.64,54.22 180.03,54.23 180.42,54.23 180.82,54.22 181.21,54.21 181.61,54.22 182,54.23 182.39,54.22 182.79,54.19 183.18,54.19 183.58,54.2 183.97,54.21 184.36,54.22 184.76,54.21 185.15,54.19 185.54,54.18 185.94,54.19 186.33,54.2 186.73,54.19 187.12,54.19 187.51,54.2 187.91,54.2 188.3,54.21 188.7,54.21 189.09,54.22 189.48,54.21 189.88,54.2 190.27,54.19 190.67,54.18 191.06,54.19 191.45,54.19 191.85,54.2 192.24,54.2 192.64,54.19 193.03,54.18 193.42,54.17 193.82,54.18 194.21,54.19 194.61,54.2 195,54.2 195.39,54.19 195.79,54.17 196.18,54.16 196.58,54.16 196.97,54.15 197.36,54.16 197.76,54.17 198.15,54.18 198.54,54.19 198.94,54.18 199.33,54.16 199.73,54.15 200.12,54.14 200.51,54.13 200.91,54.14 201.3,54.15 201.7,54.15 202.09,54.15 202.48,54.15 202.88,54.16 203.27,54.16 203.67,54.17 204.06,54.16 204.45,54.14 204.85,54.13 205.24,54.12 205.64,54.13 206.03,54.14 206.42,54.14 206.82,54.14 207.21,54.14 207.61,54.14 208,54.13 208.39,54.13 208.79,54.13 209.18,54.13 209.57,54.13 209.97,54.13 210.36,54.13 210.76,54.12 211.15,54.13 211.54,54.13 211.94,54.13 212.33,54.14 212.73,54.14 213.12,54.14 213.51,54.13 213.91,54.12 214.3,54.11 214.7,54.12 215.09,54.12 215.48,54.12 215.88,54.13 216.27,54.13 216.67,54.12 217.06,54.11 217.45,54.12 217.85,54.12 218.24,54.12 218.64,54.12 219.03,54.12 219.42,54.12 219.82,54.13 220.21,54.12 220.61,54.11 221,54.1 221.39,54.1 221.79,54.11 222.18,54.11 222.57,54.11 222.97,54.12 223.36,54.11 223.76,54.11 224.15,54.1 224.54,54.09 224.94,54.09 225.33,54.09 225.73,54.09 226.12,54.08 226.51,54.08 226.91,54.09 227.3,54.09 227.7,54.09 228.09,54.1 228.48,54.11 228.88,54.11 229.27,54.1 229.67,54.09 230.06,54.1 230.45,54.1 230.85,54.09 231.24,54.09 231.64,54.09 232.03,54.09 232.42,54.09 232.82,54.1 233.21,54.1 233.61,54.1 234,54.1 234.39,54.1 234.79,54.09 235.18,54.09 235.57,54.09 235.97,54.08 236.36,54.09 236.76,54.09 237.15,54.1 237.54,54.1 237.94,54.1 238.33,54.1 238.73,54.09 239.12,54.09 239.51,54.08 239.91,54.08 240.3,54.09 240.7,54.09 241.09,54.08 241.48,54.08 241.88,54.08 242.27,54.08 242.67,54.08 243.06,54.07 243.45,54.08 243.85,54.08 244.24,54.09 244.64,54.08 245.03,54.06 245.42,54.05 245.82,54.05 246.21,54.06 246.6,54.07 247,54.08 247.39,54.07 247.79,54.08 248.18,54.08 248.57,54.09 248.97,54.08 249.36,54.07 249.76,54.07 250.15,54.07 250.54,54.08 250.94,54.08 251.33,54.07 251.73,54.06 252.12,54.06 252.51,54.06 252.91,54.06 253.3,54.06 253.7,54.07 254.09,54.06 254.48,54.06 254.88,54.05 255.27,54.05 255.67,54.05 256.06,54.05 256.45,54.05 256.85,54.05 257.24,54.05 257.64,54.06 258.03,54.06 258.42,54.06 258.82,54.06 259.21,54.05 259.6,54.04 260,54.01 260.39,53.98 260.79,53.97 261.18,53.97" stroke-dasharray="none" stroke="rgb(31,120,180)" stroke-width="0.75" opacity="1" stroke-opacity="1" fill="none"/>
          </g>
        </g>
        <g id="Fig:densplot_01.panel.1.1.off.vp.2">
          <g id="Fig:densplot_01.border.panel.1.1.1">
            <rect id="Fig:densplot_01.border.panel.1.1.1.1" x="44.8" y="42.19" width="231.2" height="191.81" transform="" stroke="rgb(0,0,0)" stroke-dasharray="none" stroke-width="0.75" opacity="1" fill="none" stroke-opacity="1" fill-opacity="0"/>
          </g>
        </g>
        <g id="Fig:densplot_01..1"/>
      </g>
    </g>
  </g>
</svg>