<?xml version="1.0" encoding="UTF-8"?>
<svg xmlns="http://www.w3.org/2000/svg" xmlns:xlink="http://www.w3.org/1999/xlink" width="288px" height="252px" viewBox="0 0 288 252" version="1.1" id="Fig:dens">
  <metadata xmlns:gridsvg="http://www.stat.auckland.ac.nz/~paul/R/gridSVG/">
    <gridsvg:generator name="gridSVG" version="1.7-1" time="2020-05-03 10:48:23"/>
    <gridsvg:argument name="name" value="./results/QCDir.Norm/dens.svg"/>
    <gridsvg:argument name="exportCoords" value="none"/>
    <gridsvg:argument name="exportMappings" value="none"/>
    <gridsvg:argument name="exportJS" value="none"/>
    <gridsvg:argument name="res" value="72"/>
    <gridsvg:argument name="prefix" value="Fig:dens"/>
    <gridsvg:argument name="addClasses" value="FALSE"/>
    <gridsvg:argument name="indent" value="TRUE"/>
    <gridsvg:argument name="htmlWrapper" value="FALSE"/>
    <gridsvg:argument name="usePaths" value="none"/>
    <gridsvg:argument name="uniqueNames" value="TRUE"/>
    <gridsvg:separator name="id.sep" value="."/>
    <gridsvg:separator name="gPath.sep" value="::"/>
    <gridsvg:separator name="vpPath.sep" value="::"/>
  </metadata>
  <g transform="translate(0, 252) scale(1, -1)">
    <g id="Fig:densgridSVG" fill="none" stroke="rgb(0,0,0)" stroke-dasharray="none" stroke-width="0.75" font-size="12" font-family="Helvetica, Arial, FreeSans, Liberation Sans, Nimbus Sans L, sans-serif" opacity="1" stroke-linecap="round" stroke-linejoin="round" stroke-miterlimit="10" stroke-opacity="1" fill-opacity="0" font-weight="normal" font-style="normal">
      <g id="Fig:densplot_01.background.1">
        <rect id="Fig:densplot_01.background.1.1" x="0" y="0" width="288" height="252" transform="" fill="none" stroke="none" stroke-opacity="0" fill-opacity="0"/>
      </g>
      <g id="Fig:densplot_01.toplevel.vp.1" font-size="12">
        <g id="Fig:densplot_01.ylab.vp.1">
          <g id="Fig:densplot_01.ylab.1">
            <g id="Fig:densplot_01.ylab.1.1" transform="translate(10.31, 138.09)" stroke-width="0.1">
              <g id="Fig:densplot_01.ylab.1.1.scale" transform="scale(1, -1)">
                <text x="0" y="0" id="Fig:densplot_01.ylab.1.1.text" transform="rotate(-90)" text-anchor="middle" opacity="1" stroke="rgb(0,0,0)" fill="rgb(0,0,0)" stroke-opacity="1" fill-opacity="1" font-size="12" font-weight="normal" font-style="normal">
                  <tspan id="Fig:densplot_01.ylab.1.1.tspan.1" dy="4.31" x="0">Density</tspan>
                </text>
              </g>
            </g>
          </g>
        </g>
        <g id="Fig:densplot_01.figure.vp.1"/>
        <defs>
          <clipPath id="Fig:densplot_01.panel.1.1.vp.1.clipPath">
            <rect x="44.8" y="42.19" width="231.2" height="191.81" fill="none" stroke="none"/>
          </clipPath>
        </defs>
        <g id="Fig:densplot_01.panel.1.1.vp.1" clip-path="url(#Fig:densplot_01.panel.1.1.vp.1.clipPath)"/>
        <g id="Fig:densplot_01.strip.1.1.off.vp.1"/>
        <g id="Fig:densplot_01.strip.left.1.1.off.vp.1">
          <g id="Fig:densplot_01.ticks.left.panel.1.1.1">
            <polyline id="Fig:densplot_01.ticks.left.panel.1.1.1.1" points="44.8,53.95 39.13,53.95" stroke="rgb(0,0,0)" opacity="1" stroke-dasharray="none" stroke-width="0.75" stroke-opacity="1" fill="none"/>
            <polyline id="Fig:densplot_01.ticks.left.panel.1.1.1.2" points="44.8,102.4 39.13,102.4" stroke="rgb(0,0,0)" opacity="1" stroke-dasharray="none" stroke-width="0.75" stroke-opacity="1" fill="none"/>
            <polyline id="Fig:densplot_01.ticks.left.panel.1.1.1.3" points="44.8,150.86 39.13,150.86" stroke="rgb(0,0,0)" opacity="1" stroke-dasharray="none" stroke-width="0.75" stroke-opacity="1" fill="none"/>
            <polyline id="Fig:densplot_01.ticks.left.panel.1.1.1.4" points="44.8,199.31 39.13,199.31" stroke="rgb(0,0,0)" opacity="1" stroke-dasharray="none" stroke-width="0.75" stroke-opacity="1" fill="none"/>
          </g>
          <g id="Fig:densplot_01.ticklabels.left.panel.1.1.1">
            <g id="Fig:densplot_01.ticklabels.left.panel.1.1.1.1" transform="translate(33.47, 53.95)" stroke-width="0.1">
              <g id="Fig:densplot_01.ticklabels.left.panel.1.1.1.1.scale" transform="scale(1, -1)">
                <text x="0" y="0" id="Fig:densplot_01.ticklabels.left.panel.1.1.1.1.text" transform="rotate(-90)" text-anchor="middle" stroke="rgb(0,0,0)" opacity="1" fill="rgb(0,0,0)" stroke-opacity="1" fill-opacity="1" font-size="9.6" font-weight="normal" font-style="normal">
                  <tspan id="Fig:densplot_01.ticklabels.left.panel.1.1.1.1.tspan.1" dy="0" x="0">0.00</tspan>
                </text>
              </g>
            </g>
            <g id="Fig:densplot_01.ticklabels.left.panel.1.1.1.2" transform="translate(33.47, 102.4)" stroke-width="0.1">
              <g id="Fig:densplot_01.ticklabels.left.panel.1.1.1.2.scale" transform="scale(1, -1)">
                <text x="0" y="0" id="Fig:densplot_01.ticklabels.left.panel.1.1.1.2.text" transform="rotate(-90)" text-anchor="middle" stroke="rgb(0,0,0)" opacity="1" fill="rgb(0,0,0)" stroke-opacity="1" fill-opacity="1" font-size="9.6" font-weight="normal" font-style="normal">
                  <tspan id="Fig:densplot_01.ticklabels.left.panel.1.1.1.2.tspan.1" dy="0" x="0">0.05</tspan>
                </text>
              </g>
            </g>
            <g id="Fig:densplot_01.ticklabels.left.panel.1.1.1.3" transform="translate(33.47, 150.86)" stroke-width="0.1">
              <g id="Fig:densplot_01.ticklabels.left.panel.1.1.1.3.scale" transform="scale(1, -1)">
                <text x="0" y="0" id="Fig:densplot_01.ticklabels.left.panel.1.1.1.3.text" transform="rotate(-90)" text-anchor="middle" stroke="rgb(0,0,0)" opacity="1" fill="rgb(0,0,0)" stroke-opacity="1" fill-opacity="1" font-size="9.6" font-weight="normal" font-style="normal">
                  <tspan id="Fig:densplot_01.ticklabels.left.panel.1.1.1.3.tspan.1" dy="0" x="0">0.10</tspan>
                </text>
              </g>
            </g>
            <g id="Fig:densplot_01.ticklabels.left.panel.1.1.1.4" transform="translate(33.47, 199.31)" stroke-width="0.1">
              <g id="Fig:densplot_01.ticklabels.left.panel.1.1.1.4.scale" transform="scale(1, -1)">
                <text x="0" y="0" id="Fig:densplot_01.ticklabels.left.panel.1.1.1.4.text" transform="rotate(-90)" text-anchor="middle" stroke="rgb(0,0,0)" opacity="1" fill="rgb(0,0,0)" stroke-opacity="1" fill-opacity="1" font-size="9.6" font-weight="normal" font-style="normal">
                  <tspan id="Fig:densplot_01.ticklabels.left.panel.1.1.1.4.tspan.1" dy="0" x="0">0.15</tspan>
                </text>
              </g>
            </g>
          </g>
        </g>
        <g id="Fig:densplot_01.panel.1.1.off.vp.1">
          <g id="Fig:densplot_01.ticks.bottom.panel.1.1.1">
            <polyline id="Fig:densplot_01.ticks.bottom.panel.1.1.1.1" points="52.81,42.19 52.81,36.52" stroke="rgb(0,0,0)" opacity="1" stroke-dasharray="none" stroke-width="0.75" stroke-opacity="1" fill="none"/>
            <polyline id="Fig:densplot_01.ticks.bottom.panel.1.1.1.2" points="90.48,42.19 90.48,36.52" stroke="rgb(0,0,0)" opacity="1" stroke-dasharray="none" stroke-width="0.75" stroke-opacity="1" fill="none"/>
            <polyline id="Fig:densplot_01.ticks.bottom.panel.1.1.1.3" points="128.15,42.19 128.15,36.52" stroke="rgb(0,0,0)" opacity="1" stroke-dasharray="none" stroke-width="0.75" stroke-opacity="1" fill="none"/>
            <polyline id="Fig:densplot_01.ticks.bottom.panel.1.1.1.4" points="165.83,42.19 165.83,36.52" stroke="rgb(0,0,0)" opacity="1" stroke-dasharray="none" stroke-width="0.75" stroke-opacity="1" fill="none"/>
            <polyline id="Fig:densplot_01.ticks.bottom.panel.1.1.1.5" points="203.5,42.19 203.5,36.52" stroke="rgb(0,0,0)" opacity="1" stroke-dasharray="none" stroke-width="0.75" stroke-opacity="1" fill="none"/>
            <polyline id="Fig:densplot_01.ticks.bottom.panel.1.1.1.6" points="241.17,42.19 241.17,36.52" stroke="rgb(0,0,0)" opacity="1" stroke-dasharray="none" stroke-width="0.75" stroke-opacity="1" fill="none"/>
          </g>
          <g id="Fig:densplot_01.ticklabels.bottom.panel.1.1.1">
            <g id="Fig:densplot_01.ticklabels.bottom.panel.1.1.1.1" transform="translate(52.81, 30.85)" stroke-width="0.1">
              <g id="Fig:densplot_01.ticklabels.bottom.panel.1.1.1.1.scale" transform="scale(1, -1)">
                <text x="0" y="0" id="Fig:densplot_01.ticklabels.bottom.panel.1.1.1.1.text" text-anchor="middle" stroke="rgb(0,0,0)" opacity="1" fill="rgb(0,0,0)" stroke-opacity="1" fill-opacity="1" font-size="9.6" font-weight="normal" font-style="normal">
                  <tspan id="Fig:densplot_01.ticklabels.bottom.panel.1.1.1.1.tspan.1" dy="7.18" x="0">2</tspan>
                </text>
              </g>
            </g>
            <g id="Fig:densplot_01.ticklabels.bottom.panel.1.1.1.2" transform="translate(90.48, 30.85)" stroke-width="0.1">
              <g id="Fig:densplot_01.ticklabels.bottom.panel.1.1.1.2.scale" transform="scale(1, -1)">
                <text x="0" y="0" id="Fig:densplot_01.ticklabels.bottom.panel.1.1.1.2.text" text-anchor="middle" stroke="rgb(0,0,0)" opacity="1" fill="rgb(0,0,0)" stroke-opacity="1" fill-opacity="1" font-size="9.6" font-weight="normal" font-style="normal">
                  <tspan id="Fig:densplot_01.ticklabels.bottom.panel.1.1.1.2.tspan.1" dy="7.18" x="0">4</tspan>
                </text>
              </g>
            </g>
            <g id="Fig:densplot_01.ticklabels.bottom.panel.1.1.1.3" transform="translate(128.15, 30.85)" stroke-width="0.1">
              <g id="Fig:densplot_01.ticklabels.bottom.panel.1.1.1.3.scale" transform="scale(1, -1)">
                <text x="0" y="0" id="Fig:densplot_01.ticklabels.bottom.panel.1.1.1.3.text" text-anchor="middle" stroke="rgb(0,0,0)" opacity="1" fill="rgb(0,0,0)" stroke-opacity="1" fill-opacity="1" font-size="9.6" font-weight="normal" font-style="normal">
                  <tspan id="Fig:densplot_01.ticklabels.bottom.panel.1.1.1.3.tspan.1" dy="7.18" x="0">6</tspan>
                </text>
              </g>
            </g>
            <g id="Fig:densplot_01.ticklabels.bottom.panel.1.1.1.4" transform="translate(165.83, 30.85)" stroke-width="0.1">
              <g id="Fig:densplot_01.ticklabels.bottom.panel.1.1.1.4.scale" transform="scale(1, -1)">
                <text x="0" y="0" id="Fig:densplot_01.ticklabels.bottom.panel.1.1.1.4.text" text-anchor="middle" stroke="rgb(0,0,0)" opacity="1" fill="rgb(0,0,0)" stroke-opacity="1" fill-opacity="1" font-size="9.6" font-weight="normal" font-style="normal">
                  <tspan id="Fig:densplot_01.ticklabels.bottom.panel.1.1.1.4.tspan.1" dy="7.18" x="0">8</tspan>
                </text>
              </g>
            </g>
            <g id="Fig:densplot_01.ticklabels.bottom.panel.1.1.1.5" transform="translate(203.5, 30.85)" stroke-width="0.1">
              <g id="Fig:densplot_01.ticklabels.bottom.panel.1.1.1.5.scale" transform="scale(1, -1)">
                <text x="0" y="0" id="Fig:densplot_01.ticklabels.bottom.panel.1.1.1.5.text" text-anchor="middle" stroke="rgb(0,0,0)" opacity="1" fill="rgb(0,0,0)" stroke-opacity="1" fill-opacity="1" font-size="9.6" font-weight="normal" font-style="normal">
                  <tspan id="Fig:densplot_01.ticklabels.bottom.panel.1.1.1.5.tspan.1" dy="7.18" x="0">10</tspan>
                </text>
              </g>
            </g>
            <g id="Fig:densplot_01.ticklabels.bottom.panel.1.1.1.6" transform="translate(241.17, 30.85)" stroke-width="0.1">
              <g id="Fig:densplot_01.ticklabels.bottom.panel.1.1.1.6.scale" transform="scale(1, -1)">
                <text x="0" y="0" id="Fig:densplot_01.ticklabels.bottom.panel.1.1.1.6.text" text-anchor="middle" stroke="rgb(0,0,0)" opacity="1" fill="rgb(0,0,0)" stroke-opacity="1" fill-opacity="1" font-size="9.6" font-weight="normal" font-style="normal">
                  <tspan id="Fig:densplot_01.ticklabels.bottom.panel.1.1.1.6.tspan.1" dy="7.18" x="0">12</tspan>
                </text>
              </g>
            </g>
          </g>
        </g>
        <defs>
          <clipPath id="Fig:densplot_01.panel.1.1.vp.2.clipPath">
            <rect x="44.8" y="42.19" width="231.2" height="191.81" fill="none" stroke="none"/>
          </clipPath>
        </defs>
        <g id="Fig:densplot_01.panel.1.1.vp.2" clip-path="url(#Fig:densplot_01.panel.1.1.vp.2.clipPath)">
          <g id="Fig:densplot_01.xyplot.lines.group.1.panel.1.1.1">
            <polyline id="Fig:densplot_01.xyplot.lines.group.1.panel.1.1.1.1" points="59.15,53.98 59.55,53.99 59.95,54.01 60.34,54.03 60.74,54.06 61.14,54.09 61.53,54.13 61.93,54.19 62.32,54.26 62.72,54.35 63.12,54.47 63.51,54.6 63.91,54.77 64.31,54.98 64.7,55.23 65.1,55.53 65.49,55.89 65.89,56.32 66.29,56.82 66.68,57.41 67.08,58.08 67.48,58.87 67.87,59.78 68.27,60.81 68.66,61.96 69.06,63.26 69.46,64.7 69.85,66.29 70.25,68.07 70.65,70.01 71.04,72.11 71.44,74.38 71.83,76.81 72.23,79.4 72.63,82.15 73.02,85.07 73.42,88.13 73.82,91.31 74.21,94.62 74.61,98.02 75,101.52 75.4,105.1 75.8,108.75 76.19,112.44 76.59,116.15 76.99,119.88 77.38,123.61 77.78,127.33 78.17,131.02 78.57,134.67 78.97,138.26 79.36,141.8 79.76,145.27 80.16,148.67 80.55,151.98 80.95,155.19 81.34,158.32 81.74,161.35 82.14,164.3 82.53,167.14 82.93,169.9 83.33,172.54 83.72,175.09 84.12,177.54 84.51,179.9 84.91,182.17 85.31,184.35 85.7,186.44 86.1,188.44 86.5,190.35 86.89,192.19 87.29,193.94 87.68,195.63 88.08,197.24 88.48,198.78 88.87,200.24 89.27,201.64 89.67,202.98 90.06,204.26 90.46,205.49 90.85,206.66 91.25,207.77 91.65,208.83 92.04,209.83 92.44,210.79 92.84,211.7 93.23,212.56 93.63,213.38 94.02,214.14 94.42,214.84 94.82,215.5 95.21,216.11 95.61,216.67 96.01,217.17 96.4,217.63 96.8,218.02 97.19,218.35 97.59,218.63 97.99,218.86 98.38,219.04 98.78,219.18 99.18,219.26 99.57,219.29 99.97,219.28 100.36,219.24 100.76,219.17 101.16,219.07 101.55,218.95 101.95,218.81 102.35,218.65 102.74,218.49 103.14,218.32 103.53,218.14 103.93,217.97 104.33,217.79 104.72,217.61 105.12,217.43 105.52,217.25 105.91,217.06 106.31,216.87 106.7,216.67 107.1,216.47 107.5,216.25 107.89,216.02 108.29,215.77 108.69,215.51 109.08,215.22 109.48,214.92 109.87,214.6 110.27,214.26 110.67,213.9 111.06,213.53 111.46,213.14 111.86,212.74 112.25,212.33 112.65,211.91 113.04,211.48 113.44,211.06 113.84,210.63 114.23,210.2 114.63,209.77 115.03,209.34 115.42,208.91 115.82,208.49 116.21,208.07 116.61,207.65 117.01,207.24 117.4,206.83 117.8,206.41 118.2,206 118.59,205.6 118.99,205.19 119.38,204.79 119.78,204.39 120.18,204 120.57,203.62 120.97,203.25 121.37,202.89 121.76,202.55 122.16,202.22 122.55,201.92 122.95,201.63 123.35,201.37 123.74,201.14 124.14,200.93 124.54,200.75 124.93,200.6 125.33,200.47 125.72,200.36 126.12,200.27 126.52,200.21 126.91,200.15 127.31,200.11 127.71,200.06 128.1,200.02 128.5,199.98 128.89,199.92 129.29,199.85 129.69,199.76 130.08,199.65 130.48,199.52 130.88,199.35 131.27,199.16 131.67,198.94 132.06,198.69 132.46,198.41 132.86,198.11 133.25,197.78 133.65,197.43 134.05,197.07 134.44,196.68 134.84,196.29 135.23,195.89 135.63,195.49 136.03,195.09 136.42,194.69 136.82,194.31 137.22,193.93 137.61,193.56 138.01,193.21 138.4,192.88 138.8,192.57 139.2,192.27 139.59,192 139.99,191.75 140.39,191.52 140.78,191.31 141.18,191.12 141.57,190.94 141.97,190.78 142.37,190.64 142.76,190.51 143.16,190.38 143.56,190.26 143.95,190.14 144.35,190.03 144.74,189.9 145.14,189.77 145.54,189.63 145.93,189.48 146.33,189.31 146.73,189.12 147.12,188.91 147.52,188.68 147.91,188.43 148.31,188.15 148.71,187.86 149.1,187.54 149.5,187.21 149.9,186.86 150.29,186.48 150.69,186.1 151.08,185.7 151.48,185.29 151.88,184.88 152.27,184.46 152.67,184.03 153.07,183.61 153.46,183.19 153.86,182.77 154.25,182.36 154.65,181.96 155.05,181.57 155.44,181.19 155.84,180.82 156.24,180.47 156.63,180.13 157.03,179.81 157.42,179.51 157.82,179.22 158.22,178.96 158.61,178.72 159.01,178.49 159.41,178.27 159.8,178.07 160.2,177.89 160.59,177.71 160.99,177.54 161.39,177.37 161.78,177.2 162.18,177.02 162.58,176.84 162.97,176.64 163.37,176.43 163.76,176.19 164.16,175.93 164.56,175.65 164.95,175.34 165.35,175 165.75,174.63 166.14,174.24 166.54,173.81 166.93,173.37 167.33,172.9 167.73,172.41 168.12,171.91 168.52,171.39 168.92,170.87 169.31,170.34 169.71,169.81 170.1,169.29 170.5,168.77 170.9,168.26 171.29,167.77 171.69,167.3 172.09,166.84 172.48,166.41 172.88,165.99 173.27,165.59 173.67,165.22 174.07,164.86 174.46,164.52 174.86,164.2 175.26,163.89 175.65,163.58 176.05,163.28 176.44,162.98 176.84,162.67 177.24,162.35 177.63,162.02 178.03,161.67 178.43,161.3 178.82,160.91 179.22,160.49 179.61,160.03 180.01,159.55 180.41,159.03 180.8,158.49 181.2,157.92 181.6,157.33 181.99,156.71 182.39,156.07 182.78,155.42 183.18,154.76 183.58,154.09 183.97,153.42 184.37,152.76 184.77,152.1 185.16,151.46 185.56,150.83 185.95,150.21 186.35,149.62 186.75,149.04 187.14,148.48 187.54,147.95 187.94,147.44 188.33,146.94 188.73,146.45 189.12,145.98 189.52,145.52 189.92,145.07 190.31,144.62 190.71,144.18 191.11,143.73 191.5,143.28 191.9,142.83 192.29,142.37 192.69,141.9 193.09,141.42 193.48,140.93 193.88,140.42 194.28,139.91 194.67,139.39 195.07,138.85 195.46,138.3 195.86,137.74 196.26,137.17 196.65,136.6 197.05,136.01 197.45,135.41 197.84,134.8 198.24,134.18 198.63,133.56 199.03,132.93 199.43,132.29 199.82,131.64 200.22,130.99 200.62,130.33 201.01,129.67 201.41,129 201.8,128.32 202.2,127.65 202.6,126.97 202.99,126.28 203.39,125.6 203.79,124.91 204.18,124.22 204.58,123.53 204.97,122.83 205.37,122.14 205.77,121.44 206.16,120.75 206.56,120.05 206.96,119.35 207.35,118.65 207.75,117.95 208.14,117.25 208.54,116.54 208.94,115.84 209.33,115.14 209.73,114.43 210.13,113.73 210.52,113.03 210.92,112.34 211.31,111.65 211.71,110.96 212.11,110.28 212.5,109.61 212.9,108.95 213.3,108.29 213.69,107.65 214.09,107.02 214.48,106.4 214.88,105.8 215.28,105.21 215.67,104.62 216.07,104.06 216.47,103.5 216.86,102.95 217.26,102.41 217.65,101.89 218.05,101.36 218.45,100.85 218.84,100.33 219.24,99.82 219.64,99.32 220.03,98.81 220.43,98.31 220.82,97.8 221.22,97.29 221.62,96.79 222.01,96.28 222.41,95.76 222.81,95.25 223.2,94.74 223.6,94.23 223.99,93.71 224.39,93.2 224.79,92.69 225.18,92.18 225.58,91.67 225.98,91.17 226.37,90.67 226.77,90.17 227.16,89.67 227.56,89.18 227.96,88.7 228.35,88.22 228.75,87.74 229.15,87.26 229.54,86.8 229.94,86.33 230.33,85.87 230.73,85.42 231.13,84.96 231.52,84.52 231.92,84.07 232.32,83.63 232.71,83.2 233.11,82.77 233.5,82.34 233.9,81.91 234.3,81.49 234.69,81.07 235.09,80.65 235.49,80.23 235.88,79.81 236.28,79.39 236.67,78.97 237.07,78.54 237.47,78.12 237.86,77.69 238.26,77.26 238.66,76.82 239.05,76.37 239.45,75.92 239.84,75.47 240.24,75.01 240.64,74.53 241.03,74.05 241.43,73.56 241.83,73.05 242.22,72.54 242.62,72.01 243.01,71.47 243.41,70.91 243.81,70.34 244.2,69.75 244.6,69.15 245,68.54 245.39,67.91 245.79,67.27 246.18,66.62 246.58,65.96 246.98,65.29 247.37,64.62 247.77,63.95 248.17,63.28 248.56,62.61 248.96,61.96 249.35,61.32 249.75,60.7 250.15,60.09 250.54,59.51 250.94,58.96 251.34,58.44 251.73,57.95 252.13,57.49 252.52,57.06 252.92,56.67 253.32,56.31 253.71,55.99 254.11,55.7 254.51,55.44 254.9,55.21 255.3,55.01 255.69,54.84 256.09,54.68 256.49,54.55 256.88,54.44 257.28,54.35 257.68,54.27 258.07,54.21 258.47,54.15 258.86,54.11 259.26,54.08 259.66,54.05 260.05,54.02 260.45,54.01 260.85,53.99 261.24,53.98 261.64,53.97" stroke-dasharray="none" stroke="rgb(31,120,180)" stroke-width="0.75" opacity="1" stroke-opacity="1" fill="none"/>
          </g>
          <g id="Fig:densplot_01.xyplot.lines.group.2.panel.1.1.1">
            <polyline id="Fig:densplot_01.xyplot.lines.group.2.panel.1.1.1.1" points="59.24,53.99 59.64,54 60.03,54.02 60.43,54.04 60.83,54.07 61.22,54.11 61.62,54.16 62.01,54.23 62.41,54.31 62.81,54.41 63.2,54.54 63.6,54.7 64,54.89 64.39,55.11 64.79,55.39 65.18,55.73 65.58,56.13 65.98,56.6 66.37,57.14 66.77,57.78 67.16,58.5 67.56,59.35 67.96,60.33 68.35,61.42 68.75,62.65 69.14,64.02 69.54,65.54 69.94,67.21 70.33,69.07 70.73,71.09 71.12,73.27 71.52,75.61 71.92,78.1 72.31,80.76 72.71,83.57 73.1,86.54 73.5,89.64 73.9,92.85 74.29,96.18 74.69,99.59 75.09,103.1 75.48,106.67 75.88,110.3 76.27,113.97 76.67,117.65 77.07,121.34 77.46,125.03 77.86,128.71 78.25,132.34 78.65,135.94 79.05,139.49 79.44,142.97 79.84,146.4 80.23,149.75 80.63,153.03 81.03,156.22 81.42,159.32 81.82,162.34 82.21,165.27 82.61,168.11 83.01,170.87 83.4,173.52 83.8,176.08 84.19,178.55 84.59,180.92 84.99,183.21 85.38,185.42 85.78,187.53 86.18,189.55 86.57,191.48 86.97,193.32 87.36,195.09 87.76,196.78 88.16,198.39 88.55,199.93 88.95,201.38 89.34,202.77 89.74,204.09 90.14,205.35 90.53,206.56 90.93,207.7 91.32,208.8 91.72,209.83 92.12,210.83 92.51,211.77 92.91,212.68 93.3,213.54 93.7,214.37 94.1,215.15 94.49,215.89 94.89,216.6 95.28,217.27 95.68,217.9 96.08,218.49 96.47,219.04 96.87,219.54 97.27,220 97.66,220.42 98.06,220.79 98.45,221.12 98.85,221.41 99.25,221.65 99.64,221.84 100.04,221.99 100.43,222.11 100.83,222.18 101.23,222.22 101.62,222.22 102.02,222.19 102.41,222.14 102.81,222.06 103.21,221.96 103.6,221.84 104,221.71 104.39,221.57 104.79,221.42 105.19,221.26 105.58,221.09 105.98,220.91 106.37,220.73 106.77,220.54 107.17,220.34 107.56,220.13 107.96,219.91 108.36,219.69 108.75,219.44 109.15,219.19 109.54,218.92 109.94,218.63 110.34,218.32 110.73,217.99 111.13,217.64 111.52,217.27 111.92,216.87 112.32,216.46 112.71,216.02 113.11,215.56 113.5,215.09 113.9,214.59 114.3,214.09 114.69,213.56 115.09,213.03 115.48,212.49 115.88,211.95 116.28,211.41 116.67,210.88 117.07,210.35 117.46,209.83 117.86,209.33 118.26,208.86 118.65,208.41 119.05,207.98 119.45,207.59 119.84,207.23 120.24,206.9 120.63,206.61 121.03,206.36 121.43,206.14 121.82,205.95 122.22,205.8 122.61,205.67 123.01,205.56 123.41,205.48 123.8,205.42 124.2,205.37 124.59,205.32 124.99,205.27 125.39,205.23 125.78,205.17 126.18,205.11 126.57,205.02 126.97,204.92 127.37,204.79 127.76,204.64 128.16,204.47 128.55,204.27 128.95,204.03 129.35,203.77 129.74,203.48 130.14,203.17 130.54,202.83 130.93,202.47 131.33,202.09 131.72,201.69 132.12,201.27 132.52,200.83 132.91,200.39 133.31,199.93 133.7,199.46 134.1,198.99 134.5,198.51 134.89,198.02 135.29,197.53 135.68,197.04 136.08,196.55 136.48,196.05 136.87,195.56 137.27,195.07 137.66,194.58 138.06,194.1 138.46,193.62 138.85,193.15 139.25,192.68 139.64,192.23 140.04,191.78 140.44,191.35 140.83,190.93 141.23,190.52 141.63,190.13 142.02,189.75 142.42,189.39 142.81,189.04 143.21,188.7 143.61,188.37 144,188.05 144.4,187.75 144.79,187.45 145.19,187.15 145.59,186.86 145.98,186.56 146.38,186.27 146.77,185.97 147.17,185.67 147.57,185.35 147.96,185.03 148.36,184.7 148.75,184.36 149.15,184.01 149.55,183.65 149.94,183.29 150.34,182.92 150.73,182.54 151.13,182.16 151.53,181.79 151.92,181.41 152.32,181.04 152.72,180.68 153.11,180.32 153.51,179.98 153.9,179.64 154.3,179.32 154.7,179 155.09,178.7 155.49,178.41 155.88,178.12 156.28,177.85 156.68,177.58 157.07,177.31 157.47,177.04 157.86,176.78 158.26,176.51 158.66,176.24 159.05,175.96 159.45,175.68 159.84,175.38 160.24,175.08 160.64,174.77 161.03,174.44 161.43,174.1 161.82,173.76 162.22,173.4 162.62,173.04 163.01,172.66 163.41,172.28 163.81,171.9 164.2,171.51 164.6,171.12 164.99,170.73 165.39,170.34 165.79,169.96 166.18,169.58 166.58,169.21 166.97,168.84 167.37,168.49 167.77,168.14 168.16,167.81 168.56,167.48 168.95,167.17 169.35,166.87 169.75,166.57 170.14,166.29 170.54,166.01 170.93,165.74 171.33,165.48 171.73,165.22 172.12,164.96 172.52,164.71 172.91,164.46 173.31,164.2 173.71,163.94 174.1,163.68 174.5,163.41 174.9,163.13 175.29,162.84 175.69,162.54 176.08,162.22 176.48,161.89 176.88,161.54 177.27,161.16 177.67,160.77 178.06,160.35 178.46,159.91 178.86,159.45 179.25,158.97 179.65,158.45 180.04,157.92 180.44,157.37 180.84,156.8 181.23,156.21 181.63,155.61 182.02,155 182.42,154.37 182.82,153.74 183.21,153.1 183.61,152.46 184,151.83 184.4,151.19 184.8,150.56 185.19,149.94 185.59,149.33 185.99,148.72 186.38,148.13 186.78,147.55 187.17,146.98 187.57,146.42 187.97,145.87 188.36,145.32 188.76,144.79 189.15,144.26 189.55,143.74 189.95,143.22 190.34,142.7 190.74,142.19 191.13,141.67 191.53,141.15 191.93,140.63 192.32,140.11 192.72,139.59 193.11,139.06 193.51,138.52 193.91,137.98 194.3,137.44 194.7,136.89 195.09,136.33 195.49,135.77 195.89,135.21 196.28,134.64 196.68,134.06 197.08,133.49 197.47,132.91 197.87,132.32 198.26,131.73 198.66,131.14 199.06,130.55 199.45,129.95 199.85,129.36 200.24,128.77 200.64,128.17 201.04,127.58 201.43,127 201.83,126.41 202.22,125.83 202.62,125.26 203.02,124.69 203.41,124.12 203.81,123.56 204.2,123 204.6,122.45 205,121.89 205.39,121.34 205.79,120.78 206.18,120.22 206.58,119.65 206.98,119.08 207.37,118.5 207.77,117.9 208.17,117.3 208.56,116.68 208.96,116.05 209.35,115.4 209.75,114.74 210.15,114.07 210.54,113.38 210.94,112.69 211.33,111.99 211.73,111.28 212.13,110.57 212.52,109.86 212.92,109.15 213.31,108.44 213.71,107.73 214.11,107.04 214.5,106.35 214.9,105.68 215.29,105.01 215.69,104.36 216.09,103.72 216.48,103.09 216.88,102.48 217.27,101.88 217.67,101.3 218.07,100.72 218.46,100.16 218.86,99.61 219.26,99.06 219.65,98.53 220.05,98.01 220.44,97.5 220.84,96.99 221.24,96.49 221.63,96 222.03,95.52 222.42,95.04 222.82,94.57 223.22,94.1 223.61,93.64 224.01,93.19 224.4,92.74 224.8,92.3 225.2,91.86 225.59,91.42 225.99,90.99 226.38,90.56 226.78,90.13 227.18,89.7 227.57,89.27 227.97,88.84 228.36,88.41 228.76,87.98 229.16,87.55 229.55,87.11 229.95,86.67 230.35,86.23 230.74,85.79 231.14,85.34 231.53,84.89 231.93,84.43 232.33,83.98 232.72,83.52 233.12,83.06 233.51,82.6 233.91,82.14 234.31,81.68 234.7,81.22 235.1,80.76 235.49,80.3 235.89,79.84 236.29,79.38 236.68,78.93 237.08,78.47 237.47,78.02 237.87,77.57 238.27,77.11 238.66,76.66 239.06,76.2 239.45,75.74 239.85,75.28 240.25,74.81 240.64,74.34 241.04,73.85 241.44,73.36 241.83,72.86 242.23,72.35 242.62,71.82 243.02,71.28 243.42,70.72 243.81,70.14 244.21,69.55 244.6,68.94 245,68.32 245.4,67.68 245.79,67.03 246.19,66.36 246.58,65.69 246.98,65.01 247.38,64.33 247.77,63.64 248.17,62.97 248.56,62.3 248.96,61.64 249.36,61 249.75,60.38 250.15,59.78 250.54,59.21 250.94,58.67 251.34,58.16 251.73,57.68 252.13,57.24 252.53,56.83 252.92,56.46 253.32,56.12 253.71,55.81 254.11,55.55 254.51,55.31 254.9,55.09 255.3,54.91 255.69,54.75 256.09,54.61 256.49,54.49 256.88,54.39 257.28,54.31 257.67,54.24 258.07,54.18 258.47,54.13 258.86,54.09 259.26,54.06 259.65,54.03 260.05,54.01 260.45,54 260.84,53.99 261.24,53.98 261.63,53.97" stroke-dasharray="none" stroke="rgb(31,120,180)" stroke-width="0.75" opacity="1" stroke-opacity="1" fill="none"/>
          </g>
          <g id="Fig:densplot_01.xyplot.lines.group.3.panel.1.1.1">
            <polyline id="Fig:densplot_01.xyplot.lines.group.3.panel.1.1.1.1" points="59.12,53.99 59.52,54 59.92,54.02 60.31,54.04 60.71,54.07 61.11,54.11 61.5,54.16 61.9,54.22 62.29,54.3 62.69,54.4 63.09,54.52 63.48,54.68 63.88,54.87 64.28,55.09 64.67,55.36 65.07,55.69 65.47,56.09 65.86,56.55 66.26,57.1 66.66,57.74 67.05,58.47 67.45,59.32 67.85,60.29 68.24,61.4 68.64,62.65 69.04,64.06 69.43,65.61 69.83,67.33 70.23,69.21 70.62,71.29 71.02,73.55 71.42,75.99 71.81,78.59 72.21,81.37 72.61,84.31 73,87.41 73.4,90.69 73.8,94.09 74.19,97.62 74.59,101.26 74.98,104.99 75.38,108.79 75.78,112.67 76.17,116.59 76.57,120.53 76.97,124.48 77.36,128.43 77.76,132.35 78.16,136.23 78.55,140.06 78.95,143.83 79.35,147.51 79.74,151.12 80.14,154.63 80.54,158.05 80.93,161.36 81.33,164.55 81.73,167.63 82.12,170.6 82.52,173.45 82.92,176.2 83.31,178.83 83.71,181.34 84.11,183.74 84.5,186.02 84.9,188.2 85.3,190.29 85.69,192.27 86.09,194.16 86.48,195.95 86.88,197.64 87.28,199.25 87.67,200.77 88.07,202.23 88.47,203.6 88.86,204.91 89.26,206.13 89.66,207.29 90.05,208.39 90.45,209.43 90.85,210.42 91.24,211.35 91.64,212.23 92.04,213.05 92.43,213.83 92.83,214.55 93.23,215.24 93.62,215.87 94.02,216.46 94.42,217 94.81,217.49 95.21,217.93 95.61,218.33 96,218.68 96.4,218.98 96.8,219.23 97.19,219.43 97.59,219.57 97.98,219.67 98.38,219.73 98.78,219.73 99.17,219.69 99.57,219.61 99.97,219.49 100.36,219.33 100.76,219.14 101.16,218.92 101.55,218.67 101.95,218.4 102.35,218.12 102.74,217.82 103.14,217.51 103.54,217.19 103.93,216.87 104.33,216.54 104.73,216.22 105.12,215.89 105.52,215.56 105.92,215.23 106.31,214.9 106.71,214.56 107.11,214.23 107.5,213.88 107.9,213.53 108.3,213.17 108.69,212.8 109.09,212.42 109.48,212.02 109.88,211.61 110.28,211.19 110.67,210.75 111.07,210.3 111.47,209.84 111.86,209.36 112.26,208.88 112.66,208.39 113.05,207.89 113.45,207.38 113.85,206.87 114.24,206.36 114.64,205.84 115.04,205.33 115.43,204.81 115.83,204.3 116.23,203.79 116.62,203.28 117.02,202.77 117.42,202.27 117.81,201.77 118.21,201.28 118.61,200.8 119,200.32 119.4,199.86 119.8,199.41 120.19,198.98 120.59,198.56 120.98,198.16 121.38,197.78 121.78,197.43 122.17,197.1 122.57,196.79 122.97,196.52 123.36,196.27 123.76,196.05 124.16,195.86 124.55,195.69 124.95,195.55 125.35,195.43 125.74,195.33 126.14,195.25 126.54,195.18 126.93,195.13 127.33,195.07 127.73,195.02 128.12,194.97 128.52,194.91 128.92,194.85 129.31,194.77 129.71,194.67 130.11,194.56 130.5,194.43 130.9,194.28 131.3,194.11 131.69,193.92 132.09,193.7 132.48,193.47 132.88,193.22 133.28,192.96 133.67,192.68 134.07,192.38 134.47,192.07 134.86,191.76 135.26,191.44 135.66,191.11 136.05,190.78 136.45,190.45 136.85,190.12 137.24,189.8 137.64,189.48 138.04,189.17 138.43,188.86 138.83,188.57 139.23,188.29 139.62,188.02 140.02,187.77 140.42,187.54 140.81,187.33 141.21,187.13 141.61,186.95 142,186.8 142.4,186.67 142.8,186.56 143.19,186.47 143.59,186.39 143.98,186.34 144.38,186.3 144.78,186.27 145.17,186.26 145.57,186.26 145.97,186.26 146.36,186.26 146.76,186.26 147.16,186.26 147.55,186.25 147.95,186.23 148.35,186.2 148.74,186.15 149.14,186.08 149.54,185.99 149.93,185.88 150.33,185.74 150.73,185.57 151.12,185.38 151.52,185.17 151.92,184.93 152.31,184.67 152.71,184.38 153.11,184.07 153.5,183.74 153.9,183.4 154.3,183.05 154.69,182.69 155.09,182.32 155.48,181.95 155.88,181.58 156.28,181.22 156.67,180.86 157.07,180.51 157.47,180.17 157.86,179.85 158.26,179.54 158.66,179.24 159.05,178.96 159.45,178.69 159.85,178.43 160.24,178.18 160.64,177.94 161.04,177.71 161.43,177.48 161.83,177.25 162.23,177.02 162.62,176.79 163.02,176.55 163.42,176.31 163.81,176.05 164.21,175.79 164.61,175.52 165,175.24 165.4,174.95 165.8,174.65 166.19,174.33 166.59,174.01 166.98,173.67 167.38,173.33 167.78,172.99 168.17,172.63 168.57,172.27 168.97,171.91 169.36,171.54 169.76,171.17 170.16,170.81 170.55,170.44 170.95,170.08 171.35,169.72 171.74,169.37 172.14,169.02 172.54,168.68 172.93,168.34 173.33,168.01 173.73,167.69 174.12,167.36 174.52,167.04 174.92,166.72 175.31,166.39 175.71,166.06 176.11,165.72 176.5,165.37 176.9,165.01 177.3,164.63 177.69,164.22 178.09,163.8 178.48,163.36 178.88,162.89 179.28,162.39 179.67,161.87 180.07,161.32 180.47,160.75 180.86,160.15 181.26,159.53 181.66,158.9 182.05,158.24 182.45,157.57 182.85,156.89 183.24,156.21 183.64,155.52 184.04,154.84 184.43,154.16 184.83,153.49 185.23,152.84 185.62,152.19 186.02,151.57 186.42,150.96 186.81,150.37 187.21,149.8 187.61,149.25 188,148.72 188.4,148.21 188.8,147.71 189.19,147.22 189.59,146.74 189.98,146.28 190.38,145.81 190.78,145.35 191.17,144.88 191.57,144.41 191.97,143.93 192.36,143.45 192.76,142.95 193.16,142.44 193.55,141.91 193.95,141.36 194.35,140.8 194.74,140.22 195.14,139.63 195.54,139.01 195.93,138.38 196.33,137.74 196.73,137.08 197.12,136.41 197.52,135.73 197.92,135.04 198.31,134.34 198.71,133.64 199.11,132.93 199.5,132.23 199.9,131.53 200.3,130.83 200.69,130.13 201.09,129.44 201.48,128.76 201.88,128.09 202.28,127.42 202.67,126.77 203.07,126.12 203.47,125.48 203.86,124.85 204.26,124.22 204.66,123.59 205.05,122.97 205.45,122.35 205.85,121.73 206.24,121.11 206.64,120.48 207.04,119.84 207.43,119.2 207.83,118.55 208.23,117.89 208.62,117.23 209.02,116.55 209.42,115.86 209.81,115.17 210.21,114.47 210.61,113.77 211,113.06 211.4,112.35 211.8,111.64 212.19,110.93 212.59,110.23 212.98,109.54 213.38,108.85 213.78,108.17 214.17,107.5 214.57,106.84 214.97,106.19 215.36,105.55 215.76,104.93 216.16,104.31 216.55,103.71 216.95,103.12 217.35,102.53 217.74,101.95 218.14,101.38 218.54,100.82 218.93,100.26 219.33,99.71 219.73,99.16 220.12,98.61 220.52,98.07 220.92,97.53 221.31,96.99 221.71,96.46 222.11,95.93 222.5,95.41 222.9,94.9 223.3,94.38 223.69,93.88 224.09,93.38 224.48,92.88 224.88,92.4 225.28,91.92 225.67,91.44 226.07,90.97 226.47,90.51 226.86,90.05 227.26,89.6 227.66,89.16 228.05,88.72 228.45,88.28 228.85,87.85 229.24,87.43 229.64,87.01 230.04,86.59 230.43,86.17 230.83,85.76 231.23,85.35 231.62,84.94 232.02,84.54 232.42,84.13 232.81,83.73 233.21,83.32 233.61,82.92 234,82.51 234.4,82.1 234.8,81.68 235.19,81.26 235.59,80.84 235.98,80.41 236.38,79.98 236.78,79.54 237.17,79.09 237.57,78.63 237.97,78.17 238.36,77.7 238.76,77.21 239.16,76.72 239.55,76.23 239.95,75.72 240.35,75.2 240.74,74.67 241.14,74.13 241.54,73.58 241.93,73.02 242.33,72.45 242.73,71.87 243.12,71.28 243.52,70.67 243.92,70.05 244.31,69.43 244.71,68.79 245.11,68.14 245.5,67.48 245.9,66.81 246.3,66.14 246.69,65.46 247.09,64.79 247.48,64.11 247.88,63.44 248.28,62.77 248.67,62.12 249.07,61.48 249.47,60.85 249.86,60.25 250.26,59.67 250.66,59.11 251.05,58.59 251.45,58.1 251.85,57.64 252.24,57.2 252.64,56.81 253.04,56.44 253.43,56.11 253.83,55.81 254.23,55.55 254.62,55.31 255.02,55.1 255.42,54.91 255.81,54.75 256.21,54.62 256.61,54.5 257,54.4 257.4,54.31 257.8,54.24 258.19,54.18 258.59,54.13 258.98,54.1 259.38,54.06 259.78,54.04 260.17,54.02 260.57,54 260.97,53.99 261.36,53.98 261.76,53.97" stroke-dasharray="none" stroke="rgb(31,120,180)" stroke-width="0.75" opacity="1" stroke-opacity="1" fill="none"/>
          </g>
          <g id="Fig:densplot_01.xyplot.lines.group.4.panel.1.1.1">
            <polyline id="Fig:densplot_01.xyplot.lines.group.4.panel.1.1.1.1" points="59.08,53.98 59.47,53.99 59.87,54.01 60.27,54.03 60.66,54.06 61.06,54.1 61.46,54.14 61.85,54.2 62.25,54.27 62.65,54.36 63.04,54.48 63.44,54.62 63.83,54.79 64.23,55 64.63,55.24 65.02,55.55 65.42,55.91 65.82,56.34 66.21,56.84 66.61,57.42 67.01,58.1 67.4,58.87 67.8,59.77 68.2,60.79 68.59,61.94 68.99,63.22 69.39,64.65 69.78,66.22 70.18,67.96 70.58,69.88 70.97,71.96 71.37,74.2 71.77,76.61 72.16,79.18 72.56,81.9 72.95,84.78 73.35,87.83 73.75,91 74.14,94.3 74.54,97.7 74.94,101.2 75.33,104.79 75.73,108.46 76.13,112.18 76.52,115.94 76.92,119.72 77.32,123.52 77.71,127.31 78.11,131.08 78.51,134.82 78.9,138.52 79.3,142.16 79.7,145.74 80.09,149.25 80.49,152.69 80.89,156.04 81.28,159.28 81.68,162.43 82.08,165.48 82.47,168.44 82.87,171.29 83.26,174.05 83.66,176.68 84.06,179.21 84.45,181.65 84.85,183.98 85.25,186.22 85.64,188.37 86.04,190.42 86.44,192.37 86.83,194.24 87.23,196.03 87.63,197.74 88.02,199.38 88.42,200.95 88.82,202.45 89.21,203.87 89.61,205.24 90.01,206.55 90.4,207.8 90.8,209 91.2,210.15 91.59,211.25 91.99,212.29 92.38,213.29 92.78,214.24 93.18,215.14 93.57,215.99 93.97,216.8 94.37,217.54 94.76,218.24 95.16,218.88 95.56,219.46 95.95,219.99 96.35,220.47 96.75,220.88 97.14,221.22 97.54,221.51 97.94,221.74 98.33,221.92 98.73,222.04 99.13,222.11 99.52,222.12 99.92,222.09 100.32,222.02 100.71,221.92 101.11,221.78 101.51,221.63 101.9,221.45 102.3,221.25 102.69,221.04 103.09,220.82 103.49,220.6 103.88,220.39 104.28,220.17 104.68,219.95 105.07,219.75 105.47,219.54 105.87,219.34 106.26,219.15 106.66,218.95 107.06,218.75 107.45,218.55 107.85,218.35 108.25,218.13 108.64,217.9 109.04,217.66 109.44,217.39 109.83,217.11 110.23,216.8 110.63,216.46 111.02,216.1 111.42,215.71 111.82,215.29 112.21,214.85 112.61,214.38 113,213.88 113.4,213.35 113.8,212.8 114.19,212.23 114.59,211.65 114.99,211.05 115.38,210.44 115.78,209.81 116.18,209.19 116.57,208.56 116.97,207.94 117.37,207.32 117.76,206.71 118.16,206.12 118.56,205.55 118.95,205 119.35,204.48 119.75,203.98 120.14,203.52 120.54,203.08 120.94,202.69 121.33,202.33 121.73,202.01 122.12,201.72 122.52,201.46 122.92,201.24 123.31,201.05 123.71,200.89 124.11,200.75 124.5,200.63 124.9,200.52 125.3,200.43 125.69,200.34 126.09,200.26 126.49,200.18 126.88,200.09 127.28,200 127.68,199.89 128.07,199.78 128.47,199.64 128.87,199.49 129.26,199.32 129.66,199.12 130.06,198.91 130.45,198.67 130.85,198.42 131.25,198.14 131.64,197.83 132.04,197.51 132.43,197.17 132.83,196.81 133.23,196.43 133.62,196.04 134.02,195.64 134.42,195.23 134.81,194.81 135.21,194.38 135.61,193.95 136,193.51 136.4,193.08 136.8,192.64 137.19,192.21 137.59,191.78 137.99,191.36 138.38,190.93 138.78,190.52 139.18,190.11 139.57,189.71 139.97,189.32 140.37,188.93 140.76,188.55 141.16,188.18 141.55,187.82 141.95,187.47 142.35,187.12 142.74,186.79 143.14,186.47 143.54,186.16 143.93,185.85 144.33,185.56 144.73,185.28 145.12,185 145.52,184.74 145.92,184.48 146.31,184.23 146.71,183.98 147.11,183.74 147.5,183.5 147.9,183.26 148.3,183.02 148.69,182.77 149.09,182.52 149.49,182.26 149.88,181.99 150.28,181.72 150.68,181.43 151.07,181.13 151.47,180.82 151.86,180.49 152.26,180.16 152.66,179.82 153.05,179.47 153.45,179.11 153.85,178.74 154.24,178.38 154.64,178.01 155.04,177.65 155.43,177.29 155.83,176.93 156.23,176.59 156.62,176.25 157.02,175.93 157.42,175.62 157.81,175.33 158.21,175.05 158.61,174.79 159,174.55 159.4,174.32 159.8,174.11 160.19,173.91 160.59,173.73 160.98,173.56 161.38,173.4 161.78,173.24 162.17,173.1 162.57,172.95 162.97,172.81 163.36,172.67 163.76,172.52 164.16,172.37 164.55,172.22 164.95,172.05 165.35,171.88 165.74,171.69 166.14,171.49 166.54,171.28 166.93,171.06 167.33,170.82 167.73,170.58 168.12,170.32 168.52,170.06 168.92,169.79 169.31,169.51 169.71,169.22 170.11,168.94 170.5,168.65 170.9,168.36 171.29,168.08 171.69,167.79 172.09,167.51 172.48,167.23 172.88,166.95 173.28,166.67 173.67,166.39 174.07,166.11 174.47,165.83 174.86,165.53 175.26,165.23 175.66,164.91 176.05,164.58 176.45,164.24 176.85,163.86 177.24,163.47 177.64,163.05 178.04,162.61 178.43,162.14 178.83,161.64 179.23,161.12 179.62,160.57 180.02,159.99 180.41,159.4 180.81,158.78 181.21,158.15 181.6,157.51 182,156.85 182.4,156.2 182.79,155.54 183.19,154.88 183.59,154.23 183.98,153.59 184.38,152.97 184.78,152.35 185.17,151.76 185.57,151.18 185.97,150.62 186.36,150.08 186.76,149.55 187.16,149.05 187.55,148.55 187.95,148.07 188.35,147.6 188.74,147.13 189.14,146.67 189.54,146.22 189.93,145.76 190.33,145.3 190.72,144.84 191.12,144.37 191.52,143.89 191.91,143.4 192.31,142.91 192.71,142.4 193.1,141.89 193.5,141.36 193.9,140.82 194.29,140.28 194.69,139.72 195.09,139.16 195.48,138.58 195.88,138 196.28,137.41 196.67,136.81 197.07,136.21 197.47,135.6 197.86,134.99 198.26,134.37 198.66,133.74 199.05,133.12 199.45,132.48 199.85,131.85 200.24,131.2 200.64,130.56 201.03,129.91 201.43,129.26 201.83,128.61 202.22,127.96 202.62,127.3 203.02,126.64 203.41,125.99 203.81,125.33 204.21,124.67 204.6,124.01 205,123.35 205.4,122.69 205.79,122.03 206.19,121.37 206.59,120.72 206.98,120.06 207.38,119.4 207.78,118.75 208.17,118.09 208.57,117.43 208.97,116.77 209.36,116.12 209.76,115.46 210.15,114.8 210.55,114.14 210.95,113.47 211.34,112.81 211.74,112.15 212.14,111.48 212.53,110.81 212.93,110.15 213.33,109.48 213.72,108.82 214.12,108.16 214.52,107.5 214.91,106.85 215.31,106.2 215.71,105.55 216.1,104.91 216.5,104.28 216.9,103.66 217.29,103.04 217.69,102.43 218.09,101.83 218.48,101.24 218.88,100.66 219.28,100.08 219.67,99.52 220.07,98.97 220.46,98.42 220.86,97.88 221.26,97.35 221.65,96.83 222.05,96.32 222.45,95.82 222.84,95.32 223.24,94.83 223.64,94.35 224.03,93.87 224.43,93.4 224.83,92.93 225.22,92.47 225.62,92 226.02,91.54 226.41,91.09 226.81,90.63 227.21,90.17 227.6,89.71 228,89.25 228.4,88.79 228.79,88.32 229.19,87.85 229.58,87.38 229.98,86.91 230.38,86.43 230.77,85.96 231.17,85.47 231.57,84.99 231.96,84.51 232.36,84.03 232.76,83.54 233.15,83.06 233.55,82.58 233.95,82.1 234.34,81.63 234.74,81.16 235.14,80.69 235.53,80.23 235.93,79.78 236.33,79.33 236.72,78.88 237.12,78.44 237.52,78.01 237.91,77.57 238.31,77.15 238.71,76.72 239.1,76.3 239.5,75.87 239.89,75.44 240.29,75.01 240.69,74.58 241.08,74.14 241.48,73.68 241.88,73.22 242.27,72.75 242.67,72.26 243.07,71.75 243.46,71.22 243.86,70.67 244.26,70.1 244.65,69.51 245.05,68.9 245.45,68.27 245.84,67.62 246.24,66.95 246.64,66.28 247.03,65.59 247.43,64.89 247.83,64.19 248.22,63.49 248.62,62.8 249.01,62.11 249.41,61.45 249.81,60.8 250.2,60.17 250.6,59.56 251,58.99 251.39,58.45 251.79,57.95 252.19,57.48 252.58,57.04 252.98,56.64 253.38,56.28 253.77,55.96 254.17,55.67 254.57,55.41 254.96,55.18 255.36,54.98 255.76,54.81 256.15,54.66 256.55,54.53 256.95,54.42 257.34,54.33 257.74,54.26 258.14,54.2 258.53,54.14 258.93,54.1 259.32,54.07 259.72,54.04 260.12,54.02 260.51,54 260.91,53.99 261.31,53.98 261.7,53.97" stroke-dasharray="none" stroke="rgb(31,120,180)" stroke-width="0.75" opacity="1" stroke-opacity="1" fill="none"/>
          </g>
          <g id="Fig:densplot_01.xyplot.lines.group.5.panel.1.1.1">
            <polyline id="Fig:densplot_01.xyplot.lines.group.5.panel.1.1.1.1" points="59.06,53.99 59.45,54 59.85,54.02 60.25,54.05 60.64,54.08 61.04,54.12 61.44,54.17 61.83,54.24 62.23,54.32 62.63,54.42 63.02,54.55 63.42,54.71 63.82,54.9 64.21,55.13 64.61,55.41 65.01,55.74 65.4,56.14 65.8,56.62 66.2,57.17 66.59,57.81 66.99,58.54 67.39,59.38 67.78,60.36 68.18,61.46 68.58,62.7 68.97,64.09 69.37,65.62 69.77,67.3 70.16,69.15 70.56,71.2 70.96,73.41 71.35,75.78 71.75,78.32 72.15,81.02 72.54,83.88 72.94,86.9 73.34,90.07 73.73,93.37 74.13,96.79 74.53,100.3 74.92,103.91 75.32,107.6 75.72,111.35 76.11,115.15 76.51,118.97 76.91,122.8 77.3,126.63 77.7,130.45 78.1,134.23 78.49,137.97 78.89,141.65 79.29,145.26 79.68,148.8 80.08,152.27 80.48,155.65 80.87,158.93 81.27,162.11 81.66,165.19 82.06,168.17 82.46,171.05 82.85,173.83 83.25,176.51 83.65,179.08 84.04,181.55 84.44,183.92 84.84,186.19 85.23,188.38 85.63,190.47 86.03,192.47 86.42,194.37 86.82,196.19 87.22,197.93 87.61,199.59 88.01,201.17 88.41,202.69 88.8,204.13 89.2,205.49 89.6,206.79 89.99,208.02 90.39,209.2 90.79,210.32 91.18,211.39 91.58,212.39 91.98,213.34 92.37,214.24 92.77,215.09 93.17,215.89 93.56,216.63 93.96,217.32 94.36,217.96 94.75,218.53 95.15,219.05 95.55,219.52 95.94,219.93 96.34,220.27 96.74,220.56 97.13,220.78 97.53,220.95 97.93,221.05 98.32,221.1 98.72,221.1 99.12,221.05 99.51,220.95 99.91,220.8 100.31,220.61 100.7,220.38 101.1,220.13 101.5,219.85 101.89,219.54 102.29,219.22 102.69,218.89 103.08,218.55 103.48,218.2 103.88,217.85 104.27,217.5 104.67,217.15 105.07,216.8 105.46,216.45 105.86,216.1 106.25,215.76 106.65,215.42 107.05,215.07 107.44,214.72 107.84,214.37 108.24,214 108.63,213.62 109.03,213.23 109.43,212.82 109.82,212.4 110.22,211.95 110.62,211.49 111.01,210.99 111.41,210.48 111.81,209.95 112.2,209.39 112.6,208.82 113,208.22 113.39,207.61 113.79,206.99 114.19,206.36 114.58,205.72 114.98,205.08 115.38,204.44 115.77,203.81 116.17,203.19 116.57,202.59 116.96,202 117.36,201.43 117.76,200.89 118.15,200.38 118.55,199.89 118.95,199.44 119.34,199.01 119.74,198.62 120.14,198.26 120.53,197.93 120.93,197.63 121.33,197.36 121.72,197.11 122.12,196.89 122.52,196.69 122.91,196.51 123.31,196.35 123.71,196.21 124.1,196.08 124.5,195.96 124.9,195.85 125.29,195.75 125.69,195.64 126.09,195.55 126.48,195.45 126.88,195.35 127.28,195.24 127.67,195.13 128.07,195.01 128.47,194.89 128.86,194.75 129.26,194.61 129.66,194.45 130.05,194.28 130.45,194.1 130.84,193.91 131.24,193.71 131.64,193.49 132.03,193.27 132.43,193.04 132.83,192.81 133.22,192.57 133.62,192.33 134.02,192.09 134.41,191.85 134.81,191.61 135.21,191.38 135.6,191.16 136,190.95 136.4,190.74 136.79,190.54 137.19,190.35 137.59,190.17 137.98,190 138.38,189.84 138.78,189.68 139.17,189.53 139.57,189.38 139.97,189.24 140.36,189.1 140.76,188.97 141.16,188.84 141.55,188.71 141.95,188.58 142.35,188.46 142.74,188.34 143.14,188.23 143.54,188.12 143.93,188.01 144.33,187.91 144.73,187.81 145.12,187.71 145.52,187.62 145.92,187.53 146.31,187.44 146.71,187.35 147.11,187.25 147.5,187.16 147.9,187.05 148.3,186.94 148.69,186.81 149.09,186.68 149.49,186.52 149.88,186.35 150.28,186.15 150.68,185.93 151.07,185.69 151.47,185.43 151.87,185.14 152.26,184.82 152.66,184.48 153.06,184.11 153.45,183.72 153.85,183.32 154.25,182.9 154.64,182.47 155.04,182.03 155.43,181.59 155.83,181.15 156.23,180.71 156.62,180.28 157.02,179.86 157.42,179.46 157.81,179.08 158.21,178.71 158.61,178.37 159,178.06 159.4,177.76 159.8,177.48 160.19,177.23 160.59,176.99 160.99,176.77 161.38,176.57 161.78,176.38 162.18,176.19 162.57,176.01 162.97,175.83 163.37,175.65 163.76,175.47 164.16,175.27 164.56,175.07 164.95,174.86 165.35,174.64 165.75,174.41 166.14,174.16 166.54,173.9 166.94,173.62 167.33,173.33 167.73,173.04 168.13,172.73 168.52,172.41 168.92,172.09 169.32,171.76 169.71,171.44 170.11,171.11 170.51,170.78 170.9,170.45 171.3,170.12 171.7,169.8 172.09,169.48 172.49,169.16 172.89,168.84 173.28,168.52 173.68,168.2 174.08,167.87 174.47,167.54 174.87,167.2 175.27,166.85 175.66,166.48 176.06,166.1 176.46,165.7 176.85,165.28 177.25,164.84 177.65,164.38 178.04,163.89 178.44,163.39 178.84,162.86 179.23,162.31 179.63,161.74 180.02,161.16 180.42,160.56 180.82,159.95 181.21,159.33 181.61,158.7 182.01,158.07 182.4,157.43 182.8,156.8 183.2,156.17 183.59,155.54 183.99,154.92 184.39,154.31 184.78,153.7 185.18,153.11 185.58,152.53 185.97,151.95 186.37,151.39 186.77,150.83 187.16,150.29 187.56,149.75 187.96,149.22 188.35,148.7 188.75,148.18 189.15,147.66 189.54,147.15 189.94,146.63 190.34,146.12 190.73,145.6 191.13,145.08 191.53,144.55 191.92,144.02 192.32,143.47 192.72,142.93 193.11,142.37 193.51,141.8 193.91,141.23 194.3,140.65 194.7,140.06 195.1,139.46 195.49,138.85 195.89,138.24 196.29,137.62 196.68,136.99 197.08,136.36 197.48,135.73 197.87,135.09 198.27,134.44 198.67,133.79 199.06,133.14 199.46,132.48 199.86,131.82 200.25,131.16 200.65,130.49 201.05,129.81 201.44,129.14 201.84,128.45 202.24,127.77 202.63,127.08 203.03,126.38 203.43,125.69 203.82,124.99 204.22,124.28 204.61,123.58 205.01,122.88 205.41,122.18 205.8,121.48 206.2,120.78 206.6,120.08 206.99,119.39 207.39,118.7 207.79,118.02 208.18,117.33 208.58,116.66 208.98,115.99 209.37,115.32 209.77,114.66 210.17,114 210.56,113.35 210.96,112.7 211.36,112.06 211.75,111.42 212.15,110.78 212.55,110.15 212.94,109.51 213.34,108.89 213.74,108.26 214.13,107.63 214.53,107.01 214.93,106.39 215.32,105.77 215.72,105.15 216.12,104.53 216.51,103.91 216.91,103.29 217.31,102.67 217.7,102.05 218.1,101.43 218.5,100.81 218.89,100.19 219.29,99.58 219.69,98.97 220.08,98.36 220.48,97.76 220.88,97.17 221.27,96.58 221.67,96.01 222.07,95.44 222.46,94.88 222.86,94.34 223.26,93.81 223.65,93.28 224.05,92.78 224.45,92.28 224.84,91.8 225.24,91.33 225.64,90.88 226.03,90.43 226.43,90 226.83,89.57 227.22,89.16 227.62,88.75 228.01,88.36 228.41,87.97 228.81,87.58 229.2,87.2 229.6,86.83 230,86.46 230.39,86.09 230.79,85.73 231.19,85.36 231.58,85 231.98,84.64 232.38,84.27 232.77,83.9 233.17,83.53 233.57,83.16 233.96,82.78 234.36,82.4 234.76,82.01 235.15,81.61 235.55,81.21 235.95,80.8 236.34,80.38 236.74,79.95 237.14,79.51 237.53,79.06 237.93,78.59 238.33,78.12 238.72,77.63 239.12,77.14 239.52,76.63 239.91,76.1 240.31,75.57 240.71,75.02 241.1,74.45 241.5,73.88 241.9,73.29 242.29,72.69 242.69,72.07 243.09,71.44 243.48,70.8 243.88,70.15 244.28,69.49 244.67,68.81 245.07,68.13 245.47,67.43 245.86,66.74 246.26,66.03 246.66,65.33 247.05,64.63 247.45,63.93 247.85,63.24 248.24,62.56 248.64,61.9 249.04,61.25 249.43,60.62 249.83,60.02 250.23,59.44 250.62,58.89 251.02,58.37 251.42,57.89 251.81,57.44 252.21,57.02 252.6,56.63 253,56.28 253.4,55.96 253.79,55.68 254.19,55.43 254.59,55.2 254.98,55.01 255.38,54.83 255.78,54.68 256.17,54.55 256.57,54.45 256.97,54.35 257.36,54.28 257.76,54.21 258.16,54.16 258.55,54.11 258.95,54.08 259.35,54.05 259.74,54.03 260.14,54.01 260.54,53.99 260.93,53.98 261.33,53.97 261.73,53.97" stroke-dasharray="none" stroke="rgb(31,120,180)" stroke-width="0.75" opacity="1" stroke-opacity="1" fill="none"/>
          </g>
          <g id="Fig:densplot_01.xyplot.lines.group.6.panel.1.1.1">
            <polyline id="Fig:densplot_01.xyplot.lines.group.6.panel.1.1.1.1" points="59.13,53.99 59.52,54 59.92,54.02 60.32,54.05 60.71,54.08 61.11,54.12 61.51,54.17 61.9,54.24 62.3,54.32 62.7,54.42 63.09,54.55 63.49,54.71 63.89,54.91 64.28,55.14 64.68,55.42 65.08,55.76 65.47,56.16 65.87,56.64 66.27,57.21 66.66,57.86 67.06,58.62 67.46,59.48 67.85,60.46 68.25,61.59 68.65,62.86 69.04,64.29 69.44,65.87 69.84,67.61 70.23,69.52 70.63,71.6 71.03,73.9 71.42,76.36 71.82,79 72.22,81.81 72.61,84.79 73.01,87.92 73.41,91.22 73.8,94.68 74.2,98.26 74.6,101.95 74.99,105.75 75.39,109.62 75.79,113.57 76.18,117.58 76.58,121.61 76.98,125.67 77.37,129.71 77.77,133.75 78.17,137.75 78.56,141.7 78.96,145.58 79.35,149.38 79.75,153.09 80.15,156.71 80.54,160.22 80.94,163.62 81.34,166.89 81.73,170.02 82.13,173.03 82.53,175.92 82.92,178.67 83.32,181.3 83.72,183.81 84.11,186.18 84.51,188.42 84.91,190.55 85.3,192.58 85.7,194.5 86.1,196.33 86.49,198.06 86.89,199.69 87.29,201.23 87.68,202.7 88.08,204.1 88.48,205.43 88.87,206.69 89.27,207.88 89.67,209.01 90.06,210.09 90.46,211.11 90.86,212.08 91.25,212.99 91.65,213.86 92.05,214.68 92.44,215.44 92.84,216.16 93.24,216.83 93.63,217.46 94.03,218.03 94.43,218.57 94.82,219.04 95.22,219.47 95.62,219.85 96.01,220.18 96.41,220.47 96.81,220.7 97.2,220.88 97.6,221.01 98,221.09 98.39,221.12 98.79,221.11 99.19,221.05 99.58,220.95 99.98,220.8 100.38,220.6 100.77,220.37 101.17,220.1 101.57,219.8 101.96,219.47 102.36,219.11 102.76,218.73 103.15,218.32 103.55,217.89 103.95,217.45 104.34,216.99 104.74,216.53 105.14,216.06 105.53,215.58 105.93,215.11 106.33,214.63 106.72,214.16 107.12,213.69 107.52,213.22 107.91,212.76 108.31,212.31 108.71,211.86 109.1,211.41 109.5,210.97 109.9,210.53 110.29,210.09 110.69,209.66 111.09,209.22 111.48,208.78 111.88,208.33 112.28,207.88 112.67,207.43 113.07,206.96 113.46,206.49 113.86,206 114.26,205.51 114.65,205.01 115.05,204.51 115.45,203.99 115.84,203.47 116.24,202.95 116.64,202.43 117.03,201.91 117.43,201.39 117.83,200.88 118.22,200.38 118.62,199.88 119.02,199.4 119.41,198.93 119.81,198.48 120.21,198.04 120.6,197.61 121,197.2 121.4,196.81 121.79,196.43 122.19,196.07 122.59,195.71 122.98,195.38 123.38,195.05 123.78,194.74 124.17,194.44 124.57,194.15 124.97,193.87 125.36,193.6 125.76,193.35 126.16,193.1 126.55,192.88 126.95,192.66 127.35,192.46 127.74,192.27 128.14,192.1 128.54,191.94 128.93,191.8 129.33,191.67 129.73,191.56 130.12,191.45 130.52,191.36 130.92,191.28 131.31,191.2 131.71,191.14 132.11,191.07 132.5,191.02 132.9,190.96 133.3,190.9 133.69,190.84 134.09,190.77 134.49,190.69 134.88,190.61 135.28,190.52 135.68,190.42 136.07,190.3 136.47,190.17 136.87,190.03 137.26,189.87 137.66,189.7 138.06,189.51 138.45,189.31 138.85,189.1 139.25,188.87 139.64,188.63 140.04,188.39 140.44,188.13 140.83,187.86 141.23,187.6 141.63,187.33 142.02,187.06 142.42,186.79 142.82,186.53 143.21,186.27 143.61,186.02 144.01,185.79 144.4,185.56 144.8,185.35 145.2,185.15 145.59,184.97 145.99,184.8 146.39,184.64 146.78,184.49 147.18,184.36 147.57,184.23 147.97,184.12 148.37,184 148.76,183.89 149.16,183.78 149.56,183.67 149.95,183.55 150.35,183.42 150.75,183.29 151.14,183.14 151.54,182.98 151.94,182.8 152.33,182.61 152.73,182.4 153.13,182.17 153.52,181.92 153.92,181.66 154.32,181.37 154.71,181.08 155.11,180.77 155.51,180.44 155.9,180.11 156.3,179.77 156.7,179.43 157.09,179.09 157.49,178.75 157.89,178.42 158.28,178.09 158.68,177.78 159.08,177.48 159.47,177.2 159.87,176.93 160.27,176.68 160.66,176.44 161.06,176.23 161.46,176.02 161.85,175.83 162.25,175.65 162.65,175.48 163.04,175.32 163.44,175.16 163.84,175 164.23,174.83 164.63,174.66 165.03,174.48 165.42,174.3 165.82,174.1 166.22,173.88 166.61,173.65 167.01,173.41 167.41,173.15 167.8,172.88 168.2,172.6 168.6,172.31 168.99,172.01 169.39,171.7 169.79,171.38 170.18,171.06 170.58,170.74 170.98,170.42 171.37,170.1 171.77,169.79 172.17,169.48 172.56,169.16 172.96,168.86 173.36,168.55 173.75,168.24 174.15,167.94 174.55,167.63 174.94,167.31 175.34,166.99 175.74,166.66 176.13,166.32 176.53,165.96 176.93,165.59 177.32,165.19 177.72,164.78 178.12,164.35 178.51,163.9 178.91,163.42 179.31,162.92 179.7,162.39 180.1,161.85 180.5,161.28 180.89,160.69 181.29,160.09 181.68,159.47 182.08,158.83 182.48,158.18 182.87,157.53 183.27,156.86 183.67,156.2 184.06,155.53 184.46,154.87 184.86,154.21 185.25,153.56 185.65,152.92 186.05,152.29 186.44,151.67 186.84,151.07 187.24,150.48 187.63,149.91 188.03,149.36 188.43,148.81 188.82,148.29 189.22,147.77 189.62,147.27 190.01,146.77 190.41,146.28 190.81,145.79 191.2,145.31 191.6,144.83 192,144.34 192.39,143.85 192.79,143.34 193.19,142.83 193.58,142.31 193.98,141.78 194.38,141.23 194.77,140.67 195.17,140.1 195.57,139.5 195.96,138.89 196.36,138.27 196.76,137.63 197.15,136.97 197.55,136.3 197.95,135.62 198.34,134.92 198.74,134.21 199.14,133.5 199.53,132.77 199.93,132.04 200.33,131.3 200.72,130.56 201.12,129.82 201.52,129.09 201.91,128.35 202.31,127.62 202.71,126.9 203.1,126.18 203.5,125.47 203.9,124.77 204.29,124.08 204.69,123.4 205.09,122.72 205.48,122.06 205.88,121.4 206.28,120.75 206.67,120.1 207.07,119.46 207.47,118.82 207.86,118.19 208.26,117.55 208.66,116.91 209.05,116.27 209.45,115.63 209.85,114.98 210.24,114.33 210.64,113.68 211.04,113.03 211.43,112.37 211.83,111.72 212.23,111.06 212.62,110.4 213.02,109.75 213.42,109.1 213.81,108.45 214.21,107.81 214.61,107.17 215,106.54 215.4,105.91 215.79,105.29 216.19,104.68 216.59,104.08 216.98,103.48 217.38,102.88 217.78,102.3 218.17,101.71 218.57,101.14 218.97,100.57 219.36,100 219.76,99.44 220.16,98.89 220.55,98.34 220.95,97.79 221.35,97.25 221.74,96.71 222.14,96.18 222.54,95.66 222.93,95.14 223.33,94.62 223.73,94.11 224.12,93.61 224.52,93.11 224.92,92.62 225.31,92.13 225.71,91.65 226.11,91.18 226.5,90.71 226.9,90.25 227.3,89.79 227.69,89.34 228.09,88.89 228.49,88.45 228.88,88.01 229.28,87.57 229.68,87.14 230.07,86.71 230.47,86.28 230.87,85.85 231.26,85.43 231.66,85.01 232.06,84.58 232.45,84.16 232.85,83.74 233.25,83.32 233.64,82.9 234.04,82.47 234.44,82.05 234.83,81.62 235.23,81.19 235.63,80.76 236.02,80.33 236.42,79.89 236.82,79.45 237.21,79.01 237.61,78.55 238.01,78.1 238.4,77.64 238.8,77.17 239.2,76.7 239.59,76.21 239.99,75.72 240.39,75.22 240.78,74.72 241.18,74.2 241.58,73.67 241.97,73.13 242.37,72.58 242.77,72.01 243.16,71.43 243.56,70.84 243.96,70.23 244.35,69.61 244.75,68.98 245.15,68.33 245.54,67.67 245.94,67 246.34,66.32 246.73,65.64 247.13,64.96 247.53,64.27 247.92,63.59 248.32,62.91 248.72,62.25 249.11,61.59 249.51,60.96 249.9,60.34 250.3,59.75 250.7,59.19 251.09,58.66 251.49,58.15 251.89,57.68 252.28,57.24 252.68,56.84 253.08,56.47 253.47,56.13 253.87,55.83 254.27,55.56 254.66,55.32 255.06,55.11 255.46,54.92 255.85,54.76 256.25,54.62 256.65,54.5 257.04,54.4 257.44,54.32 257.84,54.24 258.23,54.18 258.63,54.14 259.03,54.1 259.42,54.07 259.82,54.04 260.22,54.02 260.61,54 261.01,53.99 261.41,53.98 261.8,53.97" stroke-dasharray="none" stroke="rgb(31,120,180)" stroke-width="0.75" opacity="1" stroke-opacity="1" fill="none"/>
          </g>
          <g id="Fig:densplot_01.xyplot.lines.group.7.panel.1.1.1">
            <polyline id="Fig:densplot_01.xyplot.lines.group.7.panel.1.1.1.1" points="59.08,53.99 59.48,54 59.88,54.02 60.27,54.04 60.67,54.07 61.07,54.11 61.46,54.16 61.86,54.22 62.26,54.3 62.65,54.4 63.05,54.53 63.45,54.68 63.84,54.87 64.24,55.09 64.64,55.36 65.03,55.68 65.43,56.07 65.83,56.53 66.22,57.07 66.62,57.7 67.02,58.42 67.41,59.24 67.81,60.19 68.21,61.28 68.6,62.51 69,63.87 69.39,65.39 69.79,67.06 70.19,68.89 70.58,70.92 70.98,73.12 71.38,75.5 71.77,78.04 72.17,80.75 72.57,83.61 72.96,86.64 73.36,89.84 73.76,93.18 74.15,96.64 74.55,100.21 74.95,103.87 75.34,107.62 75.74,111.44 76.14,115.31 76.53,119.21 76.93,123.12 77.33,127.04 77.72,130.93 78.12,134.8 78.52,138.61 78.91,142.35 79.31,146.02 79.71,149.62 80.1,153.12 80.5,156.52 80.9,159.82 81.29,162.99 81.69,166.05 82.09,168.99 82.48,171.83 82.88,174.55 83.28,177.17 83.67,179.67 84.07,182.05 84.46,184.34 84.86,186.53 85.26,188.64 85.65,190.65 86.05,192.59 86.45,194.45 86.84,196.23 87.24,197.94 87.64,199.6 88.03,201.19 88.43,202.73 88.83,204.21 89.22,205.64 89.62,207 90.02,208.32 90.41,209.58 90.81,210.79 91.21,211.95 91.6,213.04 92,214.06 92.4,215.02 92.79,215.92 93.19,216.74 93.59,217.5 93.98,218.18 94.38,218.77 94.78,219.28 95.17,219.71 95.57,220.06 95.97,220.33 96.36,220.53 96.76,220.65 97.16,220.68 97.55,220.64 97.95,220.54 98.34,220.38 98.74,220.17 99.14,219.91 99.53,219.61 99.93,219.26 100.33,218.89 100.72,218.5 101.12,218.09 101.52,217.67 101.91,217.25 102.31,216.83 102.71,216.41 103.1,216 103.5,215.6 103.9,215.22 104.29,214.85 104.69,214.49 105.09,214.16 105.48,213.84 105.88,213.53 106.28,213.24 106.67,212.96 107.07,212.69 107.47,212.43 107.86,212.17 108.26,211.92 108.66,211.67 109.05,211.41 109.45,211.16 109.85,210.89 110.24,210.62 110.64,210.34 111.04,210.05 111.43,209.74 111.83,209.42 112.23,209.08 112.62,208.73 113.02,208.35 113.41,207.96 113.81,207.55 114.21,207.12 114.6,206.67 115,206.21 115.4,205.73 115.79,205.23 116.19,204.73 116.59,204.22 116.98,203.7 117.38,203.18 117.78,202.65 118.17,202.13 118.57,201.62 118.97,201.11 119.36,200.62 119.76,200.14 120.16,199.68 120.55,199.23 120.95,198.81 121.35,198.42 121.74,198.04 122.14,197.7 122.54,197.38 122.93,197.09 123.33,196.83 123.73,196.6 124.12,196.4 124.52,196.23 124.92,196.09 125.31,195.97 125.71,195.88 126.11,195.81 126.5,195.77 126.9,195.74 127.29,195.74 127.69,195.74 128.09,195.75 128.48,195.77 128.88,195.79 129.28,195.81 129.67,195.82 130.07,195.82 130.47,195.8 130.86,195.77 131.26,195.71 131.66,195.63 132.05,195.52 132.45,195.39 132.85,195.23 133.24,195.04 133.64,194.82 134.04,194.57 134.43,194.3 134.83,194 135.23,193.68 135.62,193.34 136.02,192.98 136.42,192.61 136.81,192.24 137.21,191.85 137.61,191.46 138,191.08 138.4,190.69 138.8,190.32 139.19,189.95 139.59,189.59 139.99,189.25 140.38,188.93 140.78,188.62 141.18,188.33 141.57,188.06 141.97,187.81 142.36,187.59 142.76,187.39 143.16,187.21 143.55,187.04 143.95,186.9 144.35,186.77 144.74,186.66 145.14,186.56 145.54,186.47 145.93,186.39 146.33,186.31 146.73,186.23 147.12,186.15 147.52,186.06 147.92,185.96 148.31,185.85 148.71,185.73 149.11,185.59 149.5,185.44 149.9,185.27 150.3,185.07 150.69,184.86 151.09,184.62 151.49,184.37 151.88,184.1 152.28,183.81 152.68,183.5 153.07,183.17 153.47,182.83 153.87,182.47 154.26,182.11 154.66,181.74 155.06,181.36 155.45,180.97 155.85,180.58 156.24,180.2 156.64,179.81 157.04,179.43 157.43,179.05 157.83,178.68 158.23,178.32 158.62,177.97 159.02,177.63 159.42,177.3 159.81,176.98 160.21,176.67 160.61,176.38 161,176.1 161.4,175.83 161.8,175.57 162.19,175.33 162.59,175.09 162.99,174.86 163.38,174.63 163.78,174.42 164.18,174.2 164.57,174 164.97,173.79 165.37,173.58 165.76,173.37 166.16,173.16 166.56,172.95 166.95,172.73 167.35,172.5 167.75,172.27 168.14,172.03 168.54,171.79 168.94,171.53 169.33,171.27 169.73,171 170.13,170.73 170.52,170.44 170.92,170.15 171.31,169.86 171.71,169.55 172.11,169.24 172.5,168.93 172.9,168.61 173.3,168.28 173.69,167.95 174.09,167.61 174.49,167.27 174.88,166.91 175.28,166.55 175.68,166.17 176.07,165.78 176.47,165.38 176.87,164.96 177.26,164.53 177.66,164.07 178.06,163.6 178.45,163.11 178.85,162.6 179.25,162.07 179.64,161.52 180.04,160.95 180.44,160.37 180.83,159.77 181.23,159.15 181.63,158.52 182.02,157.89 182.42,157.24 182.82,156.59 183.21,155.94 183.61,155.29 184.01,154.64 184.4,153.99 184.8,153.36 185.2,152.73 185.59,152.11 185.99,151.5 186.38,150.91 186.78,150.33 187.18,149.75 187.57,149.2 187.97,148.65 188.37,148.11 188.76,147.58 189.16,147.05 189.56,146.53 189.95,146.02 190.35,145.51 190.75,145 191.14,144.5 191.54,143.99 191.94,143.49 192.33,142.98 192.73,142.47 193.13,141.96 193.52,141.45 193.92,140.94 194.32,140.42 194.71,139.9 195.11,139.37 195.51,138.84 195.9,138.3 196.3,137.76 196.7,137.21 197.09,136.66 197.49,136.09 197.89,135.52 198.28,134.93 198.68,134.34 199.08,133.73 199.47,133.12 199.87,132.49 200.26,131.85 200.66,131.21 201.06,130.55 201.45,129.88 201.85,129.21 202.25,128.53 202.64,127.85 203.04,127.16 203.44,126.47 203.83,125.78 204.23,125.09 204.63,124.41 205.02,123.72 205.42,123.03 205.82,122.35 206.21,121.67 206.61,120.99 207.01,120.32 207.4,119.64 207.8,118.97 208.2,118.29 208.59,117.62 208.99,116.94 209.39,116.26 209.78,115.58 210.18,114.89 210.58,114.21 210.97,113.52 211.37,112.83 211.77,112.15 212.16,111.46 212.56,110.78 212.96,110.09 213.35,109.42 213.75,108.75 214.15,108.08 214.54,107.42 214.94,106.77 215.33,106.13 215.73,105.49 216.13,104.87 216.52,104.25 216.92,103.64 217.32,103.03 217.71,102.43 218.11,101.84 218.51,101.25 218.9,100.67 219.3,100.09 219.7,99.52 220.09,98.95 220.49,98.39 220.89,97.83 221.28,97.28 221.68,96.73 222.08,96.19 222.47,95.66 222.87,95.13 223.27,94.61 223.66,94.09 224.06,93.58 224.46,93.09 224.85,92.59 225.25,92.11 225.65,91.63 226.04,91.16 226.44,90.7 226.84,90.24 227.23,89.79 227.63,89.34 228.03,88.89 228.42,88.45 228.82,88.02 229.21,87.58 229.61,87.15 230.01,86.73 230.4,86.3 230.8,85.88 231.2,85.45 231.59,85.03 231.99,84.62 232.39,84.2 232.78,83.78 233.18,83.37 233.58,82.95 233.97,82.54 234.37,82.13 234.77,81.71 235.16,81.29 235.56,80.87 235.96,80.45 236.35,80.02 236.75,79.58 237.15,79.15 237.54,78.7 237.94,78.24 238.34,77.78 238.73,77.3 239.13,76.82 239.53,76.33 239.92,75.82 240.32,75.3 240.72,74.78 241.11,74.23 241.51,73.68 241.91,73.11 242.3,72.54 242.7,71.94 243.1,71.34 243.49,70.72 243.89,70.09 244.28,69.45 244.68,68.79 245.08,68.13 245.47,67.46 245.87,66.77 246.27,66.09 246.66,65.4 247.06,64.71 247.46,64.02 247.85,63.34 248.25,62.67 248.65,62.01 249.04,61.37 249.44,60.74 249.84,60.14 250.23,59.56 250.63,59.01 251.03,58.49 251.42,58 251.82,57.54 252.22,57.11 252.61,56.72 253.01,56.36 253.41,56.04 253.8,55.75 254.2,55.49 254.6,55.26 254.99,55.05 255.39,54.87 255.79,54.72 256.18,54.58 256.58,54.47 256.98,54.38 257.37,54.3 257.77,54.23 258.16,54.17 258.56,54.12 258.96,54.09 259.35,54.06 259.75,54.03 260.15,54.01 260.54,54 260.94,53.99 261.34,53.98 261.73,53.97" stroke-dasharray="none" stroke="rgb(31,120,180)" stroke-width="0.75" opacity="1" stroke-opacity="1" fill="none"/>
          </g>
          <g id="Fig:densplot_01.xyplot.lines.group.8.panel.1.1.1">
            <polyline id="Fig:densplot_01.xyplot.lines.group.8.panel.1.1.1.1" points="59.03,53.99 59.43,54 59.82,54.02 60.22,54.04 60.62,54.07 61.01,54.11 61.41,54.16 61.81,54.23 62.2,54.31 62.6,54.41 63,54.53 63.39,54.69 63.79,54.88 64.19,55.11 64.58,55.38 64.98,55.71 65.38,56.11 65.77,56.58 66.17,57.13 66.57,57.77 66.96,58.51 67.36,59.35 67.76,60.32 68.15,61.44 68.55,62.7 68.95,64.11 69.35,65.67 69.74,67.4 70.14,69.29 70.54,71.38 70.93,73.66 71.33,76.12 71.73,78.75 72.12,81.55 72.52,84.52 72.92,87.65 73.31,90.97 73.71,94.41 74.11,97.99 74.5,101.67 74.9,105.44 75.3,109.3 75.69,113.22 76.09,117.19 76.49,121.17 76.88,125.16 77.28,129.14 77.68,133.09 78.07,137 78.47,140.85 78.87,144.62 79.26,148.3 79.66,151.9 80.06,155.4 80.45,158.79 80.85,162.08 81.25,165.23 81.64,168.27 82.04,171.2 82.44,174.02 82.84,176.73 83.23,179.33 83.63,181.83 84.03,184.22 84.42,186.51 84.82,188.71 85.22,190.83 85.61,192.87 86.01,194.83 86.41,196.71 86.8,198.51 87.2,200.25 87.6,201.91 87.99,203.51 88.39,205.05 88.79,206.52 89.18,207.91 89.58,209.23 89.98,210.49 90.37,211.69 90.77,212.81 91.17,213.87 91.56,214.86 91.96,215.76 92.36,216.6 92.75,217.36 93.15,218.06 93.55,218.68 93.94,219.23 94.34,219.7 94.74,220.1 95.13,220.42 95.53,220.68 95.93,220.87 96.33,220.99 96.72,221.05 97.12,221.03 97.52,220.96 97.91,220.83 98.31,220.64 98.71,220.41 99.1,220.13 99.5,219.8 99.9,219.44 100.29,219.04 100.69,218.62 101.09,218.18 101.48,217.72 101.88,217.25 102.28,216.77 102.67,216.3 103.07,215.83 103.47,215.36 103.86,214.91 104.26,214.48 104.66,214.06 105.05,213.66 105.45,213.29 105.85,212.94 106.24,212.6 106.64,212.28 107.04,211.98 107.43,211.69 107.83,211.42 108.23,211.15 108.62,210.88 109.02,210.62 109.42,210.34 109.82,210.06 110.21,209.76 110.61,209.44 111.01,209.11 111.4,208.75 111.8,208.36 112.2,207.95 112.59,207.52 112.99,207.05 113.39,206.56 113.78,206.05 114.18,205.51 114.58,204.96 114.97,204.39 115.37,203.81 115.77,203.21 116.16,202.61 116.56,202.01 116.96,201.41 117.35,200.82 117.75,200.24 118.15,199.67 118.54,199.12 118.94,198.59 119.34,198.08 119.73,197.61 120.13,197.16 120.53,196.74 120.92,196.36 121.32,196.01 121.72,195.7 122.11,195.43 122.51,195.19 122.91,194.99 123.31,194.82 123.7,194.7 124.1,194.61 124.5,194.54 124.89,194.5 125.29,194.49 125.69,194.5 126.08,194.53 126.48,194.57 126.88,194.62 127.27,194.67 127.67,194.73 128.07,194.78 128.46,194.82 128.86,194.85 129.26,194.85 129.65,194.84 130.05,194.81 130.45,194.75 130.84,194.66 131.24,194.54 131.64,194.39 132.03,194.2 132.43,193.99 132.83,193.74 133.22,193.47 133.62,193.17 134.02,192.85 134.41,192.5 134.81,192.13 135.21,191.76 135.6,191.37 136,190.97 136.4,190.58 136.8,190.18 137.19,189.79 137.59,189.41 137.99,189.05 138.38,188.7 138.78,188.38 139.18,188.07 139.57,187.79 139.97,187.55 140.37,187.33 140.76,187.14 141.16,186.98 141.56,186.84 141.95,186.74 142.35,186.66 142.75,186.61 143.14,186.58 143.54,186.57 143.94,186.57 144.33,186.58 144.73,186.6 145.13,186.61 145.52,186.63 145.92,186.64 146.32,186.64 146.71,186.62 147.11,186.59 147.51,186.53 147.9,186.45 148.3,186.35 148.7,186.21 149.09,186.06 149.49,185.87 149.89,185.66 150.29,185.42 150.68,185.15 151.08,184.86 151.48,184.55 151.87,184.23 152.27,183.89 152.67,183.53 153.06,183.16 153.46,182.79 153.86,182.42 154.25,182.04 154.65,181.67 155.05,181.3 155.44,180.94 155.84,180.59 156.24,180.25 156.63,179.91 157.03,179.6 157.43,179.29 157.82,179 158.22,178.72 158.62,178.46 159.01,178.21 159.41,177.97 159.81,177.74 160.2,177.51 160.6,177.3 161,177.09 161.39,176.89 161.79,176.69 162.19,176.49 162.58,176.29 162.98,176.09 163.38,175.88 163.78,175.67 164.17,175.45 164.57,175.22 164.97,174.98 165.36,174.73 165.76,174.47 166.16,174.2 166.55,173.92 166.95,173.63 167.35,173.33 167.74,173.02 168.14,172.7 168.54,172.38 168.93,172.05 169.33,171.72 169.73,171.38 170.12,171.04 170.52,170.71 170.92,170.37 171.31,170.03 171.71,169.69 172.11,169.35 172.5,169.02 172.9,168.68 173.3,168.34 173.69,168 174.09,167.66 174.49,167.31 174.88,166.95 175.28,166.58 175.68,166.2 176.07,165.81 176.47,165.4 176.87,164.98 177.27,164.54 177.66,164.08 178.06,163.6 178.46,163.1 178.85,162.59 179.25,162.06 179.65,161.51 180.04,160.94 180.44,160.36 180.84,159.77 181.23,159.18 181.63,158.57 182.03,157.96 182.42,157.34 182.82,156.73 183.22,156.11 183.61,155.5 184.01,154.89 184.41,154.29 184.8,153.69 185.2,153.1 185.6,152.51 185.99,151.93 186.39,151.36 186.79,150.8 187.18,150.24 187.58,149.69 187.98,149.14 188.37,148.6 188.77,148.06 189.17,147.53 189.56,147 189.96,146.47 190.36,145.95 190.76,145.43 191.15,144.9 191.55,144.38 191.95,143.86 192.34,143.33 192.74,142.81 193.14,142.28 193.53,141.75 193.93,141.22 194.33,140.68 194.72,140.14 195.12,139.59 195.52,139.04 195.91,138.48 196.31,137.91 196.71,137.33 197.1,136.75 197.5,136.15 197.9,135.55 198.29,134.93 198.69,134.3 199.09,133.66 199.48,133.02 199.88,132.36 200.28,131.69 200.67,131.02 201.07,130.33 201.47,129.64 201.86,128.94 202.26,128.24 202.66,127.54 203.06,126.83 203.45,126.12 203.85,125.42 204.25,124.71 204.64,124 205.04,123.3 205.44,122.6 205.83,121.9 206.23,121.21 206.63,120.52 207.02,119.84 207.42,119.15 207.82,118.48 208.21,117.8 208.61,117.13 209.01,116.46 209.4,115.79 209.8,115.12 210.2,114.46 210.59,113.79 210.99,113.13 211.39,112.47 211.78,111.81 212.18,111.15 212.58,110.5 212.97,109.85 213.37,109.2 213.77,108.55 214.16,107.91 214.56,107.27 214.96,106.64 215.35,106 215.75,105.38 216.15,104.76 216.55,104.14 216.94,103.52 217.34,102.91 217.74,102.3 218.13,101.7 218.53,101.09 218.93,100.49 219.32,99.9 219.72,99.3 220.12,98.71 220.51,98.12 220.91,97.54 221.31,96.96 221.7,96.38 222.1,95.81 222.5,95.25 222.89,94.69 223.29,94.15 223.69,93.61 224.08,93.08 224.48,92.56 224.88,92.06 225.27,91.56 225.67,91.07 226.07,90.6 226.46,90.13 226.86,89.68 227.26,89.24 227.65,88.81 228.05,88.39 228.45,87.97 228.84,87.57 229.24,87.17 229.64,86.78 230.04,86.39 230.43,86.01 230.83,85.63 231.23,85.26 231.62,84.88 232.02,84.51 232.42,84.14 232.81,83.77 233.21,83.39 233.61,83.01 234,82.63 234.4,82.24 234.8,81.84 235.19,81.44 235.59,81.02 235.99,80.6 236.38,80.17 236.78,79.73 237.18,79.27 237.57,78.81 237.97,78.33 238.37,77.84 238.76,77.34 239.16,76.82 239.56,76.3 239.95,75.76 240.35,75.21 240.75,74.64 241.14,74.07 241.54,73.48 241.94,72.88 242.33,72.27 242.73,71.64 243.13,71.01 243.53,70.36 243.92,69.7 244.32,69.04 244.72,68.36 245.11,67.68 245.51,66.99 245.91,66.29 246.3,65.6 246.7,64.9 247.1,64.21 247.49,63.52 247.89,62.85 248.29,62.18 248.68,61.53 249.08,60.91 249.48,60.3 249.87,59.71 250.27,59.15 250.67,58.62 251.06,58.13 251.46,57.67 251.86,57.23 252.25,56.83 252.65,56.47 253.05,56.13 253.44,55.83 253.84,55.57 254.24,55.33 254.63,55.12 255.03,54.93 255.43,54.77 255.82,54.63 256.22,54.51 256.62,54.41 257.02,54.32 257.41,54.25 257.81,54.19 258.21,54.14 258.6,54.1 259,54.07 259.4,54.04 259.79,54.02 260.19,54 260.59,53.99 260.98,53.98 261.38,53.97 261.78,53.97" stroke-dasharray="none" stroke="rgb(31,120,180)" stroke-width="0.75" opacity="1" stroke-opacity="1" fill="none"/>
          </g>
          <g id="Fig:densplot_01.xyplot.lines.group.9.panel.1.1.1">
            <polyline id="Fig:densplot_01.xyplot.lines.group.9.panel.1.1.1.1" points="59,53.98 59.4,53.99 59.79,54.01 60.19,54.03 60.59,54.06 60.98,54.1 61.38,54.14 61.78,54.2 62.17,54.27 62.57,54.36 62.97,54.48 63.37,54.62 63.76,54.8 64.16,55.02 64.56,55.27 64.95,55.58 65.35,55.96 65.75,56.41 66.14,56.93 66.54,57.55 66.94,58.26 67.33,59.08 67.73,60.01 68.13,61.1 68.52,62.33 68.92,63.71 69.32,65.25 69.72,66.95 70.11,68.81 70.51,70.87 70.91,73.13 71.3,75.58 71.7,78.2 72.1,81 72.49,83.97 72.89,87.1 73.29,90.42 73.68,93.89 74.08,97.49 74.48,101.2 74.87,105.02 75.27,108.93 75.67,112.9 76.06,116.94 76.46,121 76.86,125.08 77.26,129.15 77.65,133.2 78.05,137.22 78.45,141.18 78.84,145.07 79.24,148.87 79.64,152.59 80.03,156.21 80.43,159.73 80.83,163.14 81.22,166.42 81.62,169.57 82.02,172.6 82.41,175.51 82.81,178.3 83.21,180.98 83.61,183.53 84,185.96 84.4,188.27 84.8,190.47 85.19,192.58 85.59,194.59 85.99,196.5 86.38,198.32 86.78,200.04 87.18,201.67 87.57,203.23 87.97,204.72 88.37,206.13 88.76,207.46 89.16,208.72 89.56,209.91 89.95,211.04 90.35,212.09 90.75,213.09 91.15,214.02 91.54,214.89 91.94,215.69 92.34,216.42 92.73,217.09 93.13,217.71 93.53,218.26 93.92,218.75 94.32,219.18 94.72,219.53 95.11,219.83 95.51,220.07 95.91,220.25 96.3,220.37 96.7,220.44 97.1,220.44 97.49,220.38 97.89,220.27 98.29,220.11 98.69,219.91 99.08,219.66 99.48,219.36 99.88,219.02 100.27,218.65 100.67,218.25 101.07,217.82 101.46,217.37 101.86,216.91 102.26,216.44 102.65,215.96 103.05,215.48 103.45,215 103.84,214.54 104.24,214.09 104.64,213.65 105.04,213.23 105.43,212.84 105.83,212.47 106.23,212.13 106.62,211.81 107.02,211.51 107.42,211.23 107.81,210.97 108.21,210.73 108.61,210.5 109,210.27 109.4,210.04 109.8,209.82 110.19,209.58 110.59,209.33 110.99,209.06 111.38,208.77 111.78,208.46 112.18,208.12 112.58,207.75 112.97,207.34 113.37,206.9 113.77,206.44 114.16,205.94 114.56,205.42 114.96,204.87 115.35,204.3 115.75,203.71 116.15,203.11 116.54,202.51 116.94,201.9 117.34,201.29 117.73,200.69 118.13,200.1 118.53,199.53 118.92,198.98 119.32,198.45 119.72,197.94 120.12,197.46 120.51,197.01 120.91,196.6 121.31,196.23 121.7,195.89 122.1,195.58 122.5,195.31 122.89,195.08 123.29,194.88 123.69,194.72 124.08,194.6 124.48,194.51 124.88,194.45 125.27,194.41 125.67,194.4 126.07,194.41 126.47,194.44 126.86,194.49 127.26,194.54 127.66,194.6 128.05,194.66 128.45,194.71 128.85,194.76 129.24,194.8 129.64,194.83 130.04,194.84 130.43,194.83 130.83,194.81 131.23,194.76 131.62,194.7 132.02,194.61 132.42,194.51 132.81,194.39 133.21,194.25 133.61,194.1 134.01,193.94 134.4,193.76 134.8,193.57 135.2,193.37 135.59,193.17 135.99,192.95 136.39,192.73 136.78,192.5 137.18,192.26 137.58,192.01 137.97,191.75 138.37,191.49 138.77,191.22 139.16,190.94 139.56,190.66 139.96,190.36 140.36,190.05 140.75,189.74 141.15,189.42 141.55,189.09 141.94,188.76 142.34,188.41 142.74,188.07 143.13,187.71 143.53,187.35 143.93,186.99 144.32,186.63 144.72,186.27 145.12,185.9 145.51,185.54 145.91,185.18 146.31,184.82 146.7,184.46 147.1,184.11 147.5,183.77 147.9,183.43 148.29,183.11 148.69,182.79 149.09,182.47 149.48,182.17 149.88,181.88 150.28,181.6 150.67,181.33 151.07,181.07 151.47,180.82 151.86,180.57 152.26,180.34 152.66,180.11 153.05,179.9 153.45,179.68 153.85,179.48 154.24,179.28 154.64,179.08 155.04,178.89 155.44,178.69 155.83,178.51 156.23,178.32 156.63,178.14 157.02,177.95 157.42,177.77 157.82,177.59 158.21,177.41 158.61,177.24 159.01,177.06 159.4,176.88 159.8,176.71 160.2,176.53 160.59,176.36 160.99,176.18 161.39,176.01 161.79,175.84 162.18,175.66 162.58,175.49 162.98,175.31 163.37,175.14 163.77,174.96 164.17,174.78 164.56,174.59 164.96,174.4 165.36,174.21 165.75,174.02 166.15,173.82 166.55,173.61 166.94,173.39 167.34,173.17 167.74,172.93 168.13,172.69 168.53,172.44 168.93,172.17 169.33,171.89 169.72,171.59 170.12,171.28 170.52,170.96 170.91,170.61 171.31,170.25 171.71,169.88 172.1,169.48 172.5,169.07 172.9,168.65 173.29,168.21 173.69,167.75 174.09,167.28 174.48,166.8 174.88,166.3 175.28,165.8 175.67,165.29 176.07,164.77 176.47,164.25 176.87,163.73 177.26,163.2 177.66,162.67 178.06,162.14 178.45,161.61 178.85,161.08 179.25,160.56 179.64,160.04 180.04,159.51 180.44,159 180.83,158.48 181.23,157.96 181.63,157.45 182.02,156.94 182.42,156.44 182.82,155.93 183.22,155.43 183.61,154.93 184.01,154.43 184.41,153.94 184.8,153.45 185.2,152.96 185.6,152.48 185.99,152 186.39,151.52 186.79,151.05 187.18,150.58 187.58,150.12 187.98,149.65 188.37,149.19 188.77,148.73 189.17,148.27 189.56,147.8 189.96,147.33 190.36,146.85 190.76,146.37 191.15,145.88 191.55,145.39 191.95,144.88 192.34,144.36 192.74,143.84 193.14,143.3 193.53,142.75 193.93,142.19 194.33,141.62 194.72,141.03 195.12,140.44 195.52,139.83 195.91,139.22 196.31,138.6 196.71,137.96 197.11,137.32 197.5,136.67 197.9,136.02 198.3,135.35 198.69,134.68 199.09,134.01 199.49,133.33 199.88,132.65 200.28,131.97 200.68,131.29 201.07,130.6 201.47,129.92 201.87,129.23 202.26,128.55 202.66,127.86 203.06,127.18 203.45,126.5 203.85,125.82 204.25,125.13 204.65,124.45 205.04,123.77 205.44,123.09 205.84,122.41 206.23,121.73 206.63,121.05 207.03,120.37 207.42,119.68 207.82,119 208.22,118.31 208.61,117.61 209.01,116.92 209.41,116.22 209.8,115.53 210.2,114.83 210.6,114.13 210.99,113.43 211.39,112.73 211.79,112.03 212.19,111.33 212.58,110.63 212.98,109.93 213.38,109.24 213.77,108.55 214.17,107.86 214.57,107.18 214.96,106.5 215.36,105.83 215.76,105.16 216.15,104.5 216.55,103.85 216.95,103.21 217.34,102.57 217.74,101.94 218.14,101.32 218.54,100.71 218.93,100.11 219.33,99.52 219.73,98.94 220.12,98.37 220.52,97.82 220.92,97.27 221.31,96.73 221.71,96.2 222.11,95.68 222.5,95.17 222.9,94.67 223.3,94.18 223.69,93.69 224.09,93.22 224.49,92.75 224.88,92.28 225.28,91.82 225.68,91.37 226.08,90.91 226.47,90.47 226.87,90.03 227.27,89.59 227.66,89.15 228.06,88.72 228.46,88.29 228.85,87.86 229.25,87.44 229.65,87.02 230.04,86.61 230.44,86.19 230.84,85.78 231.23,85.38 231.63,84.97 232.03,84.57 232.43,84.17 232.82,83.77 233.22,83.37 233.62,82.97 234.01,82.57 234.41,82.17 234.81,81.76 235.2,81.35 235.6,80.94 236,80.53 236.39,80.1 236.79,79.68 237.19,79.24 237.58,78.8 237.98,78.35 238.38,77.9 238.77,77.43 239.17,76.96 239.57,76.48 239.97,75.98 240.36,75.47 240.76,74.96 241.16,74.43 241.55,73.88 241.95,73.32 242.35,72.75 242.74,72.16 243.14,71.56 243.54,70.94 243.93,70.3 244.33,69.65 244.73,68.99 245.12,68.31 245.52,67.62 245.92,66.93 246.31,66.22 246.71,65.52 247.11,64.81 247.51,64.1 247.9,63.4 248.3,62.71 248.7,62.04 249.09,61.38 249.49,60.74 249.89,60.13 250.28,59.54 250.68,58.98 251.08,58.45 251.47,57.96 251.87,57.5 252.27,57.07 252.66,56.68 253.06,56.32 253.46,56 253.86,55.72 254.25,55.46 254.65,55.23 255.05,55.03 255.44,54.85 255.84,54.7 256.24,54.57 256.63,54.46 257.03,54.37 257.43,54.29 257.82,54.22 258.22,54.16 258.62,54.12 259.01,54.08 259.41,54.05 259.81,54.03 260.2,54.01 260.6,54 261,53.98 261.4,53.98 261.79,53.97" stroke-dasharray="none" stroke="rgb(31,120,180)" stroke-width="0.75" opacity="1" stroke-opacity="1" fill="none"/>
          </g>
          <g id="Fig:densplot_01.xyplot.lines.group.10.panel.1.1.1">
            <polyline id="Fig:densplot_01.xyplot.lines.group.10.panel.1.1.1.1" points="59.17,53.99 59.57,54.01 59.96,54.03 60.36,54.05 60.75,54.09 61.15,54.13 61.55,54.18 61.94,54.25 62.34,54.34 62.74,54.45 63.13,54.58 63.53,54.75 63.92,54.94 64.32,55.18 64.72,55.47 65.11,55.82 65.51,56.24 65.91,56.73 66.3,57.29 66.7,57.95 67.09,58.7 67.49,59.57 67.89,60.56 68.28,61.68 68.68,62.94 69.08,64.33 69.47,65.87 69.87,67.56 70.26,69.43 70.66,71.47 71.06,73.66 71.45,76.01 71.85,78.52 72.24,81.17 72.64,83.98 73.04,86.94 73.43,90.03 73.83,93.23 74.23,96.54 74.62,99.94 75.02,103.42 75.41,106.97 75.81,110.57 76.21,114.21 76.6,117.86 77,121.53 77.4,125.19 77.79,128.83 78.19,132.44 78.58,136.01 78.98,139.52 79.38,142.98 79.77,146.37 80.17,149.7 80.57,152.95 80.96,156.1 81.36,159.16 81.75,162.14 82.15,165.03 82.55,167.84 82.94,170.55 83.34,173.17 83.74,175.69 84.13,178.12 84.53,180.47 84.92,182.74 85.32,184.92 85.72,187.03 86.11,189.06 86.51,191 86.91,192.88 87.3,194.69 87.7,196.44 88.09,198.12 88.49,199.75 88.89,201.3 89.28,202.8 89.68,204.24 90.08,205.62 90.47,206.95 90.87,208.22 91.26,209.43 91.66,210.58 92.06,211.67 92.45,212.69 92.85,213.66 93.25,214.56 93.64,215.4 94.04,216.16 94.43,216.85 94.83,217.47 95.23,218.01 95.62,218.49 96.02,218.91 96.42,219.25 96.81,219.52 97.21,219.72 97.6,219.86 98,219.95 98.4,219.98 98.79,219.97 99.19,219.91 99.59,219.81 99.98,219.68 100.38,219.52 100.77,219.34 101.17,219.14 101.57,218.93 101.96,218.71 102.36,218.49 102.75,218.26 103.15,218.04 103.55,217.82 103.94,217.61 104.34,217.4 104.74,217.19 105.13,216.99 105.53,216.79 105.92,216.59 106.32,216.38 106.72,216.17 107.11,215.95 107.51,215.72 107.91,215.47 108.3,215.2 108.7,214.9 109.09,214.58 109.49,214.24 109.89,213.86 110.28,213.45 110.68,213.01 111.08,212.54 111.47,212.04 111.87,211.52 112.26,210.97 112.66,210.4 113.06,209.81 113.45,209.21 113.85,208.6 114.25,207.99 114.64,207.39 115.04,206.79 115.43,206.2 115.83,205.63 116.23,205.07 116.62,204.55 117.02,204.04 117.42,203.57 117.81,203.12 118.21,202.71 118.6,202.33 119,201.98 119.4,201.67 119.79,201.38 120.19,201.12 120.59,200.9 120.98,200.7 121.38,200.54 121.77,200.4 122.17,200.28 122.57,200.18 122.96,200.11 123.36,200.06 123.76,200.02 124.15,200.01 124.55,200 124.94,200.01 125.34,200.03 125.74,200.06 126.13,200.09 126.53,200.13 126.93,200.16 127.32,200.2 127.72,200.22 128.11,200.24 128.51,200.25 128.91,200.25 129.3,200.22 129.7,200.18 130.1,200.12 130.49,200.03 130.89,199.92 131.28,199.78 131.68,199.61 132.08,199.41 132.47,199.19 132.87,198.94 133.27,198.66 133.66,198.36 134.06,198.03 134.45,197.68 134.85,197.31 135.25,196.93 135.64,196.54 136.04,196.13 136.43,195.72 136.83,195.31 137.23,194.9 137.62,194.5 138.02,194.1 138.42,193.72 138.81,193.35 139.21,192.99 139.6,192.65 140,192.34 140.4,192.03 140.79,191.75 141.19,191.48 141.59,191.23 141.98,190.99 142.38,190.77 142.77,190.55 143.17,190.34 143.57,190.13 143.96,189.92 144.36,189.71 144.76,189.49 145.15,189.26 145.55,189.03 145.94,188.78 146.34,188.52 146.74,188.25 147.13,187.97 147.53,187.68 147.93,187.37 148.32,187.05 148.72,186.73 149.11,186.4 149.51,186.06 149.91,185.72 150.3,185.38 150.7,185.04 151.1,184.7 151.49,184.36 151.89,184.03 152.28,183.7 152.68,183.37 153.08,183.06 153.47,182.75 153.87,182.45 154.27,182.15 154.66,181.87 155.06,181.59 155.45,181.32 155.85,181.06 156.25,180.8 156.64,180.56 157.04,180.32 157.44,180.08 157.83,179.85 158.23,179.63 158.62,179.41 159.02,179.19 159.42,178.98 159.81,178.76 160.21,178.54 160.61,178.31 161,178.07 161.4,177.82 161.79,177.56 162.19,177.29 162.59,177 162.98,176.69 163.38,176.36 163.78,176.01 164.17,175.64 164.57,175.24 164.96,174.83 165.36,174.4 165.76,173.95 166.15,173.48 166.55,173 166.95,172.52 167.34,172.02 167.74,171.53 168.13,171.04 168.53,170.55 168.93,170.08 169.32,169.62 169.72,169.17 170.11,168.74 170.51,168.33 170.91,167.94 171.3,167.57 171.7,167.23 172.1,166.9 172.49,166.59 172.89,166.29 173.28,166.01 173.68,165.73 174.08,165.47 174.47,165.2 174.87,164.93 175.27,164.66 175.66,164.38 176.06,164.09 176.45,163.78 176.85,163.45 177.25,163.1 177.64,162.74 178.04,162.35 178.44,161.93 178.83,161.5 179.23,161.04 179.62,160.55 180.02,160.05 180.42,159.52 180.81,158.97 181.21,158.41 181.61,157.84 182,157.24 182.4,156.64 182.79,156.03 183.19,155.42 183.59,154.79 183.98,154.17 184.38,153.55 184.78,152.93 185.17,152.31 185.57,151.7 185.96,151.09 186.36,150.49 186.76,149.9 187.15,149.31 187.55,148.74 187.95,148.17 188.34,147.61 188.74,147.06 189.13,146.51 189.53,145.97 189.93,145.43 190.32,144.89 190.72,144.36 191.12,143.82 191.51,143.28 191.91,142.74 192.3,142.19 192.7,141.63 193.1,141.07 193.49,140.49 193.89,139.91 194.29,139.31 194.68,138.71 195.08,138.1 195.47,137.48 195.87,136.85 196.27,136.22 196.66,135.58 197.06,134.93 197.46,134.29 197.85,133.64 198.25,132.99 198.64,132.35 199.04,131.7 199.44,131.06 199.83,130.43 200.23,129.79 200.63,129.16 201.02,128.54 201.42,127.92 201.81,127.3 202.21,126.68 202.61,126.07 203,125.45 203.4,124.84 203.79,124.22 204.19,123.6 204.59,122.98 204.98,122.35 205.38,121.72 205.78,121.08 206.17,120.43 206.57,119.78 206.96,119.12 207.36,118.46 207.76,117.79 208.15,117.11 208.55,116.43 208.95,115.75 209.34,115.06 209.74,114.38 210.13,113.69 210.53,113.01 210.93,112.32 211.32,111.65 211.72,110.97 212.12,110.3 212.51,109.64 212.91,108.99 213.3,108.34 213.7,107.7 214.1,107.06 214.49,106.43 214.89,105.81 215.29,105.19 215.68,104.58 216.08,103.97 216.47,103.37 216.87,102.77 217.27,102.18 217.66,101.58 218.06,100.99 218.46,100.4 218.85,99.81 219.25,99.23 219.64,98.65 220.04,98.08 220.44,97.51 220.83,96.94 221.23,96.38 221.63,95.83 222.02,95.28 222.42,94.74 222.81,94.22 223.21,93.7 223.61,93.18 224,92.68 224.4,92.19 224.8,91.7 225.19,91.23 225.59,90.76 225.98,90.31 226.38,89.86 226.78,89.41 227.17,88.98 227.57,88.55 227.97,88.13 228.36,87.72 228.76,87.31 229.15,86.91 229.55,86.51 229.95,86.11 230.34,85.72 230.74,85.33 231.14,84.95 231.53,84.56 231.93,84.18 232.32,83.8 232.72,83.42 233.12,83.04 233.51,82.66 233.91,82.28 234.31,81.9 234.7,81.51 235.1,81.12 235.49,80.73 235.89,80.33 236.29,79.93 236.68,79.53 237.08,79.12 237.47,78.7 237.87,78.27 238.27,77.84 238.66,77.4 239.06,76.95 239.46,76.49 239.85,76.02 240.25,75.53 240.64,75.04 241.04,74.52 241.44,74 241.83,73.46 242.23,72.9 242.63,72.33 243.02,71.74 243.42,71.13 243.81,70.5 244.21,69.86 244.61,69.2 245,68.53 245.4,67.84 245.8,67.15 246.19,66.45 246.59,65.74 246.98,65.03 247.38,64.32 247.78,63.62 248.17,62.92 248.57,62.24 248.97,61.57 249.36,60.93 249.76,60.31 250.15,59.71 250.55,59.14 250.95,58.6 251.34,58.09 251.74,57.63 252.14,57.19 252.53,56.79 252.93,56.42 253.32,56.09 253.72,55.79 254.12,55.52 254.51,55.28 254.91,55.08 255.31,54.89 255.7,54.73 256.1,54.6 256.49,54.48 256.89,54.38 257.29,54.3 257.68,54.23 258.08,54.18 258.48,54.13 258.87,54.09 259.27,54.06 259.66,54.03 260.06,54.01 260.46,54 260.85,53.99 261.25,53.98 261.65,53.97" stroke-dasharray="none" stroke="rgb(31,120,180)" stroke-width="0.75" opacity="1" stroke-opacity="1" fill="none"/>
          </g>
          <g id="Fig:densplot_01.xyplot.lines.group.11.panel.1.1.1">
            <polyline id="Fig:densplot_01.xyplot.lines.group.11.panel.1.1.1.1" points="59.11,53.99 59.5,54 59.9,54.02 60.3,54.04 60.69,54.07 61.09,54.11 61.49,54.16 61.88,54.23 62.28,54.3 62.68,54.4 63.07,54.53 63.47,54.68 63.87,54.87 64.26,55.09 64.66,55.36 65.06,55.69 65.45,56.08 65.85,56.54 66.25,57.08 66.64,57.71 67.04,58.42 67.44,59.25 67.83,60.2 68.23,61.29 68.63,62.51 69.02,63.87 69.42,65.38 69.81,67.04 70.21,68.87 70.61,70.89 71,73.08 71.4,75.44 71.8,77.96 72.19,80.65 72.59,83.49 72.99,86.5 73.38,89.67 73.78,92.98 74.18,96.4 74.57,99.93 74.97,103.55 75.37,107.26 75.76,111.03 76.16,114.86 76.56,118.71 76.95,122.58 77.35,126.44 77.75,130.29 78.14,134.11 78.54,137.88 78.94,141.58 79.33,145.23 79.73,148.79 80.12,152.27 80.52,155.67 80.92,158.96 81.31,162.14 81.71,165.22 82.11,168.19 82.5,171.06 82.9,173.83 83.3,176.49 83.69,179.04 84.09,181.48 84.49,183.83 84.88,186.08 85.28,188.24 85.68,190.3 86.07,192.29 86.47,194.17 86.87,195.97 87.26,197.69 87.66,199.34 88.06,200.91 88.45,202.41 88.85,203.84 89.25,205.19 89.64,206.47 90.04,207.7 90.43,208.86 90.83,209.96 91.23,211.01 91.62,211.99 92.02,212.91 92.42,213.78 92.81,214.59 93.21,215.35 93.61,216.05 94,216.7 94.4,217.29 94.8,217.82 95.19,218.29 95.59,218.71 95.99,219.07 96.38,219.37 96.78,219.62 97.18,219.8 97.57,219.93 97.97,220.01 98.37,220.03 98.76,220 99.16,219.93 99.56,219.82 99.95,219.66 100.35,219.47 100.74,219.25 101.14,219.01 101.54,218.74 101.93,218.46 102.33,218.16 102.73,217.85 103.12,217.54 103.52,217.22 103.92,216.9 104.31,216.58 104.71,216.26 105.11,215.94 105.5,215.62 105.9,215.3 106.3,214.98 106.69,214.66 107.09,214.33 107.49,214 107.88,213.67 108.28,213.32 108.68,212.97 109.07,212.61 109.47,212.23 109.87,211.85 110.26,211.45 110.66,211.03 111.05,210.6 111.45,210.15 111.85,209.69 112.24,209.21 112.64,208.71 113.04,208.2 113.43,207.67 113.83,207.13 114.23,206.57 114.62,206.01 115.02,205.43 115.42,204.85 115.81,204.26 116.21,203.68 116.61,203.09 117,202.51 117.4,201.94 117.8,201.38 118.19,200.84 118.59,200.32 118.99,199.82 119.38,199.35 119.78,198.91 120.18,198.49 120.57,198.1 120.97,197.76 121.36,197.45 121.76,197.17 122.16,196.93 122.55,196.73 122.95,196.56 123.35,196.42 123.74,196.32 124.14,196.24 124.54,196.19 124.93,196.17 125.33,196.16 125.73,196.17 126.12,196.19 126.52,196.22 126.92,196.26 127.31,196.29 127.71,196.32 128.11,196.34 128.5,196.35 128.9,196.34 129.3,196.32 129.69,196.27 130.09,196.2 130.49,196.11 130.88,196 131.28,195.87 131.68,195.71 132.07,195.53 132.47,195.33 132.86,195.12 133.26,194.9 133.66,194.67 134.05,194.43 134.45,194.18 134.85,193.94 135.24,193.69 135.64,193.45 136.04,193.21 136.43,192.98 136.83,192.75 137.23,192.53 137.62,192.31 138.02,192.1 138.42,191.89 138.81,191.68 139.21,191.47 139.61,191.27 140,191.05 140.4,190.84 140.8,190.61 141.19,190.38 141.59,190.14 141.99,189.9 142.38,189.64 142.78,189.37 143.17,189.09 143.57,188.8 143.97,188.51 144.36,188.21 144.76,187.9 145.16,187.59 145.55,187.28 145.95,186.96 146.35,186.65 146.74,186.33 147.14,186.03 147.54,185.72 147.93,185.43 148.33,185.14 148.73,184.85 149.12,184.58 149.52,184.31 149.92,184.05 150.31,183.81 150.71,183.56 151.11,183.33 151.5,183.1 151.9,182.88 152.3,182.66 152.69,182.44 153.09,182.23 153.48,182.02 153.88,181.81 154.28,181.6 154.67,181.38 155.07,181.17 155.47,180.96 155.86,180.74 156.26,180.53 156.66,180.31 157.05,180.09 157.45,179.87 157.85,179.65 158.24,179.43 158.64,179.2 159.04,178.98 159.43,178.76 159.83,178.53 160.23,178.3 160.62,178.07 161.02,177.83 161.42,177.59 161.81,177.35 162.21,177.09 162.61,176.84 163,176.57 163.4,176.29 163.79,176 164.19,175.71 164.59,175.4 164.98,175.07 165.38,174.74 165.78,174.4 166.17,174.04 166.57,173.67 166.97,173.29 167.36,172.9 167.76,172.51 168.16,172.11 168.55,171.71 168.95,171.3 169.35,170.89 169.74,170.49 170.14,170.09 170.54,169.69 170.93,169.31 171.33,168.93 171.73,168.56 172.12,168.2 172.52,167.86 172.92,167.52 173.31,167.2 173.71,166.88 174.1,166.57 174.5,166.27 174.9,165.97 175.29,165.66 175.69,165.36 176.09,165.05 176.48,164.73 176.88,164.41 177.28,164.06 177.67,163.71 178.07,163.34 178.47,162.95 178.86,162.55 179.26,162.12 179.66,161.67 180.05,161.2 180.45,160.72 180.85,160.21 181.24,159.69 181.64,159.16 182.04,158.6 182.43,158.03 182.83,157.45 183.23,156.86 183.62,156.27 184.02,155.66 184.41,155.05 184.81,154.44 185.21,153.82 185.6,153.2 186,152.59 186.4,151.98 186.79,151.37 187.19,150.77 187.59,150.18 187.98,149.59 188.38,149.01 188.78,148.43 189.17,147.87 189.57,147.31 189.97,146.75 190.36,146.2 190.76,145.66 191.16,145.11 191.55,144.57 191.95,144.03 192.35,143.48 192.74,142.93 193.14,142.38 193.54,141.82 193.93,141.25 194.33,140.68 194.73,140.11 195.12,139.52 195.52,138.93 195.91,138.33 196.31,137.72 196.71,137.11 197.1,136.49 197.5,135.87 197.9,135.24 198.29,134.61 198.69,133.97 199.09,133.33 199.48,132.69 199.88,132.04 200.28,131.39 200.67,130.74 201.07,130.08 201.47,129.42 201.86,128.75 202.26,128.08 202.66,127.41 203.05,126.73 203.45,126.05 203.85,125.36 204.24,124.67 204.64,123.98 205.04,123.28 205.43,122.58 205.83,121.87 206.22,121.17 206.62,120.46 207.02,119.75 207.41,119.04 207.81,118.33 208.21,117.62 208.6,116.91 209,116.21 209.4,115.5 209.79,114.8 210.19,114.1 210.59,113.41 210.98,112.73 211.38,112.04 211.78,111.37 212.17,110.7 212.57,110.04 212.97,109.39 213.36,108.74 213.76,108.1 214.16,107.47 214.55,106.84 214.95,106.22 215.35,105.6 215.74,104.98 216.14,104.37 216.53,103.76 216.93,103.15 217.33,102.55 217.72,101.94 218.12,101.34 218.52,100.74 218.91,100.14 219.31,99.54 219.71,98.95 220.1,98.36 220.5,97.78 220.9,97.2 221.29,96.63 221.69,96.07 222.09,95.52 222.48,94.98 222.88,94.45 223.28,93.93 223.67,93.42 224.07,92.93 224.47,92.45 224.86,91.99 225.26,91.53 225.66,91.09 226.05,90.66 226.45,90.23 226.84,89.82 227.24,89.42 227.64,89.02 228.03,88.63 228.43,88.24 228.83,87.85 229.22,87.47 229.62,87.08 230.02,86.7 230.41,86.32 230.81,85.93 231.21,85.54 231.6,85.14 232,84.75 232.4,84.34 232.79,83.94 233.19,83.52 233.59,83.11 233.98,82.68 234.38,82.26 234.78,81.83 235.17,81.39 235.57,80.95 235.97,80.5 236.36,80.05 236.76,79.59 237.15,79.13 237.55,78.67 237.95,78.2 238.34,77.72 238.74,77.24 239.14,76.76 239.53,76.27 239.93,75.77 240.33,75.27 240.72,74.76 241.12,74.24 241.52,73.71 241.91,73.17 242.31,72.62 242.71,72.07 243.1,71.49 243.5,70.9 243.9,70.31 244.29,69.69 244.69,69.07 245.09,68.43 245.48,67.78 245.88,67.12 246.28,66.45 246.67,65.77 247.07,65.09 247.46,64.41 247.86,63.73 248.26,63.06 248.65,62.39 249.05,61.74 249.45,61.1 249.84,60.49 250.24,59.89 250.64,59.32 251.03,58.78 251.43,58.27 251.83,57.79 252.22,57.35 252.62,56.94 253.02,56.56 253.41,56.21 253.81,55.9 254.21,55.62 254.6,55.38 255,55.16 255.4,54.96 255.79,54.79 256.19,54.65 256.59,54.53 256.98,54.42 257.38,54.33 257.78,54.26 258.17,54.2 258.57,54.15 258.96,54.1 259.36,54.07 259.76,54.04 260.15,54.02 260.55,54 260.95,53.99 261.34,53.98 261.74,53.97" stroke-dasharray="none" stroke="rgb(31,120,180)" stroke-width="0.75" opacity="1" stroke-opacity="1" fill="none"/>
          </g>
          <g id="Fig:densplot_01.xyplot.lines.group.12.panel.1.1.1">
            <polyline id="Fig:densplot_01.xyplot.lines.group.12.panel.1.1.1.1" points="59.03,53.99 59.42,54 59.82,54.02 60.22,54.04 60.62,54.07 61.01,54.11 61.41,54.16 61.81,54.22 62.2,54.3 62.6,54.4 63,54.53 63.39,54.68 63.79,54.87 64.19,55.1 64.58,55.37 64.98,55.7 65.38,56.09 65.77,56.57 66.17,57.12 66.57,57.76 66.96,58.5 67.36,59.35 67.76,60.32 68.15,61.44 68.55,62.7 68.95,64.12 69.34,65.68 69.74,67.41 70.14,69.31 70.53,71.39 70.93,73.67 71.33,76.13 71.73,78.76 72.12,81.56 72.52,84.53 72.92,87.65 73.31,90.94 73.71,94.38 74.11,97.94 74.5,101.61 74.9,105.38 75.3,109.22 75.69,113.13 76.09,117.1 76.49,121.08 76.88,125.08 77.28,129.07 77.68,133.05 78.07,136.98 78.47,140.87 78.87,144.69 79.26,148.43 79.66,152.09 80.06,155.66 80.45,159.14 80.85,162.51 81.25,165.77 81.64,168.9 82.04,171.93 82.44,174.84 82.84,177.64 83.23,180.33 83.63,182.9 84.03,185.34 84.42,187.68 84.82,189.91 85.22,192.03 85.61,194.06 86.01,195.99 86.41,197.82 86.8,199.54 87.2,201.17 87.6,202.72 87.99,204.19 88.39,205.58 88.79,206.89 89.18,208.12 89.58,209.27 89.98,210.36 90.37,211.38 90.77,212.34 91.17,213.24 91.56,214.08 91.96,214.85 92.36,215.57 92.75,216.23 93.15,216.84 93.55,217.39 93.95,217.9 94.34,218.34 94.74,218.73 95.14,219.07 95.53,219.36 95.93,219.6 96.33,219.79 96.72,219.93 97.12,220.01 97.52,220.05 97.91,220.05 98.31,220.01 98.71,219.92 99.1,219.81 99.5,219.66 99.9,219.47 100.29,219.26 100.69,219.02 101.09,218.77 101.48,218.5 101.88,218.21 102.28,217.91 102.67,217.59 103.07,217.27 103.47,216.93 103.86,216.59 104.26,216.24 104.66,215.88 105.06,215.51 105.45,215.13 105.85,214.74 106.25,214.34 106.64,213.93 107.04,213.5 107.44,213.06 107.83,212.6 108.23,212.13 108.63,211.65 109.02,211.15 109.42,210.63 109.82,210.11 110.21,209.57 110.61,209.02 111.01,208.46 111.4,207.89 111.8,207.31 112.2,206.73 112.59,206.15 112.99,205.57 113.39,204.98 113.78,204.4 114.18,203.83 114.58,203.26 114.97,202.69 115.37,202.14 115.77,201.61 116.17,201.08 116.56,200.57 116.96,200.08 117.36,199.6 117.75,199.15 118.15,198.71 118.55,198.29 118.94,197.89 119.34,197.51 119.74,197.15 120.13,196.81 120.53,196.49 120.93,196.19 121.32,195.91 121.72,195.65 122.12,195.4 122.51,195.18 122.91,194.96 123.31,194.77 123.7,194.59 124.1,194.43 124.5,194.28 124.89,194.14 125.29,194.02 125.69,193.91 126.08,193.82 126.48,193.74 126.88,193.67 127.28,193.61 127.67,193.56 128.07,193.53 128.47,193.5 128.86,193.48 129.26,193.48 129.66,193.47 130.05,193.48 130.45,193.49 130.85,193.5 131.24,193.51 131.64,193.52 132.04,193.52 132.43,193.52 132.83,193.5 133.23,193.48 133.62,193.44 134.02,193.39 134.42,193.31 134.81,193.22 135.21,193.1 135.61,192.96 136,192.81 136.4,192.62 136.8,192.42 137.19,192.2 137.59,191.95 137.99,191.69 138.39,191.42 138.78,191.13 139.18,190.84 139.58,190.53 139.97,190.22 140.37,189.91 140.77,189.6 141.16,189.29 141.56,188.98 141.96,188.68 142.35,188.38 142.75,188.08 143.15,187.79 143.54,187.49 143.94,187.21 144.34,186.92 144.73,186.63 145.13,186.35 145.53,186.06 145.92,185.77 146.32,185.49 146.72,185.2 147.11,184.91 147.51,184.62 147.91,184.34 148.3,184.05 148.7,183.77 149.1,183.49 149.5,183.22 149.89,182.95 150.29,182.69 150.69,182.44 151.08,182.2 151.48,181.96 151.88,181.73 152.27,181.5 152.67,181.28 153.07,181.07 153.46,180.86 153.86,180.66 154.26,180.46 154.65,180.26 155.05,180.07 155.45,179.87 155.84,179.68 156.24,179.5 156.64,179.31 157.03,179.13 157.43,178.95 157.83,178.77 158.22,178.59 158.62,178.42 159.02,178.24 159.41,178.06 159.81,177.89 160.21,177.71 160.61,177.53 161,177.34 161.4,177.14 161.8,176.94 162.19,176.73 162.59,176.51 162.99,176.27 163.38,176.02 163.78,175.76 164.18,175.48 164.57,175.19 164.97,174.88 165.37,174.56 165.76,174.23 166.16,173.89 166.56,173.53 166.95,173.17 167.35,172.8 167.75,172.43 168.14,172.06 168.54,171.69 168.94,171.32 169.33,170.96 169.73,170.6 170.13,170.25 170.52,169.9 170.92,169.56 171.32,169.23 171.72,168.91 172.11,168.59 172.51,168.28 172.91,167.97 173.3,167.67 173.7,167.37 174.1,167.06 174.49,166.75 174.89,166.44 175.29,166.12 175.68,165.8 176.08,165.46 176.48,165.12 176.87,164.76 177.27,164.39 177.67,164 178.06,163.6 178.46,163.19 178.86,162.76 179.25,162.31 179.65,161.84 180.05,161.36 180.44,160.86 180.84,160.35 181.24,159.83 181.63,159.29 182.03,158.74 182.43,158.18 182.83,157.6 183.22,157.02 183.62,156.44 184.02,155.84 184.41,155.24 184.81,154.64 185.21,154.04 185.6,153.44 186,152.84 186.4,152.24 186.79,151.65 187.19,151.06 187.59,150.48 187.98,149.9 188.38,149.33 188.78,148.76 189.17,148.2 189.57,147.64 189.97,147.09 190.36,146.54 190.76,145.99 191.16,145.44 191.55,144.89 191.95,144.34 192.35,143.79 192.74,143.24 193.14,142.68 193.54,142.11 193.94,141.54 194.33,140.96 194.73,140.38 195.13,139.79 195.52,139.19 195.92,138.58 196.32,137.97 196.71,137.34 197.11,136.71 197.51,136.08 197.9,135.43 198.3,134.78 198.7,134.12 199.09,133.45 199.49,132.78 199.89,132.1 200.28,131.42 200.68,130.72 201.08,130.03 201.47,129.33 201.87,128.63 202.27,127.93 202.66,127.22 203.06,126.52 203.46,125.82 203.85,125.12 204.25,124.43 204.65,123.74 205.05,123.05 205.44,122.38 205.84,121.71 206.24,121.04 206.63,120.39 207.03,119.73 207.43,119.09 207.82,118.45 208.22,117.81 208.62,117.18 209.01,116.55 209.41,115.92 209.81,115.29 210.2,114.66 210.6,114.03 211,113.39 211.39,112.75 211.79,112.11 212.19,111.46 212.58,110.81 212.98,110.16 213.38,109.5 213.77,108.84 214.17,108.17 214.57,107.5 214.96,106.83 215.36,106.16 215.76,105.48 216.15,104.81 216.55,104.14 216.95,103.47 217.35,102.81 217.74,102.15 218.14,101.5 218.54,100.85 218.93,100.21 219.33,99.59 219.73,98.97 220.12,98.36 220.52,97.76 220.92,97.17 221.31,96.59 221.71,96.03 222.11,95.48 222.5,94.94 222.9,94.42 223.3,93.9 223.69,93.4 224.09,92.92 224.49,92.44 224.88,91.98 225.28,91.53 225.68,91.09 226.07,90.66 226.47,90.24 226.87,89.82 227.26,89.42 227.66,89.02 228.06,88.62 228.46,88.23 228.85,87.84 229.25,87.46 229.65,87.07 230.04,86.69 230.44,86.3 230.84,85.91 231.23,85.53 231.63,85.14 232.03,84.74 232.42,84.35 232.82,83.95 233.22,83.54 233.61,83.13 234.01,82.72 234.41,82.31 234.8,81.89 235.2,81.47 235.6,81.04 235.99,80.61 236.39,80.17 236.79,79.74 237.18,79.29 237.58,78.84 237.98,78.38 238.37,77.92 238.77,77.45 239.17,76.97 239.57,76.49 239.96,75.99 240.36,75.48 240.76,74.96 241.15,74.43 241.55,73.89 241.95,73.33 242.34,72.76 242.74,72.17 243.14,71.56 243.53,70.94 243.93,70.3 244.33,69.65 244.72,68.99 245.12,68.31 245.52,67.62 245.91,66.92 246.31,66.21 246.71,65.51 247.1,64.8 247.5,64.09 247.9,63.39 248.29,62.7 248.69,62.03 249.09,61.37 249.48,60.73 249.88,60.11 250.28,59.53 250.68,58.97 251.07,58.44 251.47,57.95 251.87,57.49 252.26,57.07 252.66,56.68 253.06,56.32 253.45,56 253.85,55.71 254.25,55.46 254.64,55.23 255.04,55.03 255.44,54.85 255.83,54.7 256.23,54.57 256.63,54.46 257.02,54.36 257.42,54.29 257.82,54.22 258.21,54.16 258.61,54.12 259.01,54.08 259.4,54.05 259.8,54.03 260.2,54.01 260.59,54 260.99,53.98 261.39,53.98 261.79,53.97" stroke-dasharray="none" stroke="rgb(31,120,180)" stroke-width="0.75" opacity="1" stroke-opacity="1" fill="none"/>
          </g>
        </g>
        <g id="Fig:densplot_01.panel.1.1.off.vp.2">
          <g id="Fig:densplot_01.border.panel.1.1.1">
            <rect id="Fig:densplot_01.border.panel.1.1.1.1" x="44.8" y="42.19" width="231.2" height="191.81" transform="" stroke="rgb(0,0,0)" stroke-dasharray="none" stroke-width="0.75" opacity="1" fill="none" stroke-opacity="1" fill-opacity="0"/>
          </g>
        </g>
        <g id="Fig:densplot_01..1"/>
      </g>
    </g>
  </g>
</svg>